<?xml version="1.0" encoding="utf-8"?>
<!-- Generator: Adobe Illustrator 21.1.0, SVG Export Plug-In . SVG Version: 6.00 Build 0)  -->
<svg version="1.1" id="Layer_1" xmlns="http://www.w3.org/2000/svg" xmlns:xlink="http://www.w3.org/1999/xlink" x="0px" y="0px"
	 viewBox="0 0 1832 496" style="enable-background:new 0 0 1832 496;" xml:space="preserve">
<style type="text/css">
	.st0{fill:#86C98A;}
	.st1{font-family:'MontserratAlternates-Regular';}
	.st2{font-size:147.6126px;}
	.st3{fill:none;}
	.st4{fill:#FFFFFF;}
	.st5{fill:none;stroke:#FFFFFF;stroke-width:12;stroke-miterlimit:10;}
	.st6{fill:none;stroke:#FFFFFF;stroke-width:4;stroke-miterlimit:10;}
</style>
<g>
	<text transform="matrix(1 0 0 1 401.5853 295.2471)" class="st0 st1 st2">$</text>
</g>
<g>
	<text transform="matrix(1 0 0 1 166.0891 295.2471)" class="st0 st1 st2">€</text>
</g>
<path class="st0" d="M657.3,261.3c3,0.7,6.5,0.9,10.3,0.9c12.5,0,23.6-3.7,30.4-10.9c5-5.2,7.7-12.3,7.7-21.3
	c0-8.9-3.2-16.1-8.7-20.8c-5.9-5.3-15.2-8.3-27.9-8.3c-10.3,0-18.5,0.9-24.7,1.9v68.9h-13.6v11.4h13.6v18h12.8v-18h41.3v-11.4h-41.3
	V261.3z M657.3,212.1c2.2-0.6,6.5-1,12.1-1c14.2,0,23.5,6.3,23.5,19.5c0,13.7-9.4,21.3-24.9,21.3c-4.3,0-7.8-0.3-10.6-1V212.1z"/>
<path class="st3" d="M333.1,337.1c3.7,4.3,7.7,8.4,11.9,12.2c21-27.2,33.5-61.3,33.5-98.3c0-37-12.5-71.1-33.5-98.3
	c-4.2,3.8-8.2,7.9-11.9,12.2c17.9,24.1,28.6,53.9,28.6,86.1C361.7,283.2,351.1,313,333.1,337.1z"/>
<g>
	<path class="st4" d="M353,150.1c-2.4-3.2-5-6.2-7.7-9.2c-3.8-4.2-7.7-8.2-11.9-12c-1-0.9-2-1.8-3-2.7
		c-29-25.2-66.8-40.4-108.1-40.4C131.2,85.8,57,159.9,57,251s74.1,165.2,165.2,165.2c41.3,0,79.1-15.2,108.1-40.4c1-0.9,2-1.8,3-2.7
		c4.2-3.8,8.1-7.8,11.9-12c2.7-3,5.2-6.1,7.7-9.2C374.6,324,387.5,289,387.5,251C387.5,213,374.6,178,353,150.1z M350,349.3
		c-2.4,3.2-5,6.2-7.7,9.2c-3.8,4.2-7.7,8.2-11.9,12c-1,0.9-2,1.8-3,2.7c-28.2,24.3-65,39.1-105.1,39.1C133.4,412.2,61,339.9,61,251
		S133.4,89.8,222.3,89.8c40.1,0,76.9,14.7,105.1,39.1c1,0.9,2,1.8,3,2.7c4.2,3.8,8.1,7.8,11.9,12c2.7,3,5.2,6.1,7.7,9.2
		c21,27.2,33.5,61.3,33.5,98.3C383.5,288,371,322.1,350,349.3z"/>
	<path class="st4" d="M338.1,164.9c-2.4-3.3-5-6.4-7.7-9.4c-3.7-4.2-7.7-8.2-11.9-12c-1-0.9-2-1.8-3-2.6
		c-25.2-21.3-57.7-34.2-93.2-34.2c-79.6,0-144.4,64.8-144.4,144.4c0,79.6,64.8,144.4,144.4,144.4c35.5,0,68.1-12.9,93.2-34.2
		c1-0.9,2-1.7,3-2.6c4.2-3.8,8.2-7.8,11.9-12c2.7-3,5.3-6.2,7.7-9.4c17.9-24.1,28.6-53.9,28.6-86.1C366.6,218.8,356,189,338.1,164.9
		z M330.4,327.3c-2.4,3.4-5,6.7-7.7,9.8c-3.7,4.3-7.7,8.4-11.9,12.2c-1,0.9-2,1.8-3,2.6c-23.1,19.6-53,31.5-85.6,31.5
		c-73,0-132.4-59.4-132.4-132.4s59.4-132.4,132.4-132.4c32.6,0,62.5,11.8,85.6,31.5c1,0.9,2,1.7,3,2.6c4.2,3.8,8.2,7.9,11.9,12.2
		c2.7,3.2,5.3,6.4,7.7,9.8c15.3,21.6,24.2,47.9,24.2,76.3C354.6,279.4,345.7,305.7,330.4,327.3z"/>
</g>
<path class="st4" d="M643.7,118.6c73,0,132.4,59.4,132.4,132.4s-59.4,132.4-132.4,132.4c-32.5,0-62.3-11.8-85.4-31.3
	c-2.5,3.2-5,6.2-7.7,9.2c25.2,21.3,57.6,34.1,93.1,34.1c79.6,0,144.4-64.8,144.4-144.4c0-79.6-64.8-144.4-144.4-144.4
	c-35.4,0-67.9,12.8-93.1,34.1c2.7,3,5.2,6,7.7,9.2C581.4,130.4,611.2,118.6,643.7,118.6z"/>
<path class="st4" d="M643.7,85.8c-41.3,0-79,15.2-108,40.3c1,0.9,2,1.8,3,2.7c28.2-24.3,64.9-39,105-39
	c88.9,0,161.2,72.3,161.2,161.2s-72.3,161.2-161.2,161.2c-40.1,0-76.8-14.7-105-39c-1,0.9-2,1.8-3,2.7c29,25.1,66.8,40.3,108,40.3
	c91.1,0,165.2-74.1,165.2-165.2S734.8,85.8,643.7,85.8z"/>
<g>
	<path class="st4" d="M340.3,140.9c2.7,3,5.2,6.1,7.7,9.2c23.1-19.6,53-31.5,85.6-31.5c32.5,0,62.3,11.8,85.4,31.3
		c2.5-3.2,5-6.2,7.7-9.2c-25.2-21.3-57.6-34.1-93.1-34.1C398,106.6,365.5,119.5,340.3,140.9z"/>
	<path class="st4" d="M533.9,337.3c-3.7,4.3-7.7,8.4-11.9,12.2c-1,0.9-2,1.8-3,2.6c-23.1,19.5-52.9,31.3-85.4,31.3
		c-32.6,0-62.5-11.8-85.6-31.5c-2.4,3.2-5,6.2-7.7,9.2c25.2,21.3,57.7,34.2,93.2,34.2c35.4,0,67.9-12.8,93.1-34.1c1-0.9,2-1.7,3-2.6
		c4.2-3.8,8.2-7.7,11.9-12c2.7-3,5.3-6.2,7.7-9.4c18-24.1,28.7-54,28.7-86.3c0-32.3-10.7-62.2-28.7-86.3c-2.4-3.3-5-6.4-7.7-9.4
		c-3.7-4.2-7.7-8.2-11.9-12c-1-0.9-2-1.8-3-2.6c-2.7,3-5.2,6-7.7,9.2c1,0.9,2,1.7,3,2.6c4.2,3.8,8.2,7.9,11.9,12.2
		c2.7,3.1,5.3,6.4,7.7,9.8c15.3,21.6,24.4,48,24.4,76.5s-9,54.8-24.4,76.4C539.2,330.8,536.6,334.1,533.9,337.3z"/>
	<path class="st4" d="M433.6,412.2c-40.1,0-76.9-14.7-105.1-39.1c-1,0.9-2,1.8-3,2.7c29,25.2,66.8,40.4,108.1,40.4
		c41.3,0,79-15.2,108-40.3c-1-0.9-2-1.8-3-2.7C510.3,397.5,473.6,412.2,433.6,412.2z"/>
	<path class="st4" d="M564.2,149.9c-2.5-3.2-5-6.2-7.7-9.2c-3.8-4.2-7.7-8.2-11.9-12c-1-0.9-2-1.8-3-2.7
		c-29-25.1-66.8-40.3-108-40.3c-41.3,0-79.1,15.2-108.1,40.4c1,0.9,2,1.8,3,2.7c28.2-24.3,65-39.1,105.1-39.1
		c40.1,0,76.8,14.7,105,39c1,0.9,2,1.8,3,2.7c4.2,3.8,8.1,7.8,11.9,11.9c2.7,3,5.2,6,7.7,9.2c21.1,27.2,33.6,61.4,33.6,98.4
		c0,37-12.6,71.2-33.6,98.4c-2.4,3.2-5,6.2-7.7,9.2c-3.8,4.2-7.7,8.2-11.9,11.9c0,0,0,0,0,0c-1,0.9-2,1.8-3,2.6c1,0.9,2,1.8,3,2.7
		c1-0.9,2-1.8,3-2.7c0,0,0,0,0,0c4.2-3.8,8.1-7.8,11.9-12c2.7-3,5.2-6,7.7-9.2c21.7-28,34.6-63,34.6-101.1
		C598.8,213,585.9,177.9,564.2,149.9z"/>
</g>
<path class="st0" d="M1602.7,253.1c0,0,17.1-13.9,6.9-37.7c-7.5-17.7-29.3-19-29.3-19l-5.1,0l0-43.5l-14.1,0l0,43.5l-16.2,0l0-43.6
	l-14.1,0l0,43.6l-34.1,0.1l0.3,13.6c0,0,9-1.3,14.4,4.4c3,3.2,4.4,12.1,4.4,12.1l-0.6,63.9c0,0-1.1,7.8-4.9,9.5
	c-3.8,1.7-10,2.6-10,2.6l-3.6,14.6l34.1,0l0,31.9l14.1,0l0-31.9l16.2,0l0,31.9l14.1,0l0-31.9l10.3,0c0,0,29.1,0.3,33.4-25.4
	C1624,261.3,1602.7,253.1,1602.7,253.1z M1545.4,218.4l27,0c0,0,9.8,1.9,11,12.6c2,18-11,18-11,18l-27,0L1545.4,218.4z M1574,294.4
	l-28.6,0l0-30.5l34.4,0c0,0,10.2,1.8,11,12.6C1592.4,297,1574,294.4,1574,294.4z"/>
<path class="st4" d="M1142.8,245.8l-54.5-54.4c-4.6-4.6-12.6-1.3-12.6,5.2v108.8c0,6.5,7.9,9.8,12.6,5.2l54.5-54.4
	C1145.7,253.3,1145.7,248.7,1142.8,245.8z"/>
<path class="st4" d="M975.6,265.3v-28.5c0-6.4,5.2-11.5,11.5-11.5h95.3c6.4,0,11.5,5.2,11.5,11.5v28.5c0,6.4-5.2,11.5-11.5,11.5
	h-95.3C980.7,276.8,975.6,271.6,975.6,265.3z"/>
<circle class="st5" cx="1558.1" cy="251" r="192.2"/>
<circle class="st6" cx="1558.1" cy="251" r="222.9"/>
</svg>
