<svg width="183" height="139" viewBox="0 0 183 139" fill="none" xmlns="http://www.w3.org/2000/svg">
<rect x="46" y="61" width="103" height="64" fill="white"/>
<rect x="78" y="84" width="41" height="26" fill="#B1B3C5"/>
<path d="M109.5 126H86.5L80.5 138H115L109.5 126Z" fill="#B1B3C5"/>
<path d="M33.1362 85.6929H0V88.2446H33.1362V85.6929Z" fill="#50567C"/>
<path d="M12.4325 77.0044H0V79.5561H12.4325V77.0044Z" fill="#50567C"/>
<path d="M9.15201 93.6157H0V96.1674H9.15201V93.6157Z" fill="#50567C"/>
<path d="M33.149 93.6157H16.5809V96.1674H33.149V93.6157Z" fill="#50567C"/>
<path d="M33.1362 102.33H0V104.882H33.1362V102.33Z" fill="#50567C"/>
<path d="M24.6479 110.24H0V112.792H24.6479V110.24Z" fill="#50567C"/>
<path d="M82.9937 137.984H59.4714C59.1211 137.984 58.7852 137.846 58.5375 137.599C58.2898 137.352 58.1506 137.016 58.1506 136.667C58.1506 136.318 58.2898 135.983 58.5375 135.735C58.7852 135.488 59.1211 135.35 59.4714 135.35H82.9937C83.344 135.35 83.6799 135.488 83.9276 135.735C84.1753 135.983 84.3144 136.318 84.3144 136.667C84.3144 137.016 84.1753 137.352 83.9276 137.599C83.6799 137.846 83.344 137.984 82.9937 137.984Z" fill="#50567C"/>
<path d="M181.428 137.984H108.411C108.061 137.984 107.725 137.846 107.477 137.599C107.23 137.352 107.091 137.016 107.091 136.667C107.091 136.318 107.23 135.983 107.477 135.735C107.725 135.488 108.061 135.35 108.411 135.35H181.428C181.779 135.35 182.115 135.488 182.362 135.735C182.61 135.983 182.749 136.318 182.749 136.667C182.749 137.016 182.61 137.352 182.362 137.599C182.115 137.846 181.779 137.984 181.428 137.984Z" fill="#50567C"/>
<path d="M51.0847 137.965H40.3207C39.9705 137.965 39.6345 137.826 39.3868 137.579C39.1391 137.332 39 136.997 39 136.647C39 136.298 39.1391 135.963 39.3868 135.716C39.6345 135.469 39.9705 135.33 40.3207 135.33H51.0847C51.435 135.33 51.771 135.469 52.0186 135.716C52.2663 135.963 52.4055 136.298 52.4055 136.647C52.4055 136.997 52.2663 137.332 52.0186 137.579C51.771 137.826 51.435 137.965 51.0847 137.965Z" fill="#50567C"/>
<path d="M81.0986 137.919C80.8762 137.919 80.6575 137.863 80.4626 137.756C80.2678 137.649 80.1031 137.495 79.9839 137.308C79.8647 137.12 79.7948 136.906 79.7807 136.685C79.7666 136.463 79.8088 136.242 79.9033 136.041L85.2259 124.672C85.3324 124.446 85.5014 124.254 85.7131 124.12C85.9248 123.986 86.1704 123.915 86.4211 123.915H108.814C109.053 123.915 109.287 123.98 109.492 124.103C109.697 124.226 109.864 124.402 109.976 124.613L115.979 135.916C116.122 136.222 116.142 136.572 116.034 136.892C115.926 137.212 115.699 137.478 115.4 137.637C115.101 137.795 114.752 137.832 114.426 137.741C114.1 137.65 113.822 137.438 113.648 137.148L108.015 126.549H87.2796L82.2938 137.161C82.1872 137.388 82.0182 137.579 81.8066 137.713C81.5949 137.847 81.3493 137.919 81.0986 137.919V137.919Z" fill="#50567C"/>
<path d="M147.961 126.549H47.5847C46.7272 126.585 45.8903 126.281 45.2569 125.703C44.6234 125.126 44.2447 124.322 44.2036 123.467V63.5239C44.2036 61.8969 45.6564 59.3872 47.5847 59.3872H147.961C149.942 59.3872 151.216 61.8771 151.216 63.5239V123.467C151.21 123.884 151.12 124.295 150.951 124.677C150.783 125.058 150.541 125.403 150.238 125.69C149.934 125.977 149.577 126.201 149.186 126.348C148.795 126.496 148.378 126.564 147.961 126.549ZM47.6904 61.9957C47.2521 62.3863 46.9647 62.9177 46.8781 63.4976V123.44C46.8781 123.631 47.2347 123.888 47.6177 123.888H147.961C148.258 123.888 148.575 123.717 148.575 123.44V63.4976C148.512 62.9329 148.263 62.4049 147.868 61.9957H47.6904Z" fill="#50567C"/>
<path d="M110.315 21.9526L176.537 1.32178L162.695 48.525L138.968 36.4904L127.874 48.2286L125.853 29.8374L110.315 21.9526Z" fill="#2AFFB2"/>
<path d="M162.696 49.8424C162.489 49.8432 162.286 49.7958 162.101 49.704L139.252 38.1107L128.832 49.1309C128.659 49.3133 128.437 49.4425 128.193 49.5034C127.949 49.5644 127.692 49.5545 127.454 49.4749C127.215 49.3953 127.004 49.2493 126.846 49.0542C126.688 48.8591 126.588 48.6229 126.56 48.3734L124.619 30.687L109.721 23.1316C109.487 23.0127 109.294 22.8271 109.167 22.5985C109.039 22.3698 108.983 22.1085 109.005 21.8477C109.027 21.587 109.126 21.3386 109.29 21.1344C109.454 20.9302 109.675 20.7793 109.925 20.701L176.141 0.0635461C176.369 -0.00800226 176.612 -0.0163801 176.845 0.0393073C177.077 0.0949947 177.291 0.212656 177.461 0.379728C177.633 0.547326 177.756 0.758605 177.817 0.990772C177.877 1.22294 177.873 1.46718 177.805 1.69715L163.95 48.8938C163.896 49.0806 163.801 49.253 163.672 49.3988C163.543 49.5446 163.383 49.6601 163.204 49.737C163.043 49.8053 162.87 49.8411 162.696 49.8424ZM138.968 35.1729C139.177 35.1731 139.383 35.2227 139.569 35.3178L161.877 46.6344L174.576 3.29782L113.822 22.2358L126.468 28.6516C126.663 28.7506 126.83 28.8963 126.954 29.0757C127.079 29.255 127.157 29.4624 127.181 29.6792L128.891 45.238L138.004 35.5747C138.129 35.4458 138.279 35.3437 138.445 35.2746C138.611 35.2055 138.789 35.1709 138.968 35.1729Z" fill="#50567C"/>
<path d="M148.273 18.5407C147.981 18.5427 147.696 18.4479 147.463 18.2711C147.231 18.0942 147.063 17.8454 146.988 17.5636C146.912 17.2818 146.933 16.9829 147.046 16.7139C147.159 16.4449 147.358 16.2209 147.613 16.0771L175.89 0.175805C176.194 0.00110441 176.556 -0.0456858 176.896 0.0457281C177.235 0.137142 177.524 0.359272 177.699 0.663252C177.874 0.967232 177.921 1.32816 177.83 1.66664C177.738 2.00512 177.515 2.29342 177.21 2.46812L148.947 18.3694C148.741 18.4855 148.509 18.5446 148.273 18.5407V18.5407Z" fill="#50567C"/>
<path d="M125.854 31.1546C125.561 31.1567 125.276 31.0619 125.044 30.885C124.811 30.7082 124.644 30.4594 124.568 30.1776C124.493 29.8957 124.513 29.5969 124.626 29.3279C124.739 29.0589 124.939 28.8349 125.193 28.6911L138.308 21.3135C138.459 21.227 138.625 21.171 138.798 21.1487C138.971 21.1263 139.146 21.1382 139.314 21.1834C139.482 21.2287 139.639 21.3065 139.777 21.4125C139.915 21.5184 140.031 21.6504 140.118 21.8009C140.204 21.9515 140.26 22.1175 140.283 22.2897C140.305 22.4619 140.293 22.6367 140.248 22.8043C140.203 22.9719 140.125 23.129 140.018 23.2665C139.912 23.404 139.78 23.5193 139.629 23.6058L126.501 30.9636C126.306 31.0844 126.083 31.1505 125.854 31.1546V31.1546Z" fill="#50567C"/>
<path d="M138.968 37.8078C138.703 37.8082 138.444 37.729 138.225 37.5805C138.005 37.4321 137.836 37.2212 137.738 36.9753C137.641 36.7295 137.62 36.46 137.678 36.202C137.736 35.944 137.87 35.7093 138.064 35.5286L175.632 0.360033C175.759 0.241523 175.907 0.14905 176.07 0.0878926C176.232 0.0267351 176.405 -0.0019089 176.579 0.00359613C176.752 0.00910115 176.923 0.0486474 177.081 0.119977C177.24 0.191306 177.382 0.293022 177.501 0.419317C177.62 0.545611 177.712 0.694012 177.774 0.856044C177.835 1.01808 177.864 1.19057 177.858 1.36367C177.853 1.53677 177.813 1.7071 177.742 1.86492C177.67 2.02274 177.568 2.16496 177.441 2.28347L139.873 37.4521C139.628 37.6811 139.304 37.8083 138.968 37.8078Z" fill="#50567C"/>
<path d="M102.924 138.004H100.177C99.8263 138.004 99.4904 137.866 99.2427 137.619C98.995 137.372 98.8558 137.036 98.8558 136.687C98.8558 136.338 98.995 136.003 99.2427 135.755C99.4904 135.508 99.8263 135.37 100.177 135.37H102.924C103.274 135.37 103.61 135.508 103.858 135.755C104.105 136.003 104.244 136.338 104.244 136.687C104.244 137.036 104.105 137.372 103.858 137.619C103.61 137.866 103.274 138.004 102.924 138.004Z" fill="#50567C"/>
<path d="M119.175 110.925H78.5429C78.2662 110.925 78.0008 110.815 77.8051 110.62C77.6094 110.425 77.4995 110.16 77.4995 109.884V84.3196C77.4995 84.0436 77.6094 83.7788 77.8051 83.5837C78.0008 83.3885 78.2662 83.2788 78.5429 83.2788H119.175C119.313 83.278 119.449 83.3042 119.577 83.3562C119.704 83.4081 119.82 83.4846 119.917 83.5813C120.015 83.6781 120.092 83.7931 120.145 83.9198C120.198 84.0465 120.225 84.1824 120.225 84.3196V109.917C120.217 110.189 120.102 110.446 119.906 110.634C119.71 110.822 119.448 110.927 119.175 110.925V110.925ZM79.5863 108.843H118.132V85.3274H79.5863V108.843Z" fill="#50567C"/>
<path d="M118.363 110.417C118.119 110.412 117.885 110.321 117.703 110.16L105.037 99.2587C104.828 99.0779 104.699 98.8215 104.679 98.5461C104.659 98.2706 104.75 97.9985 104.931 97.7898C105.112 97.581 105.369 97.4526 105.646 97.4328C105.922 97.4131 106.195 97.5036 106.404 97.6844L119.03 108.593C119.238 108.773 119.365 109.028 119.385 109.302C119.405 109.576 119.315 109.847 119.136 110.055C119.039 110.165 118.92 110.255 118.788 110.317C118.655 110.379 118.51 110.413 118.363 110.417V110.417Z" fill="#50567C"/>
<path d="M78.9655 110.417C78.7553 110.412 78.5517 110.344 78.3811 110.221C78.2106 110.099 78.0811 109.927 78.0097 109.73C77.9384 109.533 77.9284 109.319 77.9811 109.116C78.0338 108.913 78.1467 108.73 78.3051 108.593L90.905 97.6844C91.0086 97.5948 91.1289 97.5266 91.259 97.4834C91.3891 97.4402 91.5264 97.4231 91.6632 97.4328C91.7999 97.4426 91.9334 97.4792 92.056 97.5404C92.1785 97.6017 92.2878 97.6864 92.3776 97.7898C92.4673 97.8931 92.5358 98.0131 92.5791 98.1429C92.6223 98.2727 92.6396 98.4097 92.6297 98.5461C92.6199 98.6825 92.5833 98.8156 92.5219 98.9379C92.4605 99.0601 92.3756 99.1692 92.2719 99.2587L79.6457 110.16C79.4584 110.327 79.2162 110.418 78.9655 110.417V110.417Z" fill="#50567C"/>
<path d="M113.529 88.5485L98.0832 103.956L83.5947 88.3641V72.0215H113.529V88.5485Z" fill="#E2E6E9" stroke="#50567C" stroke-width="2" stroke-linejoin="round"/>
<path d="M98.5653 104.134C98.4212 104.134 98.2785 104.105 98.1466 104.047C98.0146 103.989 97.8963 103.904 97.7993 103.798C97.6122 103.595 97.5134 103.326 97.5245 103.051C97.5357 102.776 97.6559 102.516 97.8587 102.329L117.67 84.1813C117.874 83.9944 118.144 83.8959 118.421 83.9077C118.698 83.9194 118.958 84.0403 119.146 84.2439C119.333 84.4474 119.432 84.7168 119.42 84.9929C119.408 85.269 119.287 85.5292 119.083 85.7161L99.2719 103.864C99.0786 104.039 98.8264 104.135 98.5653 104.134V104.134Z" fill="#50567C"/>
<path d="M98.5652 104.134C98.3012 104.134 98.0468 104.035 97.8521 103.857L78.2589 85.7095C78.1587 85.617 78.0778 85.5057 78.0208 85.3819C77.9638 85.2582 77.9318 85.1244 77.9265 84.9883C77.9213 84.8522 77.943 84.7164 77.9904 84.5887C78.0378 84.461 78.11 84.3438 78.2028 84.2439C78.2956 84.144 78.4072 84.0633 78.5312 84.0064C78.6553 83.9495 78.7894 83.9176 78.9258 83.9124C79.0623 83.9072 79.1984 83.9288 79.3264 83.9761C79.4545 84.0234 79.5719 84.0954 79.6721 84.1879L99.2718 102.335C99.4747 102.523 99.5949 102.782 99.606 103.058C99.6172 103.333 99.5184 103.602 99.3313 103.804C99.2327 103.908 99.1139 103.991 98.9822 104.048C98.8505 104.104 98.7087 104.134 98.5652 104.134V104.134Z" fill="#50567C"/>
<path d="M107.507 79.6098H89.6172C89.3405 79.6098 89.0751 79.5002 88.8795 79.305C88.6838 79.1098 88.5739 78.8451 88.5739 78.5691C88.5739 78.2931 88.6838 78.0283 88.8795 77.8332C89.0751 77.638 89.3405 77.5283 89.6172 77.5283H107.507C107.783 77.5283 108.049 77.638 108.244 77.8332C108.44 78.0283 108.55 78.2931 108.55 78.5691C108.55 78.8451 108.44 79.1098 108.244 79.305C108.049 79.5002 107.783 79.6098 107.507 79.6098V79.6098Z" fill="#50567C"/>
<path d="M107.507 85.1562H89.6172C89.3405 85.1562 89.0751 85.0466 88.8795 84.8514C88.6838 84.6562 88.5739 84.3915 88.5739 84.1155C88.5739 83.8394 88.6838 83.5747 88.8795 83.3795C89.0751 83.1844 89.3405 83.0747 89.6172 83.0747H107.507C107.644 83.0747 107.779 83.1016 107.906 83.1539C108.032 83.2062 108.148 83.2829 108.244 83.3795C108.341 83.4762 108.418 83.5909 108.471 83.7172C108.523 83.8435 108.55 83.9788 108.55 84.1155C108.55 84.2521 108.523 84.3875 108.471 84.5138C108.418 84.64 108.341 84.7548 108.244 84.8514C108.148 84.948 108.032 85.0247 107.906 85.077C107.779 85.1293 107.644 85.1562 107.507 85.1562V85.1562Z" fill="#50567C"/>
<path d="M103.056 90.6959H94.0813C93.8198 90.6751 93.5757 90.5568 93.3977 90.3645C93.2197 90.1723 93.1208 89.9201 93.1208 89.6584C93.1208 89.3967 93.2197 89.1446 93.3977 88.9524C93.5757 88.7601 93.8198 88.6418 94.0813 88.621H103.056C103.199 88.6096 103.344 88.6279 103.48 88.6749C103.616 88.7218 103.741 88.7964 103.846 88.8938C103.952 88.9913 104.037 89.1095 104.094 89.2411C104.152 89.3727 104.182 89.5148 104.182 89.6584C104.182 89.8021 104.152 89.9442 104.094 90.0758C104.037 90.2074 103.952 90.3256 103.846 90.4231C103.741 90.5205 103.616 90.5951 103.48 90.642C103.344 90.689 103.199 90.7073 103.056 90.6959V90.6959Z" fill="#50567C"/>
<path d="M58.7014 36.5573L58.7014 34.0044L50.8166 34.0044L50.8166 36.5573L58.7014 36.5573ZM42.9957 36.5573L42.9957 34.0044L35.1492 34.0044L35.1492 36.5573L42.9957 36.5573ZM28.502 38.6123L27.0475 36.519C24.6698 38.1606 22.8564 40.4964 21.8548 43.2075L24.2407 44.0882C25.0801 41.8767 26.5648 39.9688 28.502 38.6123ZM23.5517 75.0035L23.5517 67.1534L21 67.1534L21 75.0035L23.5517 75.0035ZM23.5517 59.3033L23.5517 51.4532L21 51.4532L21 59.3033L23.5517 59.3033Z" fill="#8185A0"/>
<path d="M58.7014 34.0044L58.7014 36.5573L50.8166 36.5573L50.8166 34.0044L58.7014 34.0044Z" fill="#8185A0"/>
<path d="M74 34.0044L74 36.5573L66.1152 36.5573L66.1152 34.0044L74 34.0044Z" fill="#8185A0"/>
<path d="M88.8848 34.0044L88.8848 36.5573L81 36.5573L81 34.0044L88.8848 34.0044Z" fill="#8185A0"/>
<path d="M104 34.0044L104 36.5573L96.1152 36.5573L96.1152 34.0044L104 34.0044Z" fill="#8185A0"/>
<path d="M118.885 34.0044L118.885 36.5573L111 36.5573L111 34.0044L118.885 34.0044Z" fill="#8185A0"/>
</svg>
