<svg width="510" height="205" viewBox="0 0 510 205" fill="none" xmlns="http://www.w3.org/2000/svg">
<g clip-path="url(#clip0)">
<path d="M277.61 194.16L269 194.249L269.011 195.319L277.621 195.231L277.61 194.16Z" fill="white"/>
<path d="M278.573 195.769L286.469 187.873L291.461 192.865L305.282 179.045V195.765L278.573 195.769Z" fill="#5551EE" fill-opacity="0.55"/>
<path d="M297.259 184.165L296.413 185.014L297.169 185.77L298.018 184.924L297.259 184.165ZM298.584 182.839L299.344 183.598L303.677 179.266V194.156H278.798L285.399 187.555L290.012 192.168H290.768L296.064 186.875L295.308 186.119L290.392 191.035L285.779 186.423H285.019L277.124 194.318L277.503 195.233H304.212L304.747 194.698V177.971L303.832 177.591L298.584 182.839ZM274.724 187.372L275.48 188.132L276.747 186.864L275.991 186.105L274.724 187.372ZM304.202 168L300.176 168.09L300.2 169.163L302.897 169.101L288.769 183.308L284.156 178.699H283.4L277.531 184.569L278.291 185.328L283.773 179.835L288.386 184.448H289.142L303.67 169.837V172.651H304.74V168.542L304.202 168Z" fill="white"/>
<path d="M51.1551 40.3823C53.338 38.1993 53.338 34.6601 51.1551 32.4771C48.9722 30.2942 45.4329 30.2942 43.2499 32.4771C41.067 34.6601 41.067 38.1993 43.2499 40.3823C45.4329 42.5652 48.9721 42.5652 51.1551 40.3823Z" fill="#2AFFB2"/>
<path d="M409.982 95.897H408.808V94.7239H409.982V95.897ZM406.462 95.897H405.289V94.7239H406.462V95.897ZM402.943 95.897H401.77V94.7239H402.943V95.897ZM399.424 95.897H398.251V94.7239H399.424V95.897ZM395.904 95.897H394.731V94.7239H395.904V95.897ZM392.385 95.897H391.212V94.7239H392.385V95.897ZM388.866 95.897H387.693V94.7239H388.866V95.897ZM385.347 95.897H384.174V94.7239H385.347V95.897ZM381.827 95.897H380.654V94.7239H381.827V95.897ZM378.308 95.897H377.135V94.7239H378.308V95.897ZM374.789 95.897H373.616V94.7239H374.789V95.897ZM371.27 95.897H370.096V94.7239H371.27V95.897ZM367.75 95.897H366.577V94.7239H367.75V95.897ZM364.231 95.897H363.058V94.7239H364.231V95.897ZM360.712 95.897H359.539V94.7239H360.712V95.897ZM412.328 95.897V94.7239C412.697 94.7239 413.079 94.7239 413.454 94.6769L413.548 95.85C413.143 95.8794 412.715 95.897 412.334 95.897H412.328ZM415.953 95.4336L415.659 94.2957C416.017 94.2077 416.381 94.0963 416.727 93.9731L417.12 95.0758C416.744 95.2107 416.351 95.3339 415.958 95.4336H415.953ZM419.349 94.0493L418.762 93.0346C419.084 92.8547 419.398 92.659 419.701 92.4481L420.387 93.4041C420.058 93.6153 419.707 93.844 419.355 94.0493H419.349ZM422.217 91.7031L421.337 90.923C421.581 90.6492 421.808 90.3613 422.017 90.0608L422.985 90.7295C422.751 91.0801 422.496 91.417 422.223 91.7383L422.217 91.7031ZM424.123 88.5065L423.015 88.1193C423.131 87.7758 423.225 87.4251 423.296 87.0694L424.469 87.2923C424.385 87.7124 424.272 88.126 424.129 88.5299L424.123 88.5065ZM424.598 84.8464H423.425V83.6733H424.598V84.8464ZM424.598 81.3271H423.425V80.154H424.598V81.3271ZM424.598 77.8079H423.425V76.6348H424.598V77.8079Z" fill="white"/>
<path d="M345.878 95.8967H344.705V94.7236H345.878V95.8967ZM342.359 95.8967H341.185V94.7236H342.359V95.8967ZM338.839 95.8967H337.666V94.7236H338.839V95.8967ZM335.32 95.8967H334.147V94.7236H335.32V95.8967ZM331.801 95.8967H330.628V94.7236H331.801V95.8967ZM328.281 95.8967H327.108V94.7236H328.281V95.8967ZM324.762 95.8967H323.589V94.7236H324.762V95.8967ZM321.243 95.8967H320.07V94.7236H321.243V95.8967ZM317.724 95.8967H316.551V94.7236H317.724V95.8967ZM314.204 95.8967H313.031V94.7236H314.204V95.8967ZM310.685 95.8967H309.512V94.7236H310.685V95.8967ZM307.166 95.8967H305.993V94.7236H307.166V95.8967Z" fill="white"/>
<path d="M111.324 217.722C109.963 217.723 108.632 217.321 107.5 216.566C106.367 215.81 105.485 214.736 104.963 213.479C104.441 212.222 104.304 210.838 104.569 209.503C104.834 208.168 105.489 206.942 106.451 205.979C107.413 205.016 108.638 204.36 109.973 204.095C111.308 203.829 112.692 203.965 113.949 204.485C115.207 205.006 116.282 205.887 117.038 207.019C117.794 208.151 118.198 209.481 118.198 210.842C118.196 212.665 117.472 214.414 116.183 215.703C114.894 216.993 113.147 217.719 111.324 217.722ZM111.324 205.141C110.194 205.14 109.09 205.474 108.151 206.1C107.211 206.727 106.479 207.618 106.046 208.661C105.613 209.704 105.5 210.852 105.72 211.96C105.94 213.068 106.484 214.085 107.282 214.883C108.081 215.682 109.098 216.226 110.206 216.446C111.313 216.666 112.461 216.552 113.504 216.12C114.547 215.687 115.439 214.954 116.065 214.015C116.692 213.076 117.026 211.971 117.025 210.842C117.023 209.331 116.422 207.881 115.353 206.812C114.284 205.744 112.835 205.142 111.324 205.141Z" fill="#6E79A0"/>
<path d="M199.829 217.638C202.285 215.182 202.285 211.201 199.829 208.745C197.374 206.29 193.392 206.29 190.937 208.745C188.481 211.201 188.481 215.182 190.937 217.638C193.392 220.093 197.374 220.093 199.829 217.638Z" fill="#CED0D8"/>
<path d="M131.9 217.722C130.54 217.719 129.211 217.312 128.082 216.554C126.953 215.796 126.074 214.72 125.556 213.463C125.038 212.205 124.904 210.823 125.171 209.489C125.439 208.156 126.096 206.931 127.058 205.971C128.021 205.01 129.247 204.357 130.582 204.093C131.916 203.829 133.298 203.966 134.554 204.487C135.81 205.009 136.884 205.89 137.639 207.021C138.394 208.153 138.797 209.482 138.797 210.842C138.797 211.747 138.619 212.643 138.272 213.479C137.925 214.315 137.417 215.074 136.776 215.713C136.135 216.352 135.375 216.859 134.538 217.204C133.701 217.548 132.805 217.725 131.9 217.722ZM131.9 205.141C130.77 205.14 129.666 205.474 128.727 206.1C127.787 206.727 127.055 207.618 126.622 208.661C126.19 209.704 126.076 210.852 126.296 211.96C126.516 213.068 127.06 214.085 127.858 214.883C128.657 215.682 129.674 216.226 130.782 216.446C131.889 216.666 133.037 216.552 134.081 216.119C135.124 215.687 136.015 214.954 136.642 214.015C137.268 213.076 137.602 211.971 137.601 210.842C137.599 209.33 136.998 207.881 135.929 206.812C134.861 205.744 133.411 205.142 131.9 205.141Z" fill="#6E79A0"/>
<path d="M152.476 217.722C151.114 217.728 149.781 217.329 148.646 216.577C147.51 215.825 146.624 214.752 146.099 213.495C145.573 212.239 145.433 210.854 145.695 209.518C145.957 208.181 146.61 206.953 147.571 205.987C148.532 205.022 149.758 204.364 151.094 204.096C152.429 203.828 153.814 203.963 155.073 204.483C156.332 205.003 157.408 205.885 158.165 207.017C158.923 208.149 159.327 209.48 159.327 210.842C159.325 212.661 158.604 214.406 157.32 215.695C156.037 216.984 154.295 217.713 152.476 217.722ZM152.476 205.141C151.347 205.14 150.242 205.474 149.303 206.1C148.364 206.727 147.631 207.618 147.199 208.661C146.766 209.704 146.652 210.852 146.872 211.96C147.092 213.067 147.636 214.085 148.435 214.883C149.233 215.682 150.25 216.226 151.358 216.446C152.466 216.666 153.614 216.552 154.657 216.119C155.7 215.687 156.591 214.954 157.218 214.015C157.844 213.076 158.178 211.971 158.177 210.842C158.176 209.33 157.574 207.881 156.506 206.812C155.437 205.744 153.988 205.142 152.476 205.141Z" fill="#6E79A0"/>
<path d="M173.046 217.722C171.685 217.722 170.355 217.319 169.223 216.563C168.092 215.807 167.21 214.732 166.689 213.475C166.169 212.218 166.032 210.834 166.298 209.5C166.563 208.165 167.218 206.939 168.181 205.977C169.143 205.015 170.369 204.36 171.703 204.094C173.038 203.829 174.421 203.965 175.679 204.486C176.936 205.006 178.01 205.888 178.766 207.02C179.522 208.151 179.926 209.481 179.926 210.842C179.924 212.666 179.199 214.415 177.909 215.705C176.619 216.995 174.87 217.721 173.046 217.722ZM173.046 205.141C171.917 205.141 170.813 205.476 169.874 206.103C168.936 206.73 168.204 207.622 167.772 208.665C167.341 209.709 167.228 210.856 167.449 211.964C167.669 213.071 168.214 214.088 169.012 214.886C169.811 215.683 170.828 216.227 171.936 216.446C173.043 216.666 174.191 216.552 175.234 216.119C176.277 215.686 177.167 214.954 177.794 214.014C178.42 213.075 178.754 211.971 178.753 210.842C178.751 209.33 178.149 207.879 177.079 206.81C176.009 205.741 174.558 205.141 173.046 205.141Z" fill="#6E79A0"/>
<path d="M193.622 217.722C192.261 217.723 190.93 217.321 189.798 216.566C188.666 215.81 187.783 214.736 187.261 213.479C186.74 212.222 186.603 210.838 186.867 209.503C187.132 208.168 187.787 206.942 188.749 205.979C189.711 205.016 190.937 204.36 192.272 204.095C193.606 203.829 194.99 203.965 196.248 204.485C197.505 205.006 198.58 205.887 199.336 207.019C200.093 208.151 200.496 209.481 200.496 210.842C200.495 212.665 199.77 214.414 198.481 215.703C197.193 216.993 195.445 217.719 193.622 217.722ZM193.622 205.141C192.493 205.14 191.388 205.474 190.449 206.1C189.51 206.727 188.777 207.618 188.344 208.661C187.912 209.704 187.798 210.852 188.018 211.96C188.238 213.068 188.782 214.085 189.581 214.883C190.379 215.682 191.396 216.226 192.504 216.446C193.612 216.666 194.76 216.552 195.803 216.12C196.846 215.687 197.737 214.954 198.364 214.015C198.99 213.076 199.324 211.971 199.323 210.842C199.322 209.331 198.72 207.881 197.652 206.812C196.583 205.744 195.133 205.142 193.622 205.141Z" fill="#6E79A0"/>
<path d="M149.636 -1.84884L149.331 -0.710938L154.258 0.60973L154.563 -0.52817L149.636 -1.84884Z" fill="#6E79A0"/>
<path d="M495.031 146.498V160.147H422.141V143.09L426.845 138.392L432.399 143.952L442.089 134.263L458.894 151.067L464.284 145.677L473.176 154.575L488.139 139.606L495.031 146.498Z" fill="#5551EE" fill-opacity="0.55"/>
<path d="M410.052 29.4707H394.379V45.1432H410.052V29.4707Z" fill="#5551EE" fill-opacity="0.55"/>
<path d="M410.052 54.5869H394.379V70.2594H410.052V54.5869Z" fill="#5551EE" fill-opacity="0.55"/>
<path d="M434.992 54.5869H419.319V70.2594H434.992V54.5869Z" fill="#5551EE" fill-opacity="0.55"/>
<path d="M459.926 54.5869H444.253V70.2594H459.926V54.5869Z" fill="#5551EE" fill-opacity="0.55"/>
<path d="M146.334 21.9922V33.336C147.504 34.1595 148.458 35.2519 149.116 36.5213C149.775 37.7906 150.118 39.1997 150.118 40.6297C150.118 42.0597 149.775 43.4688 149.116 44.7381C148.458 46.0075 147.504 47.0999 146.334 47.9234V63.1736H169.087V21.9922H146.334Z" fill="#5551EE" fill-opacity="0.55"/>
<path d="M136.451 21.9922V33.336C135.282 34.1595 134.328 35.2519 133.67 36.5213C133.011 37.7906 132.667 39.1997 132.667 40.6297C132.667 42.0597 133.011 43.4688 133.67 44.7381C134.328 46.0075 135.282 47.0999 136.451 47.9234V63.1736H113.717V21.9922H136.451Z" fill="#5551EE" fill-opacity="0.55"/>
<path d="M42.2109 121.377C42.214 119.427 42.991 117.557 44.3711 116.179C45.7512 114.801 47.6218 114.028 49.5721 114.028C50.0246 114.032 50.476 114.075 50.9211 114.157C51.774 112.705 52.9911 111.502 54.452 110.666C55.9128 109.829 57.5668 109.389 59.2501 109.388C59.9122 109.39 60.5725 109.459 61.2209 109.593V65.8662H16.356V124.163H42.7505C42.3914 123.278 42.2081 122.332 42.2109 121.377Z" fill="#5551EE" fill-opacity="0.55"/>
<path d="M290.872 112.402C299.22 112.402 305.987 105.635 305.987 97.2872C305.987 88.9392 299.22 82.1719 290.872 82.1719C282.524 82.1719 275.756 88.9392 275.756 97.2872C275.756 105.635 282.524 112.402 290.872 112.402Z" fill="black" fill-opacity="0.25"/>
<path d="M293.054 107.613C300.098 103.949 302.838 95.2689 299.174 88.225C295.511 81.181 286.83 78.4408 279.786 82.1045C272.742 85.7682 270.002 94.4485 273.666 101.492C277.33 108.536 286.01 111.277 293.054 107.613Z" fill="#2AFFB2"/>
<path d="M286.419 121.065C282.285 121.058 278.211 120.077 274.527 118.201C270.843 116.325 267.653 113.607 265.216 110.267L266.16 109.581C268.529 112.841 271.649 115.483 275.256 117.28C278.863 119.078 282.851 119.979 286.88 119.907C290.91 119.835 294.863 118.792 298.403 116.867C301.944 114.942 304.968 112.191 307.218 108.848L308.192 109.505C305.789 113.069 302.546 115.987 298.749 118.003C294.952 120.019 290.718 121.071 286.419 121.065Z" fill="white"/>
<path d="M271.926 109.98L271.744 111.141L266.031 110.238L265.544 116.003L264.377 115.904L264.963 108.883L271.926 109.98Z" fill="white"/>
<path d="M265.163 81.5971L264.166 80.9753C266.42 77.3639 269.52 74.3555 273.197 72.2098C276.874 70.0641 281.018 68.8457 285.271 68.6598C289.525 68.4739 293.759 69.326 297.61 71.1426C301.46 72.9592 304.81 75.6857 307.371 79.0867L306.433 79.7905C303.986 76.5425 300.785 73.9387 297.108 72.204C293.43 70.4693 289.385 69.6557 285.322 69.8335C281.26 70.0114 277.302 71.1753 273.789 73.2247C270.277 75.2742 267.317 78.1477 265.163 81.5971Z" fill="white"/>
<path d="M300.667 79.4917L300.831 78.3245L306.555 79.1339L306.948 73.3682L308.116 73.4444L307.641 80.4771L300.667 79.4917Z" fill="white"/>
<path d="M284.454 86.4717H283.281V103.235H284.454V86.4717Z" fill="#4441D4"/>
<path d="M287.505 100.185H286.332V103.235H287.505V100.185Z" fill="#4441D4"/>
<path d="M287.505 86.4717H286.332V89.5217H287.505V86.4717Z" fill="#4441D4"/>
<path d="M287.68 94.671V93.4979C289.475 93.4979 290.519 93.2222 290.519 91.7969C290.519 90.3716 289.475 90.1018 287.68 90.1018H280.818V88.9287H287.68C288.777 88.9287 291.692 88.9287 291.692 91.7969C291.692 94.6651 288.777 94.671 287.68 94.671Z" fill="#4441D4"/>
<path d="M289.2 100.771H280.818V99.5981H289.2C291.346 99.5981 291.663 98.0614 291.663 97.1405C291.663 96.0143 291.235 94.677 289.2 94.677H283.868V93.5039H289.2C291.88 93.5039 292.836 95.3809 292.836 97.1405C292.836 98.9001 291.886 100.771 289.2 100.771Z" fill="#4441D4"/>
<path d="M302.843 37.5594C301.384 37.5594 299.984 36.9797 298.953 35.9479C297.921 34.9161 297.341 33.5167 297.341 32.0576C297.341 30.5984 297.921 29.199 298.953 28.1672C299.984 27.1354 301.384 26.5558 302.843 26.5558H314.351V13.2235H267.474C262.043 13.2235 261.181 11.4229 261.181 11.4229V48.1935C261.181 48.1935 262.471 50.8916 267.474 50.8916H314.351V37.5594H302.843Z" fill="#5551EE" fill-opacity="0.55"/>
<path d="M293.645 10.6129L292.947 9.66859C295.201 8.01196 296.873 5.68596 297.726 3.02252C298.579 0.359075 298.569 -2.50572 297.697 -5.16307C296.825 -7.82041 295.136 -10.1345 292.872 -11.7752C290.607 -13.4158 287.881 -14.2991 285.085 -14.2991C282.288 -14.2991 279.563 -13.4158 277.298 -11.7752C275.033 -10.1345 273.344 -7.82041 272.473 -5.16307C271.601 -2.50572 271.591 0.359075 272.444 3.02252C273.297 5.68596 274.969 8.01196 277.222 9.66859L276.524 10.6071C274.711 9.24714 273.238 7.48539 272.22 5.46016C271.202 3.43492 270.668 1.20133 270.659 -1.06521C270.657 -3.53932 271.29 -5.97245 272.498 -8.132C273.705 -10.2915 275.446 -12.1053 277.554 -13.3999C279.663 -14.6945 282.068 -15.4266 284.54 -15.5263C287.012 -15.626 289.469 -15.0899 291.674 -13.9693C293.88 -12.8487 295.762 -11.181 297.139 -9.12571C298.516 -7.07039 299.343 -4.69615 299.541 -2.22996C299.739 0.236238 299.3 2.71193 298.268 4.96045C297.236 7.20897 295.644 9.15515 293.645 10.6129Z" fill="white"/>
<path d="M284.936 8.71812C284.494 8.71235 284.053 8.67708 283.616 8.61255L283.956 6.26636C284.292 6.31434 284.631 6.34176 284.971 6.34848L284.936 8.71812ZM286.255 8.6536L285.991 6.30742C286.328 6.27011 286.661 6.20935 286.988 6.12559L287.575 8.40139C287.141 8.51247 286.7 8.5967 286.255 8.6536ZM282.314 8.33101C281.888 8.20683 281.471 8.05599 281.064 7.87936L282.009 5.72674C282.319 5.86293 282.639 5.97853 282.965 6.0728L282.314 8.33101ZM288.824 8.00254L287.956 5.82645C288.269 5.6965 288.574 5.54965 288.871 5.38654L290.044 7.42772C289.651 7.64725 289.244 7.83931 288.824 8.00254ZM279.885 7.27522C279.508 7.0439 279.146 6.78923 278.8 6.51271L280.273 4.68855C280.538 4.90127 280.816 5.09717 281.105 5.27509L279.885 7.27522ZM291.129 6.68867L289.722 4.81759C289.991 4.61252 290.248 4.39118 290.49 4.15479L292.138 5.82645C291.82 6.13414 291.483 6.42208 291.129 6.68867ZM277.809 5.60357C277.502 5.28374 277.218 4.94271 276.959 4.58297L278.853 3.20459C279.056 3.47645 279.273 3.73689 279.504 3.98469L277.809 5.60357ZM293.001 4.84692L291.153 3.40401C291.366 3.135 291.562 2.85291 291.739 2.55939L293.763 3.73248C293.539 4.11971 293.29 4.49198 293.018 4.84692H293.001ZM276.266 3.46267C276.055 3.085 275.871 2.69301 275.715 2.28958L277.903 1.40976C278.024 1.72628 278.167 2.03398 278.331 2.33063L276.266 3.46267ZM294.355 2.58285L292.197 1.6737C292.327 1.3606 292.437 1.03926 292.525 0.711764L294.79 1.29831C294.673 1.73562 294.528 2.16475 294.355 2.58285ZM275.322 1.0109C275.22 0.580296 275.148 0.143297 275.105 -0.297096L277.451 -0.525849C277.485 -0.18848 277.54 0.146481 277.615 0.477149L275.322 1.0109ZM295.048 0.025506L292.701 -0.279496C292.744 -0.618076 292.765 -0.958902 292.766 -1.30009H295.112C295.119 -0.865104 295.098 -0.430129 295.048 0.00204372V0.025506ZM277.404 -1.54644L275.058 -1.62269C275.075 -2.06479 275.118 -2.50549 275.187 -2.94242L277.533 -2.56116C277.471 -2.23361 277.428 -1.9026 277.404 -1.5699V-1.54644ZM292.772 -1.82212C292.748 -2.1589 292.702 -2.49387 292.637 -2.82511L294.936 -3.29435C295.024 -2.85888 295.083 -2.41797 295.112 -1.97462L292.772 -1.82212ZM277.733 -3.54656L275.492 -4.23282C275.622 -4.65672 275.779 -5.07203 275.961 -5.4763L278.096 -4.49677C277.955 -4.19598 277.834 -3.88642 277.733 -3.57002V-3.54656ZM292.396 -3.80464C292.285 -4.12628 292.152 -4.43985 291.998 -4.74312L294.097 -5.7989C294.295 -5.40144 294.467 -4.99201 294.614 -4.57302L292.396 -3.80464ZM278.601 -5.39418L276.618 -6.64353C276.854 -7.01817 277.115 -7.37675 277.398 -7.71691L279.176 -6.21535C278.959 -5.96295 278.759 -5.69646 278.577 -5.41765L278.601 -5.39418ZM291.505 -5.62294C291.311 -5.90025 291.101 -6.16656 290.877 -6.42064L292.637 -7.98672C292.932 -7.65716 293.204 -7.30837 293.452 -6.94267L291.505 -5.62294ZM279.88 -6.97786L278.29 -8.70231C278.614 -9.00384 278.959 -9.28216 279.322 -9.5352L280.671 -7.61719C280.393 -7.42214 280.129 -7.20854 279.88 -6.97786ZM290.126 -7.15969C289.867 -7.37166 289.595 -7.56754 289.311 -7.74624L290.578 -9.73463C290.948 -9.49102 291.303 -9.2246 291.64 -8.93692L290.126 -7.15969ZM281.557 -8.14509L280.472 -10.2273C280.865 -10.4315 281.27 -10.6098 281.686 -10.7611L282.466 -8.56154C282.148 -8.44333 281.839 -8.30421 281.539 -8.14509H281.557ZM288.426 -8.26826C288.119 -8.414 287.804 -8.5394 287.481 -8.64365L288.203 -10.8784C288.625 -10.7411 289.039 -10.5766 289.44 -10.3857L288.426 -8.26826ZM283.463 -8.85481L282.959 -11.1482C283.392 -11.2409 283.831 -11.3074 284.273 -11.3476L284.466 -9.00145C284.123 -8.96847 283.782 -8.91362 283.446 -8.83721L283.463 -8.85481ZM286.496 -8.9076C286.162 -8.96758 285.825 -9.00676 285.487 -9.02491L285.598 -11.3711C286.039 -11.3519 286.478 -11.3029 286.912 -11.2245L286.496 -8.9076Z" fill="white"/>
<path d="M310.48 48.1226H263.949C258.67 48.1226 257.233 45.2368 257.174 45.1136L257.116 44.8555V8.35475L258.23 8.10254C258.23 8.10254 259.145 9.55131 263.949 9.55131H310.48L311.066 10.1379V24.1387H309.893V10.7244H263.949C260.934 10.7244 259.257 10.1789 258.289 9.63342V44.703C258.57 45.1547 259.949 46.9495 263.949 46.9495H309.893V33.5411H311.066V47.5361L310.48 48.1226Z" fill="white"/>
<path d="M310.486 14.9131H308.726V16.0862H310.486V14.9131Z" fill="white"/>
<path d="M305.412 16.0736H302.092V14.9005H305.412V16.0736ZM298.772 16.0736H295.458V14.9005H298.772V16.0736ZM292.138 16.0736H288.824V14.9005H292.138V16.0736ZM285.505 16.0736H282.185V14.9005H285.505V16.0736ZM278.871 16.0736H275.551V14.9005H278.871V16.0736ZM272.237 16.0736H268.917V14.9005H272.237V16.0736ZM265.597 16.0736H263.949C263.362 16.0736 262.776 16.0736 262.236 16.0032L262.33 14.8301C262.835 14.8711 263.38 14.8946 263.949 14.8946H265.597V16.0736Z" fill="white"/>
<path d="M258.864 15.2822C258.163 15.0542 257.565 14.587 257.174 13.9624L258.23 13.458C258.524 13.7984 258.902 14.0554 259.327 14.2029L258.864 15.2822Z" fill="white"/>
<path d="M310.486 42.0342H308.726V43.2073H310.486V42.0342Z" fill="white"/>
<path d="M305.412 43.2073H302.092V42.0342H305.412V43.2073ZM298.772 43.2073H295.458V42.0342H298.772V43.2073ZM292.138 43.2073H288.824V42.0342H292.138V43.2073ZM285.505 43.2073H282.185V42.0342H285.505V43.2073ZM278.871 43.2073H275.551V42.0342H278.871V43.2073ZM272.237 43.2073H268.917V42.0342H272.237V43.2073ZM265.597 43.2073H263.949C263.362 43.2073 262.776 43.2073 262.236 43.1428L262.33 41.9697C262.835 42.0049 263.38 42.0284 263.949 42.0284H265.597V43.2073Z" fill="white"/>
<path d="M258.864 42.4042C258.164 42.1777 257.566 41.7127 257.174 41.0904L258.23 40.5801C258.522 40.9228 258.901 41.1803 259.327 41.325L258.864 42.4042Z" fill="white"/>
<path d="M313.588 34.1281H299.798C298.398 34.1281 297.056 33.572 296.066 32.582C295.076 31.592 294.52 30.2493 294.52 28.8492C294.52 27.4492 295.076 26.1065 296.066 25.1165C297.056 24.1265 298.398 23.5703 299.798 23.5703H313.588L314.175 24.1569V33.5416L313.588 34.1281ZM299.781 24.7434C298.692 24.7434 297.648 25.176 296.878 25.946C296.108 26.716 295.675 27.7603 295.675 28.8492C295.675 29.9382 296.108 30.9825 296.878 31.7525C297.648 32.5225 298.692 32.9551 299.781 32.9551H313.002V24.7434H299.781Z" fill="white"/>
<path d="M301.4 28.25H298.731V29.4231H301.4V28.25Z" fill="white"/>
<path d="M258.218 8.63067L257.174 8.10278C257.274 7.88576 258.347 5.98535 263.949 5.98535H273.51V7.15844H263.949C259.133 7.15844 258.23 8.61308 258.218 8.63067Z" fill="white"/>
<path d="M310.48 5.98535H296.678V7.15844H310.48V5.98535Z" fill="white"/>
<path d="M66.2007 126.603H46.8447C44.7368 126.603 42.7153 125.765 41.2248 124.275C39.7343 122.784 38.897 120.763 38.897 118.655C38.897 116.547 39.7343 114.526 41.2248 113.035C42.7153 111.545 44.7368 110.707 46.8447 110.707C47.1979 110.71 47.5505 110.736 47.9005 110.784C48.8705 109.271 50.2214 108.04 51.8174 107.214C53.4134 106.389 55.1985 105.997 56.9936 106.079C58.7888 106.161 60.5307 106.714 62.0448 107.681C63.5589 108.649 64.7919 109.998 65.62 111.593C65.8253 111.593 66.013 111.593 66.2066 111.593C67.2113 111.565 68.2115 111.739 69.148 112.104C70.0845 112.469 70.9383 113.018 71.6589 113.719C72.3795 114.42 72.9523 115.258 73.3434 116.184C73.7346 117.11 73.9361 118.105 73.9361 119.11C73.9361 120.115 73.7346 121.11 73.3434 122.036C72.9523 122.962 72.3795 123.8 71.6589 124.5C70.9383 125.201 70.0845 125.75 69.148 126.116C68.2115 126.481 67.2113 126.654 66.2066 126.626L66.2007 126.603ZM46.8447 111.88C45.0479 111.88 43.3248 112.594 42.0543 113.865C40.7838 115.135 40.0701 116.858 40.0701 118.655C40.0701 120.452 40.7838 122.175 42.0543 123.445C43.3248 124.716 45.0479 125.43 46.8447 125.43H66.2007C67.05 125.456 67.8958 125.311 68.688 125.003C69.4802 124.696 70.2026 124.233 70.8125 123.641C71.4224 123.05 71.9072 122.342 72.2383 121.559C72.5694 120.777 72.7401 119.936 72.7401 119.086C72.7401 118.237 72.5694 117.396 72.2383 116.613C71.9072 115.831 71.4224 115.123 70.8125 114.531C70.2026 113.939 69.4802 113.476 68.688 113.169C67.8958 112.862 67.05 112.717 66.2007 112.743C65.918 112.743 65.6357 112.765 65.3561 112.807L64.9279 112.86L64.7461 112.473C64.046 110.974 62.9496 109.695 61.5753 108.775C60.2011 107.854 58.6013 107.326 56.9489 107.249C55.2966 107.172 53.6545 107.548 52.2003 108.336C50.7461 109.124 49.5351 110.295 48.6982 111.722L48.487 112.08L48.0823 112.004C47.6746 111.923 47.2602 111.882 46.8447 111.88Z" fill="white"/>
<path d="M13.6285 69.6369H6.00335C4.39438 69.5874 2.86789 68.9134 1.74729 67.7578C0.626686 66.6022 0 65.0557 0 63.4459C0 61.8362 0.626686 60.2897 1.74729 59.1341C2.86789 57.9784 4.39438 57.3045 6.00335 57.2549C6.2504 57.2563 6.49716 57.272 6.7424 57.3018C7.49928 56.152 8.54204 55.2186 9.76841 54.5933C10.9948 53.9679 12.3626 53.6721 13.7378 53.7348C15.113 53.7975 16.4482 54.2166 17.6126 54.9509C18.777 55.6852 19.7305 56.7096 20.3796 57.9236H20.7433C22.2024 57.9163 23.6119 58.4531 24.6964 59.4292C25.781 60.4053 26.4628 61.7507 26.6087 63.2025L25.4356 63.3198C25.3176 62.1594 24.7715 61.0846 23.904 60.3049C23.0365 59.5252 21.9097 59.0966 20.7433 59.1025C20.5332 59.1026 20.3234 59.1182 20.1157 59.1495L19.6875 59.2081L19.5057 58.8151C18.9861 57.6956 18.1702 56.7395 17.1465 56.0501C16.1227 55.3608 14.9299 54.9645 13.6972 54.9041C12.4645 54.8437 11.2387 55.1215 10.1524 55.7074C9.06615 56.2934 8.16078 57.1652 7.53424 58.2286L7.32894 58.5805L6.92423 58.5101C6.62118 58.4482 6.31267 58.4167 6.00335 58.4163C4.70221 58.4608 3.46922 59.0089 2.56451 59.9451C1.65979 60.8813 1.15409 62.1323 1.15409 63.4342C1.15409 64.7361 1.65979 65.9871 2.56451 66.9233C3.46922 67.8594 4.70221 68.4076 6.00335 68.4521H13.6285V69.6369Z" fill="white"/>
<path d="M54.317 68.4639H40.0815V69.637H54.317V68.4639Z" fill="white"/>
<path d="M19.3591 68.4639H17.7871V69.637H19.3591V68.4639Z" fill="white"/>
<path d="M22.6789 68.4639H21.1069V69.637H22.6789V68.4639Z" fill="white"/>
<path d="M25.9928 68.4639H24.4209V69.637H25.9928V68.4639Z" fill="white"/>
<path d="M29.3068 68.4639H27.7349V69.637H29.3068V68.4639Z" fill="white"/>
<path d="M58.4934 74.2715H13.6284V75.4446H58.4934V74.2715Z" fill="white"/>
<path d="M54.317 80.0723H40.0815V81.2454H54.317V80.0723Z" fill="white"/>
<path d="M19.3591 80.0723H17.7871V81.2454H19.3591V80.0723Z" fill="white"/>
<path d="M22.6789 80.0723H21.1069V81.2454H22.6789V80.0723Z" fill="white"/>
<path d="M25.9928 80.0723H24.4209V81.2454H25.9928V80.0723Z" fill="white"/>
<path d="M29.3068 80.0723H27.7349V81.2454H29.3068V80.0723Z" fill="white"/>
<path d="M58.4934 85.8789H13.6284V87.052H58.4934V85.8789Z" fill="white"/>
<path d="M54.317 91.6855H40.0815V92.8586H54.317V91.6855Z" fill="white"/>
<path d="M19.3591 91.6855H17.7871V92.8586H19.3591V91.6855Z" fill="white"/>
<path d="M22.6789 91.6855H21.1069V92.8586H22.6789V91.6855Z" fill="white"/>
<path d="M25.9928 91.6855H24.4209V92.8586H25.9928V91.6855Z" fill="white"/>
<path d="M29.3068 91.6855H27.7349V92.8586H29.3068V91.6855Z" fill="white"/>
<path d="M58.4934 97.4863H13.6284V98.6594H58.4934V97.4863Z" fill="white"/>
<path d="M54.317 103.293H40.0815V104.466H54.317V103.293Z" fill="white"/>
<path d="M19.3591 103.293H17.7871V104.466H19.3591V103.293Z" fill="white"/>
<path d="M22.6789 103.293H21.1069V104.466H22.6789V103.293Z" fill="white"/>
<path d="M25.9928 103.293H24.4209V104.466H25.9928V103.293Z" fill="white"/>
<path d="M29.3068 103.293H27.7349V104.466H29.3068V103.293Z" fill="white"/>
<path d="M49.4781 109.101H13.6284V110.274H49.4781V109.101Z" fill="white"/>
<path d="M19.3591 114.907H17.7871V116.08H19.3591V114.907Z" fill="white"/>
<path d="M22.6789 114.907H21.1069V116.08H22.6789V114.907Z" fill="white"/>
<path d="M25.9928 114.907H24.4209V116.08H25.9928V114.907Z" fill="white"/>
<path d="M29.3068 114.907H27.7349V116.08H29.3068V114.907Z" fill="white"/>
<path d="M39.9703 121.881H13.042V62.6572H59.08V106.859H57.9069V63.8303H14.2151V120.708H39.9703V121.881Z" fill="white"/>
<path d="M138.405 33.7061H137.231V44.0351H138.405V33.7061Z" fill="white"/>
<path d="M140.986 42.1582H139.812V44.0352H140.986V42.1582Z" fill="white"/>
<path d="M140.986 33.7061H139.812V35.583H140.986V33.7061Z" fill="white"/>
<path d="M140.17 38.9836V37.8105C141.343 37.8105 141.695 37.6111 141.695 36.9894C141.695 36.3676 141.325 36.1682 140.17 36.1682H135.941V34.9951H140.17C140.833 34.9951 142.868 34.9951 142.868 36.9894C142.868 38.9836 140.833 38.9836 140.17 38.9836Z" fill="white"/>
<path d="M141.108 42.7444H135.941V41.5713H141.108C141.436 41.5492 141.744 41.4033 141.968 41.1632C142.193 40.9231 142.318 40.6067 142.318 40.278C142.318 39.9492 142.193 39.6328 141.968 39.3927C141.744 39.1526 141.436 39.0067 141.108 38.9846H137.818V37.8115H141.108C141.742 37.8424 142.339 38.1158 142.776 38.5749C143.214 39.0341 143.457 39.6439 143.457 40.278C143.457 40.912 143.214 41.5218 142.776 41.981C142.339 42.4401 141.742 42.7135 141.108 42.7444Z" fill="white"/>
<path d="M139.466 48.3928C137.581 48.394 135.739 47.8362 134.172 46.7899C132.604 45.7437 131.382 44.2561 130.661 42.5153C129.939 40.7745 129.75 38.8587 130.117 37.0104C130.485 35.1621 131.392 33.4643 132.725 32.1318C134.057 30.7992 135.755 29.8919 137.603 29.5245C139.452 29.1572 141.367 29.3463 143.108 30.068C144.849 30.7897 146.336 32.0115 147.383 33.5789C148.429 35.1462 148.987 36.9887 148.986 38.8732C148.981 41.3965 147.977 43.8152 146.192 45.5995C144.408 47.3837 141.989 48.3882 139.466 48.3928ZM139.466 30.5208C137.814 30.5196 136.198 31.0085 134.824 31.9255C133.45 32.8426 132.378 34.1467 131.745 35.6728C131.112 37.1989 130.946 38.8785 131.267 40.4991C131.589 42.1197 132.384 43.6085 133.552 44.7772C134.72 45.9458 136.208 46.7419 137.828 47.0647C139.449 47.3874 141.129 47.2224 142.655 46.5904C144.182 45.9584 145.486 44.8878 146.404 43.5141C147.323 42.1405 147.813 40.5254 147.813 38.8732C147.809 36.6599 146.929 34.5382 145.365 32.9726C143.8 31.4071 141.679 30.5254 139.466 30.5208Z" fill="white"/>
<path d="M133.959 62.0295H112.702C112.348 62.028 112.01 61.8864 111.76 61.6358C111.511 61.3852 111.371 61.0459 111.371 60.6922V20.8071C111.371 20.4534 111.511 20.1141 111.76 19.8635C112.01 19.6129 112.348 19.4713 112.702 19.4697H133.959C134.313 19.4697 134.653 19.6106 134.904 19.8614C135.155 20.1122 135.296 20.4524 135.296 20.8071V31.3238H134.123V20.8188C134.121 20.7757 134.104 20.7348 134.073 20.7043C134.043 20.6738 134.002 20.656 133.959 20.6545H112.702C112.66 20.6561 112.619 20.674 112.59 20.7047C112.56 20.7353 112.544 20.7762 112.544 20.8188V60.7039C112.544 60.7465 112.56 60.7874 112.59 60.8181C112.619 60.8487 112.66 60.8667 112.702 60.8682H133.959C134.002 60.8667 134.043 60.8489 134.073 60.8185C134.104 60.788 134.121 60.747 134.123 60.7039V46.4509H135.296V60.7039C135.291 61.0561 135.148 61.3924 134.898 61.6403C134.648 61.8883 134.311 62.028 133.959 62.0295Z" fill="white"/>
<path d="M134.709 23.6113H111.957V24.7844H134.709V23.6113Z" fill="white"/>
<path d="M134.709 54.9443H111.957V56.1174H134.709V54.9443Z" fill="white"/>
<path d="M124.081 57.707H122.585V58.8801H124.081V57.707Z" fill="white"/>
<path d="M166.582 62.0295H145.326C144.971 62.028 144.632 61.8866 144.382 61.6361C144.131 61.3857 143.99 61.0464 143.988 60.6922V46.1986H145.161V60.6922C145.163 60.7353 145.181 60.7762 145.211 60.8067C145.242 60.8372 145.283 60.855 145.326 60.8564H166.582C166.625 60.8549 166.665 60.8369 166.694 60.8063C166.724 60.7757 166.74 60.7348 166.74 60.6922V20.807C166.74 20.7645 166.724 20.7236 166.694 20.6929C166.665 20.6623 166.625 20.6443 166.582 20.6428H145.326C145.283 20.6443 145.242 20.662 145.211 20.6925C145.181 20.723 145.163 20.7639 145.161 20.807V31.5232H143.988V20.8188C143.988 20.4641 144.129 20.1239 144.38 19.8731C144.631 19.6223 144.971 19.4814 145.326 19.4814H166.582C166.936 19.483 167.274 19.6246 167.524 19.8752C167.773 20.1258 167.914 20.4651 167.914 20.8188V60.7039C167.91 61.0556 167.769 61.3918 167.52 61.6399C167.271 61.888 166.934 62.028 166.582 62.0295Z" fill="white"/>
<path d="M167.327 23.6113H144.575V24.7844H167.327V23.6113Z" fill="white"/>
<path d="M167.327 54.9443H144.575V56.1174H167.327V54.9443Z" fill="white"/>
<path d="M156.699 57.707H155.203V58.8801H156.699V57.707Z" fill="white"/>
<path d="M131.096 34.9951H124.116V36.1682H131.096V34.9951Z" fill="white"/>
<path d="M122.773 34.9951H121.506V36.1682H122.773V34.9951Z" fill="white"/>
<path d="M131.096 41.7236H123.148V42.8967H131.096V41.7236Z" fill="white"/>
<path d="M121.799 41.7236H120.608V42.8967H121.799V41.7236Z" fill="white"/>
<path d="M130.527 38.2861H124.116V39.4592H130.527V38.2861Z" fill="white"/>
<path d="M464.114 113.493H462.941V127.852H464.114V113.493Z" fill="white"/>
<path d="M467.698 125.236H466.524V127.846H467.698V125.236Z" fill="white"/>
<path d="M467.698 113.493H466.524V116.103H467.698V113.493Z" fill="white"/>
<path d="M466.794 120.602V119.429C468.284 119.429 469.14 119.206 469.14 118.062C469.14 116.918 468.284 116.69 466.794 116.69H460.929V115.517H466.794C467.756 115.517 470.313 115.517 470.313 118.062C470.313 120.608 467.756 120.602 466.794 120.602Z" fill="white"/>
<path d="M468.096 125.823H460.917V124.65H468.096C468.388 124.678 468.683 124.64 468.958 124.539C469.233 124.437 469.482 124.275 469.686 124.063C469.988 123.654 470.141 123.153 470.12 122.644C470.12 121.723 469.768 120.62 468.096 120.62H463.527V119.447H468.096C470.443 119.447 471.293 121.101 471.293 122.644C471.324 123.429 471.072 124.199 470.583 124.814C470.273 125.161 469.887 125.431 469.456 125.606C469.025 125.781 468.56 125.855 468.096 125.823Z" fill="white"/>
<path d="M465.815 133.676C463.241 133.678 460.725 132.915 458.585 131.486C456.445 130.057 454.776 128.026 453.791 125.648C452.805 123.271 452.547 120.654 453.049 118.13C453.551 115.606 454.79 113.287 456.61 111.468C458.43 109.648 460.748 108.409 463.272 107.907C465.796 107.405 468.413 107.663 470.79 108.649C473.168 109.634 475.199 111.302 476.628 113.443C478.058 115.583 478.82 118.099 478.819 120.673C478.814 124.12 477.442 127.425 475.005 129.863C472.567 132.3 469.262 133.672 465.815 133.676ZM465.815 108.836C463.474 108.835 461.184 109.528 459.237 110.828C457.29 112.128 455.772 113.976 454.875 116.139C453.978 118.302 453.743 120.682 454.199 122.978C454.655 125.275 455.782 127.384 457.437 129.04C459.092 130.696 461.201 131.824 463.498 132.281C465.794 132.739 468.174 132.504 470.337 131.609C472.5 130.713 474.349 129.196 475.65 127.249C476.951 125.303 477.645 123.014 477.645 120.673C477.642 117.535 476.395 114.527 474.177 112.309C471.959 110.09 468.952 108.841 465.815 108.836Z" fill="white"/>
<path d="M464.246 165.76L463.217 166.323L467.389 173.936L468.417 173.372L464.246 165.76Z" fill="white"/>
<path d="M447.678 165.729L444.027 173.346L445.085 173.853L448.736 166.236L447.678 165.729Z" fill="white"/>
<path d="M491.641 166.599H420.833C420.402 166.599 419.989 166.428 419.684 166.123C419.379 165.819 419.208 165.405 419.208 164.974V121.711C419.208 121.28 419.379 120.867 419.684 120.562C419.989 120.257 420.402 120.086 420.833 120.086H453.392V121.259H420.833C420.713 121.259 420.598 121.307 420.513 121.391C420.429 121.476 420.381 121.591 420.381 121.711V164.974C420.381 165.094 420.429 165.209 420.513 165.294C420.598 165.378 420.713 165.426 420.833 165.426H491.641C491.7 165.427 491.76 165.416 491.815 165.393C491.871 165.371 491.921 165.338 491.964 165.296C492.006 165.254 492.04 165.204 492.063 165.149C492.086 165.093 492.098 165.034 492.098 164.974V121.711C492.098 121.651 492.086 121.592 492.063 121.536C492.04 121.481 492.006 121.431 491.964 121.389C491.921 121.347 491.871 121.314 491.815 121.292C491.76 121.269 491.7 121.258 491.641 121.259H478.344V120.086H491.641C492.072 120.086 492.486 120.257 492.792 120.561C493.097 120.866 493.27 121.279 493.271 121.711V164.974C493.27 165.406 493.097 165.819 492.792 166.124C492.486 166.428 492.072 166.599 491.641 166.599Z" fill="white"/>
<path d="M492.685 157.402H419.794V158.575H492.685V157.402Z" fill="white"/>
<path d="M471.316 173.045H440.775V174.218H471.316V173.045Z" fill="white"/>
<path d="M470.83 153.249L461.932 144.351L456.542 149.742L439.737 132.937L430.053 142.627L424.493 137.067L420.205 141.348L419.378 140.521L424.493 135.407L430.053 140.967L439.737 131.277L456.542 148.082L461.932 142.692L470.83 151.589L485.798 136.621L493.101 143.923L492.268 144.756L485.798 138.281L470.83 153.249Z" fill="white"/>
<path d="M433.244 18.2675H416.381V1.41016H433.244V18.2675ZM417.572 17.0944H432.071V2.58325H417.554L417.572 17.0944Z" fill="white"/>
<path d="M433.244 43.3837H416.381V26.5381H433.244V43.3837ZM417.572 42.2106H432.071V27.7112H417.554L417.572 42.2106Z" fill="white"/>
<path d="M433.244 68.4941H416.381V51.6484H433.244V68.4941ZM417.572 67.321H432.071V52.8215H417.554L417.572 67.321Z" fill="white"/>
<path d="M458.166 43.3837H441.321V26.5381H458.166V43.3837ZM442.494 42.2106H456.993V27.7112H442.494V42.2106Z" fill="white"/>
<path d="M458.166 68.4941H441.321V51.6484H458.166V68.4941ZM442.494 67.321H456.993V52.8215H442.494V67.321Z" fill="white"/>
<path d="M408.292 43.3837H391.446V26.5381H408.292V43.3837ZM392.619 42.2106H407.119V27.7112H392.619V42.2106Z" fill="white"/>
<path d="M408.292 68.4941H391.446V51.6484H408.292V68.4941ZM392.619 67.321H407.119V52.8215H392.619V67.321Z" fill="white"/>
<path d="M425.39 17.6807H424.217V27.1241H425.39V17.6807Z" fill="white"/>
<path d="M441.907 34.374H432.64V35.5471H441.907V34.374Z" fill="white"/>
<path d="M450.33 42.7969H449.157V52.2403H450.33V42.7969Z" fill="white"/>
<path d="M441.907 59.4844H432.64V60.6575H441.907V59.4844Z" fill="white"/>
<path d="M416.973 59.4844H407.706V60.6575H416.973V59.4844Z" fill="white"/>
<path d="M400.456 42.7969H399.283V52.2403H400.456V42.7969Z" fill="white"/>
<path d="M423.176 7.39706L422.346 8.22656L426.444 12.3243L427.273 11.4948L423.176 7.39706Z" fill="white"/>
<path d="M426.426 7.37394L422.328 11.4717L423.158 12.3012L427.255 8.20344L426.426 7.37394Z" fill="white"/>
<path d="M423.169 32.5006L422.339 33.3301L426.437 37.4278L427.267 36.5983L423.169 32.5006Z" fill="white"/>
<path d="M426.437 32.5009L422.339 36.5986L423.169 37.4281L427.267 33.3304L426.437 32.5009Z" fill="white"/>
<path d="M448.089 32.4674L447.259 33.2969L451.357 37.3946L452.187 36.5651L448.089 32.4674Z" fill="white"/>
<path d="M451.386 32.5087L447.289 36.6064L448.118 37.4359L452.216 33.3382L451.386 32.5087Z" fill="white"/>
<path d="M413.677 88.1724C416.424 88.1724 418.65 85.9455 418.65 83.1985C418.65 80.4515 416.424 78.2246 413.677 78.2246C410.93 78.2246 408.703 80.4515 408.703 83.1985C408.703 85.9455 410.93 88.1724 413.677 88.1724Z" fill="white"/>
<path d="M531.526 41.8234H530.353V40.7089H531.526V41.8234ZM531.526 38.3569H530.353V37.1838H531.526V38.3569ZM531.526 34.8376H530.353V33.6645H531.526V34.8376ZM531.526 31.3183H530.353V30.1452H531.526V31.3183ZM531.526 27.799H530.353V26.6259H531.526V27.799ZM531.526 24.2798H530.353V23.1067H531.526V24.2798ZM531.526 20.7605H530.353V19.5874H531.526V20.7605ZM531.526 17.2412H530.353V16.074H531.526V17.2412ZM531.526 13.7219H530.353V12.5547H531.526V13.7219ZM424.604 10.5722H423.431V9.39907H424.604V10.5722ZM531.526 10.2085H530.353V9.03542H531.526V10.2085ZM424.604 7.05289H423.431V5.8798H424.604V7.05289ZM531.526 6.68923H530.353V5.51614H531.526V6.68923ZM424.604 3.53361H423.431V2.36052H424.604V3.53361ZM531.526 3.16995H530.353V1.99686H531.526V3.16995ZM424.604 0.0143318H423.431V-1.15876H424.604V0.0143318ZM531.526 -0.349327H530.353V-1.52242H531.526V-0.349327ZM424.604 -3.50495H423.431V-4.67804H424.604V-3.50495ZM531.526 -3.86861H530.353V-5.0417H531.526V-3.86861ZM424.604 -7.02423H423.431V-7.09462C423.431 -7.48174 423.431 -7.86886 423.484 -8.26771L424.657 -8.15627C424.628 -7.81607 424.61 -7.46414 424.61 -7.11221L424.604 -7.02423ZM530.347 -7.38789C530.347 -7.75742 530.312 -8.1328 530.265 -8.49646L531.438 -8.6431C531.49 -8.23631 531.521 -7.82716 531.532 -7.41722L530.347 -7.38789ZM425.079 -10.3206L423.959 -10.6608C424.082 -11.0538 424.223 -11.4468 424.381 -11.8339L425.461 -11.3764C425.32 -11.0245 425.191 -10.6726 425.079 -10.3206ZM529.76 -10.6608C529.642 -11.0121 529.505 -11.3567 529.35 -11.6931L530.417 -12.18C530.592 -11.7979 530.745 -11.4063 530.875 -11.0069L529.76 -10.6608ZM426.528 -13.3237L425.554 -13.9807C425.783 -14.3209 426.035 -14.6493 426.294 -14.9661L427.197 -14.2153C426.956 -13.9279 426.728 -13.6287 426.522 -13.3237H426.528ZM528.235 -13.6111C528.017 -13.914 527.784 -14.2057 527.537 -14.4851L528.417 -15.2593C528.687 -14.9543 528.945 -14.6317 529.185 -14.3033L528.235 -13.6111ZM428.78 -15.7755L428.041 -16.6905C428.364 -16.9486 428.698 -17.1891 429.039 -17.412L429.678 -16.4266C429.368 -16.2254 429.068 -16.0081 428.78 -15.7755ZM525.918 -15.9925C525.622 -16.2171 525.315 -16.4265 524.998 -16.6201L525.584 -17.6231C525.936 -17.4061 526.276 -17.1774 526.605 -16.931L525.918 -15.9925ZM431.655 -17.453L431.22 -18.5323C431.604 -18.6855 431.996 -18.8186 432.394 -18.9311L432.71 -17.805C432.353 -17.7111 432.001 -17.5938 431.655 -17.453ZM522.986 -17.5821C522.637 -17.7073 522.283 -17.8149 521.924 -17.9047L522.206 -19.0426C522.603 -18.9444 522.994 -18.825 523.379 -18.6848L522.986 -17.5821ZM434.898 -18.2097L434.804 -19.3828C435.115 -19.3828 435.432 -19.418 435.749 -19.418H436.024V-18.2449H435.749C435.461 -18.239 435.174 -18.2273 434.898 -18.2097ZM519.707 -18.2097H519.208H518.557V-19.3828H519.208H519.76L519.707 -18.2097ZM508.246 -18.2097H507.988V-19.3828H509.161V-18.2097H508.234H508.246ZM516.211 -18.2097H515.038V-19.3828H516.211V-18.2097ZM512.692 -18.2097H511.519V-19.3828H512.692V-18.2097ZM446.582 -18.2097H445.409V-19.3828H446.582V-18.2097ZM443.063 -18.2097H441.89V-19.3828H443.063V-18.2097ZM439.544 -18.2097H438.37V-19.3828H439.544V-18.2097ZM449.005 -18.3446L448.834 -19.5177C449.198 -19.5705 449.568 -19.6467 449.925 -19.7347L450.213 -18.5968C449.814 -18.5023 449.411 -18.4279 449.005 -18.3739V-18.3446ZM505.548 -18.5029C505.149 -18.5968 504.75 -18.7024 504.375 -18.8314L504.738 -19.9459C505.09 -19.8276 505.448 -19.7297 505.812 -19.6526L505.548 -18.5029ZM452.524 -19.4121L452.025 -20.4679C452.363 -20.6264 452.692 -20.8026 453.011 -20.9958L453.597 -19.9869C453.249 -19.7872 452.891 -19.6051 452.524 -19.4414V-19.4121ZM502.11 -19.8168C501.753 -20.0158 501.407 -20.2331 501.072 -20.4679L501.741 -21.465C502.046 -21.2538 502.363 -21.0544 502.685 -20.8785L502.11 -19.8168ZM455.586 -21.465L454.794 -22.3331C455.069 -22.5838 455.331 -22.848 455.58 -23.1249L456.454 -22.339C456.179 -22.0332 455.89 -21.7415 455.586 -21.465ZM499.207 -22.0516C498.926 -22.3507 498.656 -22.6674 498.404 -22.99L499.33 -23.7056C499.559 -23.4182 499.799 -23.1191 500.058 -22.861L499.207 -22.0516ZM457.879 -24.3449L456.864 -24.9315C457.052 -25.2521 457.222 -25.5806 457.375 -25.9169L458.442 -25.4418C458.277 -25.0652 458.089 -24.699 457.879 -24.3449ZM497.084 -25.1309C496.903 -25.5012 496.742 -25.8811 496.603 -26.2688L497.706 -26.6618C497.835 -26.3216 497.975 -25.9755 498.14 -25.6412L497.084 -25.1309ZM459.228 -27.7938L458.055 -28.0285C458.13 -28.3908 458.185 -28.757 458.219 -29.1253L459.392 -29.0139C459.361 -28.6043 459.306 -28.197 459.228 -27.7938ZM496.051 -28.6678C495.999 -29.0764 495.969 -29.4876 495.963 -29.8995H497.137C497.141 -29.5308 497.167 -29.1627 497.213 -28.7968L496.051 -28.6678ZM459.539 -31.3424L458.366 -31.4832C458.415 -31.8918 458.487 -32.2971 458.583 -32.6974L459.727 -32.4334C459.641 -32.074 459.579 -31.7097 459.539 -31.3424ZM495.758 -32.1284C495.686 -32.4911 495.594 -32.8494 495.483 -33.2018L496.603 -33.5537C496.726 -33.1687 496.828 -32.7771 496.908 -32.3806L495.758 -32.1284ZM460.46 -34.5215L459.398 -35.026C459.575 -35.3974 459.771 -35.7596 459.985 -36.1111L460.988 -35.5245C460.794 -35.1999 460.618 -34.8651 460.46 -34.5215ZM494.597 -35.2313C494.418 -35.5541 494.222 -35.8673 494.01 -36.1697L494.966 -36.8501C495.207 -36.5171 495.428 -36.1704 495.629 -35.8119L494.597 -35.2313ZM462.337 -37.2666L461.48 -38.0701C461.76 -38.3717 462.055 -38.6576 462.366 -38.9265L463.158 -38.0408C462.859 -37.7945 462.571 -37.5364 462.337 -37.2666ZM492.52 -37.8531C492.248 -38.1073 491.963 -38.3462 491.664 -38.5687L492.368 -39.5072C492.698 -39.2596 493.015 -38.9953 493.318 -38.7153L492.52 -37.8531ZM464.953 -39.3547L464.366 -40.3694C464.721 -40.576 465.087 -40.7621 465.463 -40.9266L465.938 -39.8532C465.61 -39.6831 465.275 -39.513 464.953 -39.3312V-39.3547ZM489.764 -39.7242C489.429 -39.8826 489.083 -40.0292 488.737 -40.1582L489.136 -41.261C489.521 -41.1202 489.899 -40.9597 490.268 -40.78L489.764 -39.7242ZM468.061 -40.5571L467.798 -41.6774C468.202 -41.771 468.611 -41.8434 469.023 -41.8944L469.17 -40.7213C468.797 -40.6802 468.427 -40.6175 468.061 -40.5336V-40.5571ZM486.579 -40.7096C486.215 -40.7683 485.84 -40.8034 485.47 -40.8269L485.535 -42C485.945 -42 486.356 -41.9296 486.761 -41.871L486.579 -40.7096ZM483.153 -40.821H481.98V-41.9941H483.153V-40.821ZM479.634 -40.821H478.461V-41.9941H479.634V-40.821ZM476.115 -40.821H474.942V-41.9941H476.115V-40.821ZM472.595 -40.821H471.422V-41.9941H472.595V-40.821Z" fill="white"/>
<path d="M521.554 144.574H499.523V143.401H521.572C524.527 143.401 527.362 142.227 529.452 140.137C531.542 138.047 532.716 135.212 532.716 132.257V92.958H533.889V132.257C533.889 133.876 533.57 135.479 532.95 136.974C532.33 138.47 531.421 139.829 530.275 140.973C529.13 142.117 527.77 143.024 526.273 143.642C524.777 144.26 523.173 144.576 521.554 144.574Z" fill="white"/>
<path d="M413.677 144.574H365.204C361.938 144.574 358.805 143.276 356.495 140.966C354.185 138.656 352.887 135.523 352.887 132.256V37.7755C352.887 34.8198 351.713 31.9852 349.623 29.8952C347.533 27.8052 344.698 26.6311 341.743 26.6311H319.688V25.458H341.743C345.009 25.458 348.142 26.7557 350.452 29.0657C352.762 31.3757 354.06 34.5087 354.06 37.7755V132.256C354.06 135.212 355.234 138.047 357.324 140.137C359.414 142.227 362.249 143.401 365.204 143.401H413.7L413.677 144.574Z" fill="white"/>
<path d="M221.964 88.805H220.791V37.7755C220.791 34.5087 222.089 31.3757 224.399 29.0657C226.709 26.7557 229.842 25.458 233.108 25.458H254.418V26.6311H233.108C230.153 26.6311 227.318 27.8052 225.228 29.8952C223.138 31.9852 221.964 34.8198 221.964 37.7755V88.805Z" fill="white"/>
<path d="M209.647 188.261H97.6162C94.3494 188.261 91.2164 186.963 88.9064 184.653C86.5964 182.343 85.2987 179.21 85.2987 175.943V165.385C85.2987 162.43 84.1246 159.595 82.0346 157.505C79.9446 155.415 77.11 154.241 74.1543 154.241H45.5367C38.7445 154.241 33.2192 148.962 33.2192 142.428V131.178H34.3923V142.41C34.3923 148.276 39.3897 153.05 45.5367 153.05H74.1778C77.4446 153.05 80.5776 154.348 82.8876 156.658C85.1975 158.968 86.4953 162.101 86.4953 165.368V175.925C86.4953 178.881 87.6694 181.716 89.7594 183.806C91.8493 185.896 94.684 187.07 97.6396 187.07H209.67C212.626 187.07 215.46 185.896 217.55 183.806C219.64 181.716 220.814 178.881 220.814 175.925V101.915H221.987V175.943C221.987 177.563 221.668 179.166 221.048 180.662C220.427 182.158 219.518 183.517 218.371 184.661C217.225 185.805 215.865 186.712 214.367 187.33C212.87 187.947 211.266 188.264 209.647 188.261Z" fill="white"/>
<path d="M265.228 95.6913H264.055V94.5182H265.228V95.6913ZM261.708 95.6913H260.535V94.5182H261.708V95.6913ZM258.189 95.6913H257.016V94.5182H258.189V95.6913ZM254.67 95.6913H253.497V94.5182H254.67V95.6913ZM251.151 95.6913H249.977V94.5182H251.151V95.6913ZM247.631 95.6913H246.458V94.5182H247.631V95.6913ZM244.112 95.6913H242.939V94.5182H244.112V95.6913ZM240.593 95.6913H239.42V94.5182H240.593V95.6913ZM237.073 95.6913H235.9V94.5182H237.073V95.6913ZM233.554 95.6913H232.381V94.5182H233.554V95.6913ZM230.035 95.6913H228.862V94.5182H230.035V95.6913ZM226.516 95.6913H225.342V94.5182H226.516V95.6913ZM222.996 95.6913H221.823V94.5182H222.996V95.6913ZM219.477 95.6913H218.304V94.5182H219.477V95.6913ZM215.958 95.6913H214.785V94.5182H215.958V95.6913ZM212.438 95.6913H211.265V94.5182H212.438V95.6913ZM208.919 95.6913H207.746V94.5182H208.919V95.6913ZM205.4 95.6913H204.227V94.5182H205.4V95.6913ZM201.881 95.6913H200.708V94.5182H201.881V95.6913ZM198.361 95.6913H197.188V94.5182H198.361V95.6913ZM194.842 95.6913H193.669V94.5182H194.842V95.6913ZM191.323 95.6913H190.15V94.5182H191.323V95.6913ZM187.804 95.6913H186.63V94.5182H187.804V95.6913ZM184.284 95.6913H183.111V94.5182H184.284V95.6913ZM180.765 95.6913H179.592V94.5182H180.765V95.6913ZM177.246 95.6913H176.073V94.5182H177.246V95.6913ZM173.726 95.6913H172.553V94.5182H173.726V95.6913ZM170.207 95.6913H169.034V94.5182H170.207V95.6913ZM166.688 95.6913H165.515V94.5182H166.688V95.6913ZM163.169 95.6913H161.995V94.5182H163.169V95.6913ZM159.649 95.6913H158.476V94.5182H159.649V95.6913ZM156.13 95.6913H154.957V94.5182H156.13V95.6913ZM152.611 95.6913H151.438V94.5182H152.611V95.6913ZM148.992 95.4625C148.593 95.3804 148.188 95.2807 147.819 95.1634L148.165 94.0372C148.517 94.1487 148.88 94.2367 149.238 94.3129L148.992 95.4625ZM145.525 94.2073C145.167 94.0138 144.816 93.7967 144.475 93.568L145.138 92.6002C145.443 92.8074 145.76 93.003 146.088 93.1867L145.525 94.2073ZM142.593 91.9902C142.304 91.6992 142.03 91.3938 141.771 91.0752L142.686 90.3361C142.921 90.6235 143.167 90.9227 143.425 91.169L142.593 91.9902ZM140.428 89.0164C140.24 88.6527 140.07 88.2773 139.918 87.8961L141.009 87.462C141.144 87.8022 141.302 88.1483 141.472 88.4768L140.428 89.0164ZM139.255 85.4971C139.183 85.0933 139.132 84.6861 139.103 84.2771L140.276 84.1891C140.276 84.5586 140.352 84.934 140.416 85.2918L139.255 85.4971ZM140.24 81.8899H139.067V80.7168H140.24V81.8899ZM140.24 78.3706H139.067V77.1975H140.24V78.3706ZM140.24 74.8513H139.067V73.6782H140.24V74.8513ZM140.24 71.332H139.067V70.1589H140.24V71.332ZM140.24 67.8127H139.067V66.6396H140.24V67.8127Z" fill="white"/>
<path d="M35.3186 57.754H34.1455V56.5809H35.3186V57.754ZM35.3186 54.2347H34.1455V53.0616H35.3186V54.2347ZM35.3186 50.7154H34.1455V49.5424H35.3186V50.7154ZM35.3186 47.1962H34.1455V46.0231H35.3186V47.1962ZM35.3186 43.6769H34.1455V42.5038H35.3186V43.6769ZM35.3186 40.1576H34.1455V38.9845H35.3186V40.1576ZM35.3186 36.6383H34.1455V35.9755C34.1455 35.7937 34.1455 35.6177 34.1455 35.4418L35.3186 35.4946C35.3186 35.6529 35.3186 35.8113 35.3186 35.9755V36.6383ZM35.6471 33.295L34.474 33.0076C34.5737 32.6146 34.6969 32.2158 34.8376 31.8345L35.9403 32.2334C35.8218 32.5812 35.7239 32.9357 35.6471 33.295ZM36.9257 30.2215L35.9227 29.635C36.1398 29.283 36.3685 28.9428 36.6149 28.6144L37.5533 29.3241C37.3295 29.6127 37.12 29.9122 36.9257 30.2215ZM39.0842 27.6583L38.3041 26.7843C38.6091 26.5145 38.9317 26.2506 39.2602 26.0101L39.9523 26.9603C39.6514 27.1782 39.3616 27.4112 39.0842 27.6583ZM41.8703 25.8341L41.3835 24.7725C41.7646 24.5958 42.1564 24.443 42.5566 24.315L42.932 25.4236C42.5331 25.5409 42.1812 25.6816 41.8469 25.8341H41.8703ZM45.0729 24.9191L44.9204 23.746C45.3269 23.6915 45.7362 23.6601 46.1462 23.6522L46.1814 24.8253C45.8026 24.835 45.4247 24.8664 45.0494 24.9191H45.0729ZM70.7988 24.8311H69.6257V23.6581H70.7988V24.8311ZM67.2795 24.8311H66.1064V23.6581H67.2795V24.8311ZM63.7602 24.8311H62.5871V23.6581H63.7602V24.8311ZM60.241 24.8311H59.0679V23.6581H60.241V24.8311ZM56.7217 24.8311H55.5075V23.6581H56.6806L56.7217 24.8311ZM53.2024 24.8311H51.9883V23.6581H53.1613L53.2024 24.8311ZM49.6831 24.8311H48.469V23.6581H49.6421L49.6831 24.8311ZM73.1743 24.8311L73.1157 23.6581C73.487 23.6416 73.8571 23.6044 74.2242 23.5466L74.4002 24.7197C73.972 24.749 73.5614 24.7901 73.1509 24.8135L73.1743 24.8311ZM76.7816 24.0921L76.3769 22.9894C76.7229 22.8603 77.0631 22.7137 77.3975 22.5553L77.9136 23.6053C77.5369 23.7817 77.1512 23.9383 76.7581 24.0745L76.7816 24.0921ZM80.0017 22.3325L79.2685 21.3529C79.5618 21.1242 79.8551 20.8837 80.119 20.6315L80.9167 21.4878C80.6191 21.7747 80.3058 22.045 79.9783 22.2973L80.0017 22.3325ZM82.5649 19.6871L81.6089 19.0067C81.8259 18.7017 82.0253 18.4202 82.1954 18.0683L83.2101 18.6548C82.999 18.9715 82.7761 19.3176 82.5415 19.6519L82.5649 19.6871ZM84.2366 16.4083L83.1221 16.0388C83.2397 15.6867 83.3376 15.3284 83.4154 14.9654L84.5885 15.2176C84.4536 15.5813 84.3422 15.9802 84.2131 16.3731L84.2366 16.4083ZM140.252 13.4404H139.079V12.7483H140.252V13.4404ZM84.8349 12.7424H83.6618V11.5693H84.8349V12.7424ZM140.228 10.3962H139.055V9.22314H140.228V10.3962ZM84.8349 9.21141H83.6618V8.03832H84.8349V9.21141ZM140.228 6.86522H139.055V5.69213H140.228V6.86522ZM84.8349 5.69213H83.6618V4.51904H84.8349V5.69213ZM140.228 3.34594H139.055V2.44852C139.055 2.36054 139.055 2.27843 139.055 2.19631H140.228C140.228 2.29016 140.228 2.38401 140.228 2.47785V3.34594ZM84.8759 2.23151L83.7028 2.12593C83.7386 1.71661 83.7953 1.30939 83.8729 0.905909L85.046 1.12879C84.9639 1.49245 84.9111 1.86198 84.8759 2.23151ZM138.744 0.0143604C138.651 -0.341897 138.538 -0.692459 138.404 -1.03556L139.501 -1.46374C139.648 -1.08004 139.773 -0.68839 139.876 -0.290647L138.744 0.0143604ZM85.6678 -1.00623L84.5885 -1.45201C84.7433 -1.83218 84.9176 -2.20415 85.1105 -2.56645L86.1487 -1.9799C85.9728 -1.68076 85.8085 -1.34643 85.6678 -1.00623ZM137.384 -3.00049C137.176 -3.30108 136.952 -3.59083 136.715 -3.86858L137.624 -4.64282C137.889 -4.3267 138.136 -3.99574 138.363 -3.65156L137.384 -3.00049ZM87.3863 -3.86858L86.4831 -4.61349C86.7432 -4.93029 87.0193 -5.23373 87.3101 -5.52264L88.1371 -4.69561C87.8731 -4.4327 87.6226 -4.15668 87.3863 -3.86858ZM135.125 -5.45226C134.838 -5.68101 134.539 -5.89803 134.222 -6.10332L134.856 -7.08872C135.202 -6.86583 135.536 -6.62535 135.859 -6.37313L135.125 -5.45226ZM89.8674 -6.09746L89.2164 -7.07699C89.5566 -7.29988 89.9144 -7.51103 90.278 -7.70459L90.8235 -6.66641C90.4953 -6.48904 90.1762 -6.29523 89.8674 -6.08572V-6.09746ZM132.24 -7.11805C131.893 -7.25295 131.536 -7.37613 131.184 -7.47584L131.506 -8.60788C131.899 -8.49057 132.292 -8.36153 132.679 -8.20902L132.24 -7.11805ZM92.8881 -7.4993L92.5597 -8.62547C92.9458 -8.73861 93.3373 -8.83257 93.7328 -8.90701L93.9439 -7.73392C93.6331 -7.67527 93.2401 -7.58728 92.8881 -7.48757V-7.4993ZM128.99 -7.88642C128.632 -7.92162 128.269 -7.93921 127.911 -7.93921L127.87 -9.1123H127.911C128.304 -9.1123 128.703 -9.1123 129.084 -9.05952L128.99 -7.88642ZM125.524 -7.93921H124.35V-9.1123H125.524V-7.93921ZM122.004 -7.93921H120.831V-9.1123H122.004V-7.93921ZM118.485 -7.93921H117.312V-9.1123H118.485V-7.93921ZM114.966 -7.93921H113.793V-9.1123H114.966V-7.93921ZM111.446 -7.93921H110.273V-9.1123H111.446V-7.93921ZM107.927 -7.93921H106.754V-9.1123H107.927V-7.93921ZM104.408 -7.93921H103.235V-9.1123H104.408V-7.93921ZM100.889 -7.93921H99.7155V-9.1123H100.889V-7.93921ZM97.3694 -7.93921H96.1963V-9.1123H97.3694V-7.93921Z" fill="white"/>
<path d="M444.373 225.633H443.663V224.46H444.373H444.813L444.86 225.633H444.373ZM441.317 225.633H440.144V224.46H441.317V225.633ZM437.798 225.633H436.625V224.46H437.798V225.633ZM434.279 225.633H433.106V224.46H434.279V225.633ZM430.759 225.633H429.586V224.46H430.759V225.633ZM427.24 225.633H426.067V224.46H427.24V225.633ZM423.721 225.633H422.548V224.46H423.721V225.633ZM420.202 225.633H419.029V224.46H420.202V225.633ZM416.682 225.633H415.509V224.46H416.682V225.633ZM413.163 225.633H411.99V224.46H413.163V225.633ZM409.644 225.633H408.471V224.46H409.644V225.633ZM406.124 225.633H404.951V224.46H406.124V225.633ZM402.605 225.633H401.432V224.46H402.605V225.633ZM399.086 225.633H397.913V224.46H399.086V225.633ZM395.567 225.633H394.394V224.46H395.567V225.633ZM392.047 225.633H390.874V224.46H392.047V225.633ZM388.528 225.633H387.355V224.46H388.528V225.633ZM385.009 225.633H383.836V224.46H385.009V225.633ZM381.49 225.633H380.316V224.46H381.49V225.633ZM377.97 225.633H376.797V224.46H377.97V225.633ZM374.451 225.633H373.278V224.46H374.451V225.633ZM370.932 225.633H369.759V224.46H370.932V225.633ZM367.412 225.633H366.239V224.46H367.412V225.633ZM363.893 225.633H362.72V224.46H363.893V225.633ZM360.374 225.633H359.201V224.46H360.374V225.633ZM356.855 225.633H355.681V224.46H356.855V225.633ZM353.335 225.633H352.162V224.46H353.335V225.633ZM349.816 225.633H348.643V224.46H349.816V225.633ZM346.297 225.633H345.124V224.46H346.297V225.633ZM342.777 225.633H341.604V224.46H342.777V225.633ZM339.258 225.633H338.085V224.46H339.258V225.633ZM335.739 225.633H334.566V224.46H335.739V225.633ZM332.22 225.633H331.047V224.46H332.22V225.633ZM328.7 225.633H327.527V224.46H328.7V225.633ZM325.181 225.633H324.008V224.46H325.181V225.633ZM321.662 225.633H320.489V224.46H321.662V225.633ZM318.143 225.633H316.969V224.46H318.143V225.633ZM314.623 225.633H313.45V224.46H314.623V225.633ZM311.104 225.633H309.931V224.46H311.104V225.633ZM307.585 225.633H306.412V224.46H307.585V225.633ZM304.065 225.633H302.892V224.46H304.065V225.633ZM300.464 225.487C300.057 225.425 299.654 225.343 299.256 225.24L299.549 224.102C299.913 224.196 300.276 224.272 300.64 224.331L300.464 225.487ZM447.294 225.275L447.013 224.138C447.37 224.05 447.734 223.944 448.08 223.821L448.473 224.923C448.087 225.061 447.693 225.179 447.294 225.275ZM296.951 224.384C296.581 224.207 296.221 224.011 295.871 223.797L296.493 222.806C296.807 223.002 297.132 223.181 297.467 223.34L296.951 224.384ZM450.696 223.874L450.11 222.865C450.424 222.679 450.727 222.475 451.019 222.255L451.723 223.199C451.388 223.428 451.048 223.662 450.696 223.874ZM293.924 222.29C293.624 222.011 293.338 221.718 293.068 221.41L293.953 220.636C294.198 220.915 294.456 221.181 294.728 221.434L293.924 222.29ZM453.529 221.527L452.661 220.741C452.907 220.466 453.142 220.155 453.359 219.879L454.309 220.571C454.066 220.903 453.805 221.222 453.529 221.527ZM291.642 219.41C291.437 219.053 291.251 218.685 291.085 218.307L292.153 217.832C292.305 218.166 292.475 218.501 292.657 218.823L291.642 219.41ZM455.559 218.454L454.491 217.961C454.65 217.626 454.79 217.281 454.908 216.929L456.016 217.316C455.883 217.703 455.731 218.083 455.559 218.454ZM290.305 215.973C290.214 215.574 290.144 215.171 290.094 214.764L291.267 214.624C291.309 214.993 291.371 215.359 291.455 215.721L290.305 215.973ZM456.579 214.917L455.406 214.764C455.458 214.397 455.489 214.027 455.5 213.656L456.673 213.691C456.667 214.096 456.638 214.512 456.585 214.917H456.579ZM291.173 212.348H290V211.175H291.173V212.348ZM456.673 211.327H455.5V210.154H456.673V211.327ZM291.173 208.829H290V207.656H291.173V208.829ZM456.673 207.808H455.5V206.635H456.673V207.808ZM291.173 205.309H290V204.136H291.173V205.309ZM456.673 204.289H455.5V203.116H456.673V204.289ZM291.173 201.79H290V200.617H291.173V201.79ZM456.673 200.769H455.5V199.596H456.673V200.769ZM456.673 197.25H455.5V196.077H456.673V197.25ZM456.673 193.731H455.5V192.558H456.673V193.731ZM456.673 190.212H455.5V189.039H456.673V190.212ZM456.673 186.692H455.5V185.519H456.673V186.692ZM456.673 183.173H455.5V182H456.673V183.173Z" fill="white"/>
<path d="M214.39 105.895H201.355V106.888H214.39V105.895Z" fill="white"/>
<path d="M206.244 103H201.355V103.993H206.244V103Z" fill="white"/>
<path d="M204.955 108.529H201.355V109.522H204.955V108.529Z" fill="white"/>
<path d="M214.39 108.529H207.873V109.522H214.39V108.529Z" fill="white"/>
<path d="M214.393 111.435H209.114V112.428H214.393V111.435Z" fill="white"/>
<path d="M211.053 114.069H201.355V115.063H211.053V114.069Z" fill="white"/>
<path d="M203.878 112.048C203.362 112.05 202.853 112.167 202.388 112.391C201.973 111.63 201.345 111.006 200.581 110.596C199.817 110.185 198.95 110.006 198.086 110.08C197.222 110.153 196.398 110.477 195.714 111.011C195.031 111.545 194.517 112.266 194.237 113.086C194.065 113.057 193.892 113.042 193.718 113.042C192.928 113.042 192.17 113.356 191.611 113.914C191.052 114.473 190.738 115.231 190.738 116.021C190.738 116.811 191.052 117.569 191.611 118.128C192.17 118.687 192.928 119.001 193.718 119.001H203.878C204.8 119.001 205.684 118.634 206.336 117.983C206.988 117.331 207.354 116.446 207.354 115.525C207.354 114.603 206.988 113.718 206.336 113.067C205.684 112.415 204.8 112.048 203.878 112.048Z" fill="#5451EE" fill-opacity="0.55"/>
<path d="M193.618 109.865C193.124 110.388 192.747 111.01 192.513 111.69L193.07 111.36C192.874 111.325 192.675 111.306 192.476 111.303C191.554 111.303 190.67 111.669 190.018 112.321C189.366 112.973 189 113.857 189 114.779C189 115.701 189.366 116.585 190.018 117.237C190.67 117.889 191.554 118.255 192.476 118.255H202.636C203.69 118.255 204.7 117.837 205.445 117.092C206.19 116.347 206.609 115.336 206.609 114.283C206.609 113.229 206.19 112.218 205.445 111.473C204.7 110.728 203.69 110.31 202.636 110.31C202.042 110.307 201.454 110.44 200.918 110.697L201.569 110.906C200.974 109.815 199.992 108.987 198.817 108.585C197.641 108.183 196.358 108.236 195.22 108.733L195.62 109.642C196.53 109.244 197.556 109.202 198.496 109.524C199.436 109.846 200.221 110.508 200.697 111.38L201.348 111.591C201.749 111.397 202.188 111.296 202.634 111.296C203.424 111.296 204.182 111.609 204.741 112.168C205.299 112.727 205.613 113.485 205.613 114.275C205.613 115.065 205.299 115.823 204.741 116.382C204.182 116.941 203.424 117.255 202.634 117.255H192.476C191.818 117.255 191.186 116.993 190.72 116.527C190.255 116.062 189.993 115.43 189.993 114.772C189.993 114.113 190.255 113.482 190.72 113.016C191.186 112.55 191.818 112.289 192.476 112.289C192.619 112.289 192.761 112.303 192.901 112.328L193.454 111.998C193.642 111.457 193.943 110.963 194.338 110.548L193.618 109.865Z" fill="white"/>
</g>
<defs>
<clipPath id="clip0">
<rect width="510" height="205" fill="white"/>
</clipPath>
</defs>
</svg>
