<svg width="400" height="400" viewBox="0 0 400 400" fill="none" xmlns="http://www.w3.org/2000/svg">
<path d="M287.448 71.7979H290.92V74.1063H287.448V71.7979Z" fill="#8185A0"/>
<path d="M276.467 76.1059H280.332V73.7975H276.467C275.492 73.798 274.522 73.662 273.585 73.3935L272.937 75.6096C274.085 75.9367 275.273 76.1037 276.467 76.1059ZM266.538 71.3275L268.343 69.8848C266.974 68.2212 266.164 66.1698 266.029 64.0214L263.715 64.1599C263.878 66.7856 264.866 69.2934 266.538 71.3275ZM263.738 56.9924H266.052V49.8594H263.738V56.9924ZM263.738 42.7842H266.052V35.6858H263.738V42.7842ZM261.875 29.6724L263.773 28.3567C262.284 26.2056 260.167 24.5651 257.709 23.6591L256.911 25.8174C258.915 26.5768 260.645 27.9199 261.875 29.6724V29.6724ZM228.884 25.1941H236V22.8857H228.884V25.1941ZM243.117 25.1941H250.234V22.8857H243.117V25.1941Z" fill="#8185A0"/>
<path d="M218.261 22.8857H221.732V25.1941H218.261V22.8857Z" fill="#8185A0"/>
<path d="M345.353 105.039H347.668V108.501H345.353V105.039Z" fill="#8185A0"/>
<path d="M345.353 98.1944H347.668V91.3615H345.353V98.1944ZM347.668 84.5287C347.664 82.0122 346.911 79.5536 345.504 77.465L343.583 78.7577C344.737 80.4621 345.354 82.4719 345.353 84.5287H347.668ZM338.873 74.8796L339.753 72.7443C338.225 72.1187 336.59 71.7972 334.939 71.7979H332.625V74.1063H334.939C336.289 74.1017 337.626 74.3645 338.873 74.8796V74.8796Z" fill="#8185A0"/>
<path d="M322.233 71.7979H325.705V74.1063H322.233V71.7979Z" fill="#8185A0"/>
<path d="M322.279 173.771H325.751V176.08H322.279V173.771Z" fill="#8185A0"/>
<path d="M332.555 176.08H334.939C336.56 176.079 338.167 175.77 339.672 175.168L338.804 173.021C337.576 173.517 336.264 173.772 334.939 173.771H332.555V176.08ZM345.411 170.574C346.861 168.519 347.666 166.08 347.726 163.568H345.411C345.386 165.631 344.746 167.64 343.571 169.339L345.411 170.574ZM345.411 156.781H347.726V149.995H345.411V156.781Z" fill="#8185A0"/>
<path d="M345.353 139.746H347.668V143.208H345.353V139.746Z" fill="#8185A0"/>
<path d="M305.732 234.99H308.046V238.453H305.732V234.99Z" fill="#8185A0"/>
<path d="M305.732 229.138H308.046V223.298H305.732V229.138ZM305.732 217.423H308.046V211.572H305.732V217.423ZM305.732 205.72H308.046V199.856H305.732V205.72Z" fill="#8185A0"/>
<path d="M305.732 190.542H308.046V194.005H305.732V190.542Z" fill="#8185A0"/>
<path d="M223.329 337.706H226.801V340.014H223.329V337.706Z" fill="#8185A0"/>
<path d="M234.23 340.014H241.647V337.705H234.23V340.014ZM249.076 340.014H256.552V337.705H249.123L249.076 340.014ZM263.923 340.014H271.352V337.705H263.923V340.014ZM278.781 340.014H286.21V337.705H278.781V340.014ZM293.628 340.014H295.317C297.431 340.011 299.511 339.484 301.369 338.479L300.27 336.459C298.748 337.278 297.046 337.706 295.317 337.705H293.581L293.628 340.014ZM306.866 332.638C307.641 330.968 308.036 329.147 308.023 327.306V324.905H305.709V327.306C305.712 328.813 305.384 330.302 304.748 331.669L306.866 332.638Z" fill="#8185A0"/>
<path d="M305.732 312.033H308.046V315.495H305.732V312.033Z" fill="#8185A0"/>
<path d="M79.0176 265.095H81.3319V268.557H79.0176V265.095Z" fill="#8185A0"/>
<path d="M79.0176 258.77H81.3319V252.468H79.0176V258.77ZM79.0176 246.166H81.3319V239.853H79.0176V246.166Z" fill="#8185A0"/>
<path d="M79.0176 230.111H81.3319V233.573H79.0176V230.111Z" fill="#8185A0"/>
<path d="M79.0176 307.858H81.3319V311.32H79.0176V307.858Z" fill="#8185A0"/>
<path d="M79.0176 302.306H81.3319V296.766H79.0176V302.306ZM79.0176 291.214H81.3319V285.663H79.0176V291.214Z" fill="#8185A0"/>
<path d="M79.0176 276.648H81.3319V280.111H79.0176V276.648Z" fill="#8185A0"/>
<path d="M151.758 271.789H155.229V274.097H151.758V271.789Z" fill="#8185A0"/>
<path d="M94.813 274.097H101.93V271.789H94.813V274.097ZM109.046 274.097H116.163V271.789H109.046V274.097ZM123.28 274.097H130.419V271.789H123.303L123.28 274.097ZM137.524 274.097H144.641V271.789H137.524V274.097Z" fill="#8185A0"/>
<path d="M84.2249 271.789H87.6964V274.097H84.2249V271.789Z" fill="#8185A0"/>
<path d="M80.1748 277.803C81.2074 277.803 82.2169 277.497 83.0754 276.924C83.9339 276.352 84.6028 275.538 84.9975 274.586C85.3921 273.635 85.4948 272.587 85.2925 271.577C85.0902 270.567 84.592 269.64 83.8609 268.912C83.1299 268.185 82.1989 267.69 81.1858 267.49C80.1727 267.291 79.123 267.395 78.1695 267.791C77.2161 268.187 76.4019 268.856 75.8298 269.713C75.2577 270.571 74.9536 271.579 74.9559 272.609C74.959 273.987 75.5102 275.308 76.4885 276.282C77.4669 277.256 78.7926 277.803 80.1748 277.803V277.803ZM80.1748 269.723C80.7492 269.723 81.3108 269.893 81.7884 270.211C82.2661 270.53 82.6383 270.982 82.8582 271.511C83.078 272.041 83.1355 272.623 83.0235 273.185C82.9114 273.747 82.6348 274.264 82.2286 274.669C81.8224 275.074 81.3048 275.35 80.7414 275.462C80.178 275.573 79.594 275.516 79.0632 275.297C78.5325 275.077 78.0789 274.706 77.7597 274.23C77.4406 273.753 77.2702 273.193 77.2702 272.62C77.2672 272.238 77.3401 271.86 77.4849 271.506C77.6296 271.153 77.8432 270.831 78.1134 270.561C78.3836 270.29 78.7049 270.076 79.0587 269.93C79.4126 269.784 79.7919 269.71 80.1748 269.712V269.723Z" fill="#8185A0"/>
<path d="M207.661 25.46H204.664L204.34 24.0403L201.771 25.46L180.583 28.5994L178.037 27.5837L176.568 24.5135L181.532 24.6982L200.753 22.0551L208.378 19.2734L207.453 23.6825L207.661 25.46Z" fill="#E2E2E9"/>
<path d="M137.883 388.825V393.846H173.212L173.709 389.506L173.802 388.375L164.105 388.825L151.156 386.667H140.718L137.883 388.825Z" fill="#495575"/>
<path d="M151.156 386.667L164.105 388.825L173.802 388.375L174.415 381.184L173.212 375.933L173.073 376.013L167.704 379.026H156.456L152.151 378.206L150.23 377.837L144.144 384.047L140.718 386.667H151.156Z" fill="#586989"/>
<path d="M156.167 309.358L149.802 372.747L153.517 373.347L164.996 375.24L173.027 375.932L183.545 298.359L179.993 274.513L175.723 272.043L178.535 269.792L179.553 263.837L185.524 202.364L176.845 200.333L161.119 194.688L154.697 268.026L163.434 290.372L161.119 302.168L156.167 309.358Z" fill="#B1B8C5"/>
<path d="M174.392 109.497V128.08L169.162 129.43L174.392 109.497ZM195.059 128.749L195.395 112.429L190.083 96.3968L191.611 94.781L189.713 87.1286L184.193 88.1328L176.811 66.6069L166.396 70.0695L154.951 86.9093L152.14 122.574L154.246 137.302L164.244 144.227L183.568 145.981L207.048 142.195L205.59 140.06L200.903 128.934L195.059 128.749Z" fill="#E2E6E9"/>
<path d="M153.517 373.347L152.151 378.206L156.456 379.026H167.704L173.073 376.013L173.027 375.933L164.996 375.24L153.517 373.347Z" fill="#B1B3C5"/>
<path d="M154.222 137.267L154.928 142.184L161.952 148.197L164.336 148.474L182.92 150.61L194.446 148.613L214.986 145.046L215.368 144.816L205.59 129.095L200.903 128.945L205.59 140.072L207.048 142.207L183.545 145.981L164.22 144.238L154.222 137.267Z" fill="#B1B9C5"/>
<path d="M154.697 268.026L157.613 295.012L156.167 309.358L161.119 302.168L163.434 290.372L154.697 268.026Z" fill="#888EAA"/>
<path d="M162.566 170.647L159.337 189.887L161.49 190.545L163.607 191.192L166.708 175.691L169.636 153.599L184.39 155.134L194.261 153.922L194.446 148.613L182.92 150.61L164.336 148.475L162.566 170.647Z" fill="#B1B9C5"/>
<path d="M161.49 190.545L161.119 194.689L176.845 200.333L185.524 202.364L179.553 263.837L178.535 269.792L175.723 272.043L179.993 274.513L183.545 298.359L182.18 273.047L195.082 197.551L193.381 179.615L189.678 196.87L177.632 195.497L163.607 191.191L161.49 190.545Z" fill="#8891AA"/>
<path d="M166.708 175.691L163.607 191.191L177.632 195.497L189.678 196.87L193.381 179.615L194.261 153.922L184.39 155.134L169.636 153.599L166.708 175.691Z" fill="#E2E6E9"/>
<path d="M174.415 109.497L169.185 129.43L174.415 128.08V109.497Z" fill="#B1B9C5"/>
<path d="M174.786 15.8915L173.652 26.1639L179.056 38.1445L178.535 32.7082L178.037 27.5835L178.014 27.3296L176.568 24.5134L181.532 24.698L198.635 22.3435L195.082 17.4035L191.715 8.0083L174.786 15.8915Z" fill="#586689"/>
<path d="M176.834 66.5954V66.6069L184.217 88.1328L189.736 87.1286L191.634 94.781L190.107 96.3968L195.418 112.429L195.73 97.5741V97.5626L195.082 95.4966L196.957 94.781L191.877 81.4384L185.582 83.516L179.229 65.8105L176.834 66.5954Z" fill="#B1B9C5"/>
<path d="M178.037 27.5834L178.535 32.7081L185.663 31.3923L189.748 33.1467L187.989 37.9481L185.2 38.8831L181.96 38.1905L182.145 43.1074L184.703 49.7441L187.989 54.3609L190.153 52.4334L189.887 51.0599L192.849 50.6097H196.054L195.73 53.6453H193.844L191.634 54.2224L197.293 61.0668L197.536 54.2801L199.445 51.6716L201.644 58.5968L201.968 59.1046L210.068 52.2487L211.422 46.1314L213.736 46.2584L218.747 37.0248L217.323 33.0197L213.077 33.2506L212.822 37.8096L209.05 37.6019L207.661 25.4597H204.664L204.34 24.04L201.771 25.4597L180.583 28.5991L178.037 27.5834ZM197.05 37.0017L193.416 32.5465L197.35 30.1111L204.768 30.4574L203.46 35.8129L197.05 37.0017Z" fill="white"/>
<path d="M178.535 32.7081L179.056 38.1444L179.183 39.4025L181.219 48.7862L184.818 55.9306L188.834 58.366L189.007 58.643L189.412 58.3776L187.434 54.8457L187.989 54.3494L184.703 49.698L182.145 43.0613L181.96 38.1444L185.2 38.837L187.989 37.902L189.748 33.1006L185.663 31.3462L178.535 32.7081Z" fill="#E2E2E9"/>
<path d="M184.714 64.9798C185.351 64.2526 185.941 63.6178 185.975 63.5947L179.229 65.8108L185.582 83.5162L191.877 81.4387L187.584 77.422L182.955 66.965C182.955 66.965 183.869 65.9031 184.714 64.9798Z" fill="#E2E2E9"/>
<path d="M182.92 66.9647L187.549 77.4218L191.842 81.4384L196.911 94.7809L198.415 94.2038L200.301 93.4767L194.735 78.9222L190.893 75.1018L184.679 64.9795C183.869 65.9029 182.92 66.9647 182.92 66.9647Z" fill="#E2E2E9"/>
<path d="M197.293 61.0553L191.634 54.2109L190.153 52.4219L187.989 54.3494L187.434 54.8457L189.435 58.3776L189.03 58.6431L186.936 59.9819C186.936 59.9819 186.08 63.5369 185.999 63.5946C185.918 63.6523 185.374 64.2525 184.737 64.9796L190.951 75.102L194.793 78.9224L200.359 93.4768L208.39 90.3836L205.694 83.4584L204.143 79.5456L203.484 77.8605L202.593 75.5521L204.305 71.7894L204.409 67.1726L204.479 62.9944L202.002 59.0932L201.678 58.5854L199.48 51.6602L197.536 54.2802L197.316 61.0092L197.293 61.0553Z" fill="white"/>
<path d="M189.887 51.0367L190.153 52.4218L191.634 54.2108L193.844 53.6337H195.73L196.055 50.5981H192.849L189.887 51.0367Z" fill="#E2E2E9"/>
<path d="M191.715 8.00823L195.083 17.4034L198.635 22.3434L200.753 22.0548L204.155 20.8198L198.635 15.7298L193.567 7.14258L191.715 8.00823Z" fill="#607791"/>
<path d="M194.261 153.922L193.381 179.615L195.082 197.551L199.41 197.216L226.257 195.104L236.128 191.515L239.518 190.28L237.505 164.437V150.61L227.865 152.884L219.545 154.638L213.47 151.764L194.446 153.899L194.261 153.922Z" fill="#E2E6E9"/>
<path d="M193.416 32.5467L197.05 37.0019L203.46 35.8131L204.768 30.4576L197.351 30.1113L193.416 32.5467Z" fill="#E2E2E9"/>
<path d="M193.567 7.14258L198.635 15.7298L204.155 20.8198L208.378 19.2732L207.453 23.6823L207.661 25.4597L209.05 37.6019L212.822 37.8097L213.077 33.2506L217.323 33.0197L218.457 21.5124L207.314 9.08163L193.567 7.14258Z" fill="#586689"/>
<path d="M193.682 388.825V393.846H220.945L221.443 389.506L206.365 390.072L193.682 388.825Z" fill="#495575"/>
<path d="M197.339 380.931L193.682 388.825L206.365 390.072L221.443 389.506L218.596 381.184L217.485 376.268H205.59L199.433 374.929L197.339 380.931Z" fill="#586989"/>
<path d="M232.182 147.309L227.865 147.193L218.214 149.398L215.368 144.815L214.986 145.046L194.446 148.613L194.261 153.922L194.446 153.899L213.47 151.764L219.545 154.638L227.865 152.883L237.505 150.61V145.981L235.294 147.389L232.182 147.309Z" fill="#B1B9C5"/>
<path d="M195.082 95.4968L195.73 97.5628V97.5744L197.651 103.715H197.663L201.1 102.514L198.45 94.2041L196.957 94.7812L195.082 95.4968Z" fill="#B1B3C5"/>
<path d="M195.418 112.429L195.082 128.749L200.903 128.945L195.418 112.429Z" fill="#E2E2E9"/>
<path d="M195.73 97.5742L195.418 112.429L200.903 128.945L205.59 129.095L197.651 103.715L195.73 97.5742Z" fill="#B1B9C5"/>
<path d="M197.651 103.715L205.59 129.095L215.368 144.816L218.214 149.398L227.865 147.193L230.793 143.419L219.163 145.196L208.378 125.333L201.1 102.514L197.663 103.715H197.651Z" fill="#B1B9C5"/>
<path d="M198.45 94.2038L201.1 102.514L214.338 97.8972L210.241 89.6562L208.378 90.3834L200.336 93.4766L198.45 94.2038Z" fill="#E2E2E9"/>
<path d="M199.41 197.216V197.551L202.268 272.043L202.373 293.973L201.285 323.705L204.479 306.323L207.742 303.853L219.476 309.278L212.706 300.702L204.479 284.739L204.583 201.51L212.579 200.137L227.622 199.756C227.622 199.756 235.271 200.552 235.271 200.517L236.185 191.515L226.315 195.104L199.41 197.216Z" fill="#8891AA"/>
<path d="M217.485 376.267H217.705L219.383 363.213L227.865 300.321V273.382L235.213 200.517L227.564 199.755L212.521 200.136L204.513 201.51L204.479 284.739L212.706 300.702L219.476 309.277L207.742 303.853L204.479 306.323L201.331 323.751L199.457 374.928L205.636 376.267H217.485Z" fill="#B1B8C5"/>
<path d="M214.338 97.8976L201.1 102.514L208.367 125.333L219.163 145.197L230.735 143.419L241.069 130.111L241.508 127.191L247.109 88.133L239.009 71.7318L221.651 64.6797L219.186 69.9659L213.736 87.1289L205.636 83.5162L208.332 90.4414L210.265 89.6681L214.338 97.8976ZM221.119 110.49L221.975 98.1861L223.896 102.03L224.683 108.262L224.104 114.864L221.119 110.501V110.49Z" fill="#E2E6E9"/>
<path d="M210.137 52.2603L202.002 59.1162L204.502 62.9943L204.409 67.1148L209.929 58.5391L210.137 52.2603Z" fill="#E2E2E9"/>
<path d="M204.305 71.7661L202.569 75.6558L203.46 77.918L204.12 77.6526L210.785 70.0348L214.94 58.816L213.736 46.2583L211.399 46.1313L210.137 52.2602L209.929 58.539L204.409 67.1147L204.305 71.7661Z" fill="white"/>
<path d="M203.46 77.9184L204.12 79.6036L213.123 82.8353L219.163 69.9083L221.628 64.622L214.94 58.8164L210.785 70.0352L204.12 77.653L203.46 77.9184Z" fill="#E2E2E9"/>
<path d="M204.12 79.6035L205.671 83.5162L213.736 87.1289L219.163 69.9082L213.123 82.8352L204.12 79.6035Z" fill="#B1B3C5"/>
<path d="M221.975 98.1743L221.119 110.49V110.501L224.104 114.864L224.695 108.262L223.896 102.029L221.975 98.1743Z" fill="#B1B9C5"/>
<path d="M230.793 143.419L227.865 147.193L232.182 147.309L241.647 135.016L244.749 129.43L241.555 127.133L241.127 130.111L230.793 143.419Z" fill="#E2E2E9"/>
<path d="M232.182 147.309L235.294 147.39L237.505 145.981L241.555 143.384L247.155 131.161L244.748 129.43L241.647 135.016L232.182 147.309Z" fill="white"/>
<path d="M137.883 394.966H173.235L174.392 393.938L174.982 388.444L175.596 381.242V380.896L174.438 375.633L172.737 374.894L167.495 377.837H156.653L150.543 376.683L149.49 377.006L143.472 383.158L137.281 387.879L136.819 388.802V393.811L137.883 394.966ZM172.182 392.657H139.04V389.356L144.977 384.82L150.624 379.049L156.41 380.146H167.657L168.224 379.996L172.39 377.687L173.2 381.254L172.506 389.391L172.182 392.657Z" fill="#50567C"/>
<path d="M207.291 90.8104L209.443 89.9679L203.819 75.6789L205.37 72.2393L205.462 71.7892L205.509 69.9425L203.194 69.8848L203.16 71.5122L201.516 75.1825L201.493 76.0713L207.291 90.8104Z" fill="#50567C"/>
<path d="M205.59 66.1224L205.659 63.0176L205.474 62.3713L202.974 58.4932L201.03 59.7397L203.333 63.3177L203.275 66.0763L205.59 66.1224Z" fill="#50567C"/>
<path d="M198.496 61.0438L198.704 54.6726L199.052 54.1994L200.695 59.2202L201.019 59.728L202.974 58.5046L202.731 58.1121L200.567 51.3254L198.531 50.9907L196.621 53.5992L196.402 54.2456L196.193 60.963L198.496 61.0438Z" fill="#50567C"/>
<path d="M195.869 95.1964L198.033 94.377L192.907 81.0229L192.618 80.5843L188.498 76.7292L184.286 67.1725C184.633 66.7916 185.108 66.2491 185.571 65.7528L186.728 64.4947C187.075 64.2523 187.179 63.9176 187.954 60.709L190.06 59.347L190.442 57.8119L188.915 55.088L190.072 54.0838L199.491 65.4643L201.273 63.9984L191.09 51.6831L189.424 51.5562L186.705 53.98L186.462 55.4112L187.92 57.9966L186.334 59.0123L185.825 59.7163C185.524 60.9975 185.166 62.4518 185.015 62.9712L183.858 64.2062L182.064 66.1914L181.879 67.4264L186.508 77.895L186.774 78.2643L190.859 82.0963L195.869 95.1964Z" fill="#50567C"/>
<path d="M204.999 78.4029L211.653 70.7968L211.873 70.439L215.437 60.7783L220.876 65.4874L221.2 65.6836L230.469 69.4463L231.337 67.3111L222.253 63.6176L215.692 57.939L213.852 58.4122L209.779 69.4348L203.252 76.8909L204.999 78.4029Z" fill="#50567C"/>
<path d="M243.461 78.0004L245.171 81.4575L243.095 82.4788L241.385 79.0217L243.461 78.0004Z" fill="#50567C"/>
<path d="M218.481 150.529L228.131 148.324L228.779 147.897L242.041 130.815L242.272 130.273L248.301 88.2367L248.185 87.5557L247.213 85.582L245.142 86.6093L245.952 88.2598L240.027 129.649L227.206 146.166L218.77 148.094L206.654 128.611L196.841 97.2279L194.631 97.9204L204.606 129.707L217.231 150.009L218.481 150.529Z" fill="#50567C"/>
<path d="M220.158 111.136L222.079 109.843L220.228 107.131L211.283 89.1486L209.825 88.583L194.666 94.4233L193.983 95.8429L194.631 97.9089L196.841 97.2164L196.517 96.1892L209.674 91.1222L218.272 108.354L220.158 111.136Z" fill="#50567C"/>
<path d="M222.078 109.836L225.059 114.207L223.146 115.505L220.164 111.134L222.078 109.836Z" fill="#50567C"/>
<path d="M225.055 114.212L227.418 117.676L225.504 118.974L223.141 115.51L225.055 114.212Z" fill="#50567C"/>
<path d="M212.729 83.9202L214.176 83.32L222.681 65.1067L220.587 64.1372L212.521 81.381L204.513 78.5185L203.738 80.6884L212.729 83.9202Z" fill="#50567C"/>
<path d="M182.782 151.752L183.117 151.741L215.194 146.189L214.789 143.915L182.886 149.444L162.438 147.089L156.004 141.595L153.262 122.378L150.971 122.701L153.783 142.357L154.176 143.061L161.2 149.075L161.825 149.34L182.782 151.752Z" fill="#50567C"/>
<path d="M152.003 109.356L154.31 109.538L154.074 112.529L151.767 112.348L152.003 109.356Z" fill="#50567C"/>
<path d="M154.847 102.606L156.051 87.2672L167.113 71.0045L186.334 64.691L185.605 62.498L166.014 68.9385L165.412 69.3886L153.968 86.2169L153.771 86.7824L152.533 102.422L154.847 102.606Z" fill="#50567C"/>
<path d="M169.474 130.549L174.543 129.234L179.542 129.407L179.623 127.098L174.45 126.925L174.126 126.96L168.896 128.322L169.474 130.549Z" fill="#50567C"/>
<path d="M187.583 127.358L205.636 127.955L205.559 130.262L187.506 129.665L187.583 127.358Z" fill="#50567C"/>
<path d="M173.258 114.864H175.572V128.08H173.258V114.864Z" fill="#50567C"/>
<path d="M173.258 107.708H175.572V110.49H173.258V107.708Z" fill="#50567C"/>
<path d="M235.271 148.544L235.919 148.37L242.18 144.365L242.608 143.869L248.208 131.646L247.827 130.226L242.226 126.198L240.872 128.068L245.709 131.542L240.641 142.599L234.97 146.235L227.9 146.039L227.842 148.347L235.271 148.544Z" fill="#50567C"/>
<path d="M236.926 171.859L239.229 171.674L238.662 164.345V145.981H236.347V164.437L236.926 171.859Z" fill="#50567C"/>
<path d="M195.175 198.705L226.65 196.189L239.912 191.365L240.675 190.199L239.935 180.781L237.632 180.965L238.292 189.495L226.014 193.962L196.124 196.316L194.539 179.5L192.247 179.373L188.764 195.601L177.875 194.366L160.645 189.079L163.7 170.832L165.493 148.567L163.191 148.382L161.409 170.555L158.203 189.703L159.002 190.995L177.505 196.651L189.54 198.013L190.813 197.113L192.942 187.187L193.937 197.667L195.175 198.705Z" fill="#50567C"/>
<path d="M205.59 377.422H217.717L218.862 376.418L220.529 363.364L229.011 300.517L226.72 300.206L218.238 363.064L216.687 375.113H205.717L200.625 374.005L203.553 294.054L203.449 272.032L200.591 197.517L198.276 197.597L201.134 272.089L201.25 294.019L198.276 374.883L199.19 376.06L205.59 377.422Z" fill="#50567C"/>
<path d="M226.708 283.239H229.022V285.409H226.708V283.239Z" fill="#50567C"/>
<path d="M226.708 277.133H229.023V273.439L237.273 191.63L234.97 191.399L226.708 273.382V277.133Z" fill="#50567C"/>
<path d="M178.697 342.715L184.703 298.301L183.337 273.117L196.228 197.747L193.948 197.355L181.034 272.851L181.023 273.105L182.388 298.313L176.406 342.403L178.697 342.715Z" fill="#50567C"/>
<path d="M175.124 351.691L177.417 352.001L176.943 355.49L174.649 355.18L175.124 351.691Z" fill="#50567C"/>
<path d="M172.934 377.075L174.172 376.083L175.943 363.017L173.651 362.705L172.031 374.686L165.088 374.086L151.063 371.777L158.759 295.127V294.885L155.854 268.015L158.145 241.976L155.831 241.78L153.54 267.934L153.551 268.153L156.444 295.023L148.645 372.631L149.617 373.878L164.811 376.371L172.934 377.075Z" fill="#50567C"/>
<path d="M157.121 227.105L159.427 227.306L159.12 230.813L156.814 230.612L157.121 227.105Z" fill="#50567C"/>
<path d="M160.32 190.42L162.626 190.621L160.12 219.194L157.814 218.993L160.32 190.42Z" fill="#50567C"/>
<path d="M152.417 373.054L154.646 373.675L153.287 378.533L151.057 377.912L152.417 373.054Z" fill="#50567C"/>
<path d="M140.707 385.513H155.588V387.821H140.707V385.513Z" fill="#495575"/>
<path d="M193.682 395H220.945L222.103 393.973L222.589 389.633L222.542 389.125L221.57 386.297L219.383 387.047L220.263 389.633L219.916 392.691H194.84V389.079L198.392 381.415L200.533 375.309L198.334 374.547L196.251 380.549L192.629 388.34L192.525 388.825V393.846L193.682 395Z" fill="#50567C"/>
<path d="M217.844 382.546L220.031 381.807L219.707 380.872L218.527 375.667L216.27 376.198L217.497 381.553L217.844 382.546Z" fill="#50567C"/>
<path d="M201.84 385.513H213.713V387.821H201.84V385.513Z" fill="#495575"/>
<path d="M201.903 31.9511L202.089 34.252L196.149 34.7307L195.962 32.4298L201.903 31.9511Z" fill="#50567C"/>
<path d="M187.859 33.6159L188.135 35.9077L182.805 36.5483L182.528 34.2565L187.859 33.6159Z" fill="#50567C"/>
<path d="M187.734 49.1094L192.803 48.2553L196.286 48.6823L200.984 48.186L200.741 45.8892L196.17 46.3624L192.942 45.9353L192.595 45.9469L187.341 46.8356L187.734 49.1094Z" fill="#50567C"/>
<path d="M194.338 40.6033L194.643 42.8916L190.364 43.4587L190.059 41.1705L194.338 40.6033Z" fill="#50567C"/>
<path d="M201.991 60.2706L202.743 59.9936L210.878 53.1492L211.271 52.4913L212.324 47.332L213.678 47.4128L214.754 46.8011L219.765 37.579L219.846 36.6441L218.411 32.6391L217.265 31.8657L213.007 32.0966L211.919 33.1931L211.734 36.598L210.091 36.5056L208.621 23.7402L209.501 19.5043L207.973 18.1885L200.475 20.9239L181.474 23.5324L176.602 23.3593L175.538 25.0329L176.892 27.6991L178.049 39.6451L180.178 49.3057L183.777 56.4502L184.216 56.9234L188.232 59.3588L189.435 57.3851L185.698 55.1229L182.319 48.3939L180.328 39.2295L179.16 27.2028L179.044 26.7988L178.488 25.7369L181.486 25.8408H181.694L201.146 23.14L206.816 21.074L206.319 23.4516L206.307 23.8094L207.904 37.7291L208.98 38.7563L212.752 38.9641L213.979 37.8676L214.176 34.3473L216.525 34.2203L217.485 36.9327L213.076 45.0583L211.456 44.9775L210.265 45.8893L209.084 51.6372L201.262 58.2392L202.002 59.1164L201.991 60.2706Z" fill="#50567C"/>
<path d="M178.003 38.6177L180.109 37.6712L174.832 25.9792L175.862 16.6648L193.74 8.33148L206.724 10.1667L217.254 21.9049L216.178 32.9044L218.481 33.1352L219.603 21.6163L219.314 20.7391L208.17 8.3084L207.476 7.93906L193.729 6L193.069 6.09234L174.3 14.8412L173.64 15.7645L172.494 26.0369L172.598 26.6371L178.003 38.6177Z" fill="#50567C"/>
<path d="M214.881 46.1558L216.08 58.7144L213.776 58.9332L212.577 46.3746L214.881 46.1558Z" fill="#50567C"/>
<path d="M185.952 84.6128L192.236 82.5352L191.507 80.3423L186.288 82.062L180.317 65.4185L178.141 66.2033L184.494 83.8972L185.952 84.6128Z" fill="#50567C"/>
<path d="M193.289 148.573L195.602 148.652L195.234 159.38L192.921 159.301L193.289 148.573Z" fill="#50567C"/>
<path d="M192.578 169.452L194.891 169.53L194.809 171.93L192.496 171.851L192.578 169.452Z" fill="#50567C"/>
<path d="M192.368 175.604L194.681 175.682L194.545 179.662L192.232 179.583L192.368 175.604Z" fill="#50567C"/>
<path d="M196.24 128.772L196.888 97.5971L194.573 97.5625L193.925 128.726L196.24 128.772Z" fill="#50567C"/>
<path d="M221.119 110.501L222.276 110.49L223.121 98.255L220.818 98.105L219.962 110.409L221.119 110.501Z" fill="#50567C"/>
<path d="M213.955 96.8098L214.719 98.9888L198.04 104.808L197.276 102.629L213.955 96.8098Z" fill="#50567C"/>
<path d="M205.59 30.5728L197.35 30.1111L194.272 32.0271L193.161 30.1111L197.142 28.5991L203.703 29.1647L205.59 30.5728Z" fill="#B1B3C5"/>
<path d="M189.748 30.8039L188.961 32.7661L185.663 31.3464L179.368 32.5468L184.136 30.3076L189.748 30.8039Z" fill="#B1B3C5"/>
<path d="M303.996 271.417C303.121 271.417 302.283 271.763 301.664 272.38C301.046 272.997 300.698 273.834 300.698 274.706C300.698 275.578 301.046 276.415 301.664 277.032C302.283 277.649 303.121 277.995 303.996 277.995H309.782V271.417H303.996Z" fill="#2AFFB2"/>
<path d="M305.651 266.488C304.424 266.488 301.948 266.488 301.948 268.958C301.948 271.428 304.424 271.417 305.651 271.417H309.782V266.488H305.651V266.488Z" fill="#2AFFB2"/>
<path d="M278.689 247.028V280.315C278.689 301.934 304.54 310.983 306.877 311.767V288.026C304.763 288.083 302.659 287.716 300.689 286.949C298.719 286.181 296.924 285.028 295.408 283.557C293.893 282.085 292.688 280.326 291.866 278.383C291.043 276.439 290.619 274.351 290.619 272.242C290.619 270.132 291.043 268.044 291.866 266.101C292.688 264.158 293.893 262.398 295.408 260.927C296.924 259.456 298.719 258.302 300.689 257.535C302.659 256.767 304.763 256.401 306.877 256.458V238.453L278.689 247.028Z" fill="#E2E6E9"/>
<path d="M309.782 277.996H303.996C303.121 277.996 302.282 277.649 301.664 277.032C301.045 276.415 300.698 275.579 300.698 274.706C300.698 273.834 301.045 272.997 301.664 272.38C302.282 271.763 303.121 271.417 303.996 271.417H305.651C304.424 271.417 301.948 271.417 301.948 268.958C301.948 266.5 304.424 266.488 305.651 266.488H309.782V278.03V277.996ZM318.09 261.087C315.502 258.501 312.095 256.891 308.449 256.531C304.804 256.171 301.146 257.083 298.1 259.112C295.053 261.14 292.806 264.16 291.742 267.656C290.677 271.152 290.862 274.908 292.263 278.284C293.665 281.66 296.196 284.447 299.427 286.169C302.658 287.891 306.387 288.443 309.98 287.729C313.573 287.016 316.806 285.082 319.129 282.256C321.452 279.431 322.721 275.89 322.719 272.236C322.721 270.165 322.313 268.115 321.518 266.201C320.724 264.288 319.559 262.55 318.09 261.087V261.087Z" fill="#2AFFB2"/>
<path d="M318.09 261.086C320.3 263.296 321.803 266.109 322.41 269.17C323.018 272.231 322.703 275.402 321.504 278.285C320.306 281.167 318.278 283.631 315.676 285.364C313.075 287.098 310.017 288.024 306.889 288.025V311.767H307.063C307.063 311.767 334.765 302.291 334.765 280.269C334.765 260.359 334.615 252.568 334.615 246.982L306.843 238.406V256.412C308.935 256.409 311.006 256.82 312.937 257.623C314.868 258.425 316.62 259.603 318.09 261.086V261.086Z" fill="#E2E6E9"/>
<path d="M304.891 263.198H302.577V281.285H304.891V263.198Z" fill="#50567C"/>
<path d="M308.189 277.995H305.875V281.285H308.189V277.995Z" fill="#50567C"/>
<path d="M308.189 263.198H305.875V266.488H308.189V263.198Z" fill="#50567C"/>
<path d="M307.865 272.571V270.262C310.029 270.262 310.411 269.847 310.411 268.958C310.411 268.069 310.029 267.642 307.865 267.642H300.448V265.334H307.865C311.082 265.334 312.725 266.546 312.725 268.958C312.725 271.37 311.082 272.571 307.865 272.571Z" fill="#50567C"/>
<path d="M309.52 279.15H300.448V276.842H309.52C309.801 276.842 310.079 276.786 310.339 276.679C310.599 276.572 310.835 276.414 311.034 276.216C311.232 276.018 311.39 275.783 311.498 275.523C311.605 275.264 311.661 274.987 311.661 274.706C311.661 274.426 311.605 274.148 311.498 273.889C311.39 273.63 311.232 273.395 311.034 273.197C310.835 272.998 310.599 272.841 310.339 272.734C310.079 272.626 309.801 272.571 309.52 272.571H303.734V270.263H309.52C310.105 270.263 310.684 270.378 311.225 270.601C311.765 270.824 312.256 271.152 312.67 271.564C313.084 271.977 313.412 272.467 313.636 273.006C313.86 273.545 313.975 274.123 313.975 274.706C313.975 275.29 313.86 275.868 313.636 276.407C313.412 276.946 313.084 277.436 312.67 277.849C312.256 278.261 311.765 278.588 311.225 278.812C310.684 279.035 310.105 279.15 309.52 279.15Z" fill="#50567C"/>
<path d="M306.889 289.18C310.676 289.179 314.355 287.915 317.34 285.59C320.325 283.265 322.445 280.012 323.364 276.347C324.283 272.682 323.948 268.816 322.412 265.363C320.875 261.91 318.226 259.068 314.885 257.289L313.797 259.332C315.072 260.015 316.241 260.878 317.269 261.894C319.571 264.225 321.023 267.258 321.396 270.509C321.768 273.759 321.039 277.041 319.324 279.83C317.609 282.619 315.007 284.755 311.933 285.897C308.86 287.039 305.491 287.122 302.364 286.133L301.647 288.326C303.339 288.881 305.108 289.169 306.889 289.18V289.18Z" fill="#50567C"/>
<path d="M297.666 286.467L298.928 284.528C296.265 282.817 294.229 280.291 293.126 277.329C292.023 274.367 291.911 271.129 292.807 268.098C293.704 265.068 295.56 262.408 298.099 260.518C300.637 258.628 303.721 257.608 306.889 257.612C308.006 257.613 309.12 257.737 310.21 257.982L310.731 255.743C306.839 254.847 302.754 255.347 299.196 257.157C295.637 258.966 292.831 261.969 291.271 265.637C289.712 269.305 289.498 273.403 290.667 277.213C291.837 281.023 294.315 284.299 297.666 286.467V286.467Z" fill="#50567C"/>
<path d="M283.849 297.744L285.666 296.313C281.935 291.811 279.89 286.156 279.88 280.316V247.883L306.889 239.653L314.584 242.042L315.267 239.838L307.236 237.345H306.553L278.353 245.92L277.531 247.075V280.316C277.547 286.68 279.78 292.841 283.849 297.744V297.744Z" fill="#50567C"/>
<path d="M288.953 303.019L290.445 301.264C289.902 300.791 289.358 300.306 288.825 299.798L287.229 301.472C287.796 302.003 288.42 302.522 288.953 303.019Z" fill="#50567C"/>
<path d="M306.681 312.91H307.467C308.625 312.506 335.957 302.903 335.957 280.315C335.957 267.296 335.888 259.32 335.853 254.046C335.853 251.172 335.853 248.967 335.853 247.028L335.043 245.932L328.1 243.773L327.417 245.978L333.55 247.882C333.55 249.614 333.55 251.587 333.55 254.069C333.55 259.344 333.654 267.308 333.654 280.315C333.654 299.937 310.268 309.401 307.039 310.59C302.119 308.852 297.471 306.427 293.234 303.388L291.869 305.246C296.362 308.468 301.295 311.03 306.519 312.852L306.681 312.91Z" fill="#50567C"/>
<path d="M322.523 242.078L325.263 242.927L324.578 245.131L321.837 244.283L322.523 242.078Z" fill="#50567C"/>
<path d="M305.732 238.453H308.046V256.458H305.732V238.453Z" fill="#50567C"/>
<path d="M305.732 288.025H308.046V311.721H305.732V288.025Z" fill="#50567C"/>
<path d="M291.879 255.635L296.523 260.258L294.888 261.892L290.244 257.269L291.879 255.635Z" fill="#50567C"/>
<path d="M318.903 282.589L323.543 287.216L321.906 288.849L317.267 284.221L318.903 282.589Z" fill="#50567C"/>
<path d="M318.9 261.906L323.541 257.278L321.909 255.639L317.269 260.267L318.9 261.906Z" fill="#50567C"/>
<path d="M294.887 282.608L296.522 284.242L291.879 288.866L290.244 287.233L294.887 282.608Z" fill="#50567C"/>
<path d="M38.1692 211.805V219.827C38.1692 220.133 38.2911 220.427 38.5081 220.643C38.7251 220.859 39.0195 220.981 39.3264 220.981H120.919C121.226 220.981 121.52 220.859 121.737 220.643C121.954 220.427 122.076 220.133 122.076 219.827V211.805H38.1692Z" fill="#B1B3C5"/>
<path d="M38.1692 196.12V211.805H122.122V192.219L116.707 186.805L110.308 193.2L99.1409 182.073L79.7929 201.371L73.5904 195.185L63.3378 205.4L46.0959 188.202L38.1692 196.12Z" fill="#E2E6E9"/>
<path d="M67.9318 163.687C66.7746 163.687 64.5528 163.687 64.5528 165.926C64.5528 168.165 66.7978 168.177 67.9318 168.177H71.7505V163.687H67.9318Z" fill="#2AFFB2"/>
<path d="M110.308 193.2L116.707 186.806L122.122 192.219V170.127C122.122 169.821 122.001 169.528 121.784 169.311C121.566 169.095 121.272 168.973 120.965 168.973H83.4611C83.4611 170.847 83.0912 172.702 82.3724 174.432C81.6536 176.163 80.6001 177.736 79.2719 179.061C77.9438 180.385 76.3671 181.436 74.6318 182.153C72.8965 182.87 71.0367 183.239 69.1584 183.239C67.2801 183.239 65.4203 182.87 63.685 182.153C61.9497 181.436 60.373 180.385 59.0449 179.061C57.7167 177.736 56.6632 176.163 55.9444 174.432C55.2256 172.702 54.8557 170.847 54.8557 168.973H39.4074C39.1005 168.973 38.8061 169.095 38.5891 169.311C38.3721 169.528 38.2502 169.821 38.2502 170.127V196.12L46.1769 188.202L63.3031 205.4L73.5557 195.185L79.7582 201.372L99.1756 182.073L110.308 193.2Z" fill="white"/>
<path d="M71.519 221.027L66.7052 229.776H93.5748L89.3743 221.027H71.519Z" fill="#B1B3C5"/>
<path d="M67.9318 163.687H71.7505V174.179H66.4853C65.6874 174.179 64.9221 173.862 64.3579 173.3C63.7936 172.737 63.4767 171.974 63.4767 171.178C63.4767 170.382 63.7936 169.619 64.3579 169.056C64.9221 168.493 65.6874 168.177 66.4853 168.177H67.9318C66.7746 168.177 64.5528 168.177 64.5528 165.926C64.5528 163.675 66.8556 163.687 67.9318 163.687ZM69.089 154.661C66.2569 154.659 63.4878 155.495 61.132 157.063C58.7763 158.63 56.9398 160.86 55.8549 163.47C54.7701 166.079 54.4856 168.951 55.0376 171.721C55.5895 174.492 56.9531 177.037 58.9557 179.034C60.9583 181.032 63.5099 182.392 66.2877 182.942C69.0655 183.493 71.9445 183.209 74.5606 182.127C77.1767 181.045 79.4122 179.213 80.9841 176.864C82.5561 174.514 83.394 171.752 83.3917 168.927C83.3917 167.054 83.0218 165.199 82.303 163.468C81.5842 161.737 80.5307 160.164 79.2025 158.84C77.8744 157.515 76.2977 156.464 74.5624 155.747C72.8271 155.03 70.9672 154.661 69.089 154.661V154.661Z" fill="#2AFFB2"/>
<path d="M66.4853 168.177C65.6874 168.177 64.9221 168.493 64.3579 169.056C63.7937 169.618 63.4767 170.382 63.4767 171.178C63.4767 171.974 63.7937 172.737 64.3579 173.3C64.9221 173.862 65.6874 174.179 66.4853 174.179H71.7505V168.177H66.4853Z" fill="#2AFFB2"/>
<path d="M67.3804 160.686H65.0661V177.18H67.3804V160.686Z" fill="#50567C"/>
<path d="M71.5115 174.179H69.1971V177.18H71.5115V174.179Z" fill="#50567C"/>
<path d="M71.5115 160.686H69.1971V163.687H71.5115V160.686Z" fill="#50567C"/>
<path d="M70.0418 169.331V167.023C72.1132 167.023 72.2636 166.595 72.2636 165.926C72.2636 165.257 72.1132 164.841 70.0418 164.841H63.2839V162.533H70.0418C73.0505 162.533 74.578 163.687 74.578 165.926C74.578 168.165 72.9927 169.331 70.0418 169.331Z" fill="#50567C"/>
<path d="M71.4883 175.333H63.2261V173.024H71.4883C72.2868 173.024 73.3398 172.828 73.3398 171.178C73.3398 169.527 72.2868 169.331 71.4883 169.331H66.2232V167.022H71.4883C72.5932 167.022 73.6528 167.46 74.434 168.239C75.2153 169.019 75.6542 170.076 75.6542 171.178C75.6542 172.28 75.2153 173.336 74.434 174.116C73.6528 174.895 72.5932 175.333 71.4883 175.333Z" fill="#50567C"/>
<path d="M69.4917 184.359C65.9325 184.354 62.4837 183.125 59.7268 180.88C56.9699 178.635 55.0734 175.51 54.3571 172.033C53.6408 168.555 54.1485 164.938 55.7945 161.79C57.4406 158.643 60.1243 156.157 63.3934 154.753L64.3075 156.866C61.306 158.141 58.8859 160.482 57.516 163.435C56.1461 166.388 55.9241 169.743 56.893 172.851C57.8618 175.958 59.9525 178.596 62.76 180.253C65.5674 181.911 68.8918 182.47 72.0889 181.822C75.286 181.174 78.1283 179.366 80.0649 176.747C82.0016 174.129 82.8948 170.886 82.5714 167.648C82.248 164.41 80.7311 161.407 78.3146 159.221C75.8982 157.035 72.7541 155.821 69.4917 155.815V153.507C73.5202 153.617 77.3467 155.29 80.1572 158.171C82.9676 161.052 84.5401 164.913 84.5401 168.933C84.5401 172.952 82.9676 176.813 80.1572 179.694C77.3467 182.575 73.5202 184.249 69.4917 184.359V184.359Z" fill="#50567C"/>
<path d="M70.5042 220.481L72.5337 221.59L67.7278 230.335L65.6984 229.225L70.5042 220.481Z" fill="#50567C"/>
<path d="M90.4094 220.536L94.619 229.288L92.5324 230.287L88.3228 221.535L90.4094 220.536Z" fill="#50567C"/>
<path d="M83.4149 167.772H96.3058V170.081H83.4149V167.772Z" fill="#50567C"/>
<path d="M102.126 167.772H108.491V170.081H102.126V167.772Z" fill="#50567C"/>
<path d="M39.3611 222.182H120.919C121.533 222.182 122.121 221.938 122.555 221.506C122.989 221.073 123.233 220.486 123.233 219.873V170.127C123.233 169.515 122.989 168.928 122.555 168.495C122.121 168.062 121.533 167.819 120.919 167.819H111.361V170.127H120.919V219.873H71.4728H39.3148V211.794V196.12H37.0005V219.827C36.9942 220.138 37.0509 220.447 37.1673 220.736C37.2837 221.024 37.4574 221.286 37.6779 221.506C37.8983 221.726 38.1611 221.899 38.4503 222.015C38.7396 222.131 39.0494 222.188 39.3611 222.182Z" fill="#50567C"/>
<path d="M37.0121 196.12H39.3264V170.127H54.6821V167.819H39.3611C38.7473 167.819 38.1587 168.062 37.7246 168.495C37.2906 168.928 37.0468 169.515 37.0468 170.127L37.0121 196.12Z" fill="#50567C"/>
<path d="M57.5519 210.651H122.122V212.96H57.5519V210.651Z" fill="#50567C"/>
<path d="M38.1576 210.651H50.3079V212.96H38.1576V210.651Z" fill="#50567C"/>
<path d="M62.7823 228.622H97.9606V230.93H62.7823V228.622Z" fill="#50567C"/>
<path d="M38.9908 196.939L46.0959 189.841L49.498 193.223L51.1296 191.595L46.9175 187.394H45.2859L37.3477 195.3L37.0121 196.12H38.1692L38.9908 196.939Z" fill="#50567C"/>
<path d="M56.6556 197.121L58.3657 198.827L56.7293 200.459L55.0192 198.753L56.6556 197.121Z" fill="#50567C"/>
<path d="M64.1595 206.219L73.5905 196.813L78.9713 202.191H80.6145L99.1525 183.701L102.52 187.071L104.151 185.432L99.9625 181.254H98.3309L79.7929 199.744L74.4005 194.366H72.7688L63.3379 203.761L60.8384 201.268L59.1952 202.907L62.5163 206.219H64.1595Z" fill="#50567C"/>
<path d="M111.118 194.019L116.707 188.444L121.301 193.027L122.944 191.399L117.528 185.998H115.885L110.308 191.561L107.635 188.906L106.003 190.534L109.486 194.019H111.118Z" fill="#50567C"/>
<path d="M65.1083 28.6798V75.575C65.0919 76.43 65.2508 77.2793 65.5752 78.0709C65.8996 78.8625 66.3827 79.5796 66.9949 80.1784C67.6071 80.7771 68.3354 81.2448 69.1353 81.5527C69.9351 81.8607 70.7896 82.0024 71.6463 81.9692H116.718C120.445 81.9692 125.062 79.2915 125.062 75.575V56.3691L144.919 32.5464H125.062V28.6798C125.062 24.9633 120.433 20.335 116.718 20.335H71.6463C67.9318 20.335 65.1083 24.9633 65.1083 28.6798Z" fill="white"/>
<path d="M93.6559 19.1812H97.5324V21.4896H93.6559V19.1812Z" fill="#50567C"/>
<path d="M71.6464 83.1238H78.52V80.8154H71.6464C70.9421 80.8472 70.2387 80.7344 69.5799 80.4839C68.9211 80.2335 68.3209 79.8508 67.8164 79.3595C67.312 78.8683 66.914 78.2789 66.6472 77.628C66.3804 76.9771 66.2505 76.2784 66.2655 75.5754V28.6802C66.2655 25.4485 68.7534 21.4896 71.6464 21.4896H87.3724V19.1812H71.6464C67.3185 19.1812 63.9511 24.2943 63.9511 28.6802V75.5754C63.9366 76.5814 64.1267 77.58 64.5099 78.5108C64.8931 79.4415 65.4614 80.2852 66.1807 80.9907C66.8999 81.6962 67.7551 82.249 68.6945 82.6156C69.6339 82.9822 70.6381 83.1551 71.6464 83.1238Z" fill="#50567C"/>
<path d="M87.3724 80.8154H92.3829V83.1238H87.3724V80.8154Z" fill="#50567C"/>
<path d="M98.3655 83.1238H116.718C121.208 83.1238 126.219 79.8921 126.219 75.5754V56.785L145.81 33.2855L144.919 31.3926H126.219V28.6802C126.219 24.3289 121.069 19.1812 116.718 19.1812H107.935V21.4896H116.718C119.808 21.4896 123.904 25.587 123.904 28.6802V32.5468L125.062 33.701H142.419L124.136 55.6308L123.87 56.3695V75.5754C123.87 78.4839 119.947 80.8154 116.684 80.8154H98.3655V83.1238Z" fill="#50567C"/>
<path d="M306.576 159.309C303.27 159.295 300.045 160.325 297.362 162.252C294.679 164.178 292.676 166.903 291.64 170.034C290.605 173.166 290.59 176.544 291.598 179.685C292.605 182.826 294.584 185.568 297.25 187.518L299.795 180.893H314.526L316.54 187.022C319.042 184.979 320.849 182.214 321.712 179.106C322.575 175.998 322.452 172.699 321.36 169.664C320.268 166.628 318.261 164.004 315.614 162.152C312.967 160.3 309.81 159.311 306.576 159.321V159.309ZM300.675 171.555C300.673 170.395 301.015 169.26 301.66 168.295C302.304 167.329 303.222 166.576 304.296 166.13C305.37 165.685 306.552 165.567 307.693 165.792C308.834 166.017 309.883 166.574 310.706 167.394C311.529 168.213 312.09 169.258 312.318 170.396C312.546 171.533 312.43 172.713 311.985 173.785C311.541 174.857 310.787 175.773 309.82 176.418C308.853 177.063 307.716 177.407 306.553 177.407C305.782 177.409 305.018 177.258 304.305 176.965C303.591 176.672 302.943 176.241 302.397 175.697C301.851 175.154 301.418 174.508 301.123 173.797C300.827 173.087 300.675 172.325 300.675 171.555V171.555Z" fill="white"/>
<path d="M346.198 108.513C342.906 108.513 339.698 109.548 337.029 111.47C334.361 113.393 332.368 116.106 331.334 119.224C330.3 122.341 330.277 125.704 331.269 128.835C332.261 131.966 334.217 134.705 336.86 136.664L339.417 130.039H354.137L356.162 136.179C358.664 134.136 360.47 131.371 361.333 128.263C362.197 125.155 362.074 121.857 360.982 118.821C359.89 115.785 357.883 113.161 355.236 111.31C352.589 109.458 349.432 108.468 346.198 108.478V108.513ZM340.285 120.747C340.287 119.588 340.634 118.456 341.281 117.493C341.929 116.53 342.848 115.78 343.922 115.338C344.996 114.896 346.178 114.782 347.317 115.01C348.457 115.237 349.503 115.796 350.324 116.617C351.145 117.437 351.704 118.482 351.93 119.619C352.156 120.756 352.039 121.935 351.593 123.005C351.148 124.076 350.395 124.991 349.428 125.635C348.462 126.279 347.326 126.622 346.164 126.622C345.391 126.622 344.625 126.47 343.911 126.175C343.197 125.879 342.549 125.446 342.003 124.901C341.457 124.355 341.024 123.707 340.729 122.995C340.435 122.282 340.284 121.518 340.285 120.747Z" fill="white"/>
<path d="M306.576 57.7166C303.285 57.719 300.079 58.7557 297.412 60.6795C294.746 62.6032 292.754 65.3162 291.722 68.433C290.689 71.5498 290.668 74.9119 291.66 78.0416C292.652 81.1714 294.608 83.9097 297.25 85.8676L299.795 79.2425H314.526L316.54 85.3713C319.042 83.3286 320.849 80.5634 321.712 77.4554C322.575 74.3474 322.452 71.049 321.36 68.0135C320.268 64.9779 318.261 62.3539 315.614 60.5019C312.967 58.65 309.81 57.6609 306.576 57.6705V57.7166ZM300.675 69.9627C300.673 68.8026 301.015 67.6678 301.66 66.7021C302.304 65.7363 303.222 64.983 304.296 64.5375C305.37 64.0919 306.552 63.9742 307.693 64.1991C308.834 64.424 309.883 64.9815 310.706 65.8011C311.529 66.6206 312.09 67.6653 312.318 68.803C312.546 69.9407 312.43 71.1202 311.985 72.1923C311.541 73.2643 310.787 74.1808 309.82 74.8255C308.853 75.4703 307.716 75.8145 306.553 75.8145C305.782 75.816 305.018 75.6658 304.305 75.3724C303.591 75.079 302.943 74.6482 302.397 74.1046C301.851 73.5611 301.418 72.9155 301.123 72.2048C300.827 71.494 300.675 70.7321 300.675 69.9627V69.9627Z" fill="white"/>
<path d="M339.417 130.039L336.86 136.664C339.669 138.744 343.096 139.827 346.594 139.739C350.093 139.651 353.461 138.398 356.161 136.179L354.136 130.039H339.417Z" fill="#B1B3C5"/>
<path d="M346.164 114.896C345 114.896 343.863 115.24 342.896 115.884C341.929 116.529 341.176 117.446 340.731 118.518C340.287 119.59 340.171 120.769 340.399 121.907C340.627 123.045 341.188 124.089 342.011 124.909C342.834 125.728 343.883 126.286 345.024 126.511C346.165 126.736 347.347 126.618 348.421 126.173C349.495 125.727 350.412 124.974 351.057 124.008C351.701 123.042 352.044 121.907 352.042 120.747C352.039 119.194 351.418 117.706 350.316 116.609C349.214 115.512 347.721 114.896 346.164 114.896V114.896Z" fill="#B1B3C5"/>
<path d="M306.553 75.8258C303.307 75.8258 300.675 73.2007 300.675 69.9625C300.675 66.7242 303.307 64.0991 306.553 64.0991C309.8 64.0991 312.432 66.7242 312.432 69.9625C312.432 73.2007 309.8 75.8258 306.553 75.8258Z" fill="#B1B3C5"/>
<path d="M299.795 79.2422L297.25 85.8673C300.056 87.9512 303.483 89.035 306.981 88.945C310.478 88.855 313.845 87.5965 316.54 85.371L314.526 79.2422H299.795Z" fill="#B1B3C5"/>
<path d="M306.553 165.692C305.39 165.69 304.252 166.032 303.284 166.674C302.316 167.317 301.561 168.232 301.114 169.303C300.667 170.375 300.549 171.554 300.775 172.692C301 173.83 301.559 174.876 302.381 175.697C303.203 176.518 304.25 177.078 305.391 177.305C306.531 177.532 307.714 177.417 308.789 176.973C309.863 176.53 310.782 175.778 311.429 174.814C312.075 173.849 312.42 172.715 312.42 171.555C312.422 170.786 312.271 170.024 311.977 169.312C311.683 168.601 311.251 167.955 310.706 167.41C310.161 166.865 309.514 166.433 308.801 166.138C308.089 165.844 307.325 165.692 306.553 165.692Z" fill="#B1B3C5"/>
<path d="M299.795 180.835L297.25 187.46C300.057 189.542 303.482 190.625 306.979 190.537C310.475 190.449 313.842 189.195 316.54 186.975V186.975L314.526 180.846L299.795 180.835Z" fill="#B1B3C5"/>
<path d="M346.163 127.776C347.686 127.762 349.164 127.256 350.374 126.333C351.583 125.41 352.46 124.121 352.873 122.658C353.285 121.196 353.21 119.639 352.66 118.223C352.109 116.807 351.113 115.606 349.82 114.803L348.663 116.777C349.369 117.184 349.955 117.769 350.362 118.475C350.768 119.18 350.981 119.98 350.977 120.793C350.977 121.684 350.723 122.556 350.245 123.309C349.767 124.061 349.085 124.663 348.279 125.045C347.472 125.426 346.573 125.572 345.686 125.464C344.8 125.357 343.962 125.001 343.27 124.438C342.579 123.874 342.061 123.127 341.778 122.282C341.495 121.437 341.458 120.53 341.671 119.665C341.885 118.8 342.339 118.013 342.983 117.396C343.627 116.778 344.432 116.356 345.307 116.177L344.844 113.868C343.177 114.255 341.709 115.234 340.714 116.623C339.718 118.012 339.265 119.715 339.438 121.413C339.611 123.111 340.399 124.689 341.654 125.849C342.909 127.01 344.545 127.675 346.256 127.719L346.163 127.776Z" fill="#50567C"/>
<path d="M337.948 137.079L340.216 131.193H353.292L355.062 136.537L357.261 135.809L355.236 129.681L354.136 128.884H339.417L338.341 129.623L335.784 136.248L337.948 137.079Z" fill="#50567C"/>
<path d="M346.198 140.899C349.211 140.9 352.169 140.092 354.762 138.562C357.355 137.032 359.488 134.834 360.938 132.2C362.388 129.566 363.102 126.591 363.005 123.588C362.907 120.584 362.003 117.662 360.385 115.126L358.383 116.361C359.779 118.547 360.56 121.068 360.645 123.658C360.729 126.249 360.114 128.815 358.864 131.087C357.614 133.359 355.774 135.254 353.538 136.575C351.302 137.895 348.751 138.591 346.152 138.591C342.306 138.591 338.619 137.067 335.899 134.355C333.18 131.643 331.653 127.964 331.653 124.129C331.647 121.498 332.362 118.916 333.718 116.66C335.075 114.404 337.023 112.56 339.353 111.327C341.682 110.093 344.305 109.517 346.939 109.66C349.572 109.802 352.117 110.659 354.299 112.137L355.595 110.186C353.415 108.721 350.921 107.787 348.314 107.457C345.707 107.127 343.058 107.412 340.581 108.288C338.104 109.164 335.867 110.607 334.05 112.501C332.233 114.395 330.887 116.687 330.119 119.195C329.351 121.702 329.183 124.353 329.629 126.937C330.074 129.52 331.121 131.964 332.684 134.071C334.248 136.178 336.285 137.89 338.632 139.07C340.979 140.25 343.57 140.865 346.198 140.865V140.899Z" fill="#50567C"/>
<path d="M306.553 178.561C307.945 178.561 309.306 178.15 310.463 177.378C311.621 176.606 312.522 175.51 313.055 174.227C313.587 172.944 313.725 171.532 313.453 170.171C313.181 168.809 312.509 167.559 311.524 166.578C310.539 165.597 309.284 164.929 307.919 164.66C306.553 164.39 305.138 164.531 303.853 165.064C302.568 165.597 301.469 166.498 300.698 167.654C299.926 168.809 299.515 170.167 299.518 171.555C299.518 172.476 299.7 173.388 300.053 174.239C300.407 175.09 300.926 175.863 301.579 176.514C302.233 177.164 303.008 177.68 303.862 178.031C304.715 178.383 305.63 178.563 306.553 178.561ZM306.553 166.846C307.487 166.846 308.4 167.123 309.176 167.64C309.953 168.157 310.558 168.893 310.915 169.753C311.273 170.614 311.366 171.561 311.184 172.474C311.002 173.388 310.552 174.227 309.892 174.885C309.232 175.544 308.39 175.992 307.474 176.174C306.559 176.356 305.609 176.263 304.747 175.906C303.884 175.55 303.147 174.946 302.628 174.172C302.109 173.397 301.832 172.487 301.832 171.555C301.832 170.937 301.954 170.325 302.191 169.753C302.429 169.182 302.776 168.663 303.215 168.226C303.653 167.788 304.174 167.441 304.747 167.205C305.319 166.968 305.933 166.846 306.553 166.846Z" fill="#50567C"/>
<path d="M298.326 187.875L300.594 181.989H313.681L315.44 187.333L317.639 186.606L315.626 180.477L314.515 179.681H299.795L298.719 180.419L296.162 187.044L298.326 187.875Z" fill="#50567C"/>
<path d="M319.329 168.024L321.354 166.869C320.735 165.729 319.986 164.663 319.12 163.695L317.396 165.242C318.148 166.09 318.796 167.024 319.329 168.024Z" fill="#50567C"/>
<path d="M306.576 191.696C310.481 191.691 314.264 190.337 317.28 187.864V187.864C319.194 186.294 320.734 184.32 321.791 182.085C322.847 179.849 323.393 177.408 323.39 174.937C323.39 174.337 323.39 173.725 323.298 173.136L320.983 173.379C321.039 173.896 321.066 174.416 321.064 174.937C321.067 177.068 320.596 179.173 319.685 181.101C318.775 183.028 317.448 184.731 315.799 186.086V186.086C313.192 188.228 309.919 189.395 306.542 189.387C302.702 189.378 299.023 187.851 296.312 185.139C293.6 182.428 292.077 178.755 292.077 174.925C292.081 172.655 292.621 170.418 293.652 168.394C294.683 166.371 296.177 164.617 298.013 163.276C299.849 161.934 301.976 161.042 304.221 160.672C306.467 160.302 308.768 160.464 310.939 161.144L311.645 158.951C309.992 158.42 308.266 158.152 306.53 158.155C302.081 158.173 297.82 159.947 294.678 163.09C291.536 166.232 289.769 170.487 289.763 174.925C289.766 179.372 291.538 183.636 294.691 186.781C297.843 189.925 302.118 191.693 306.576 191.696V191.696Z" fill="#50567C"/>
<path d="M306.553 76.9687C307.945 76.9687 309.306 76.5568 310.463 75.7852C311.621 75.0136 312.522 73.9169 313.055 72.6339C313.587 71.351 313.725 69.9394 313.453 68.5778C313.181 67.2162 312.509 65.9659 311.524 64.9849C310.539 64.0039 309.284 63.3365 307.919 63.067C306.553 62.7976 305.138 62.9382 303.853 63.4711C302.568 64.004 301.469 64.9053 300.698 66.0608C299.926 67.2163 299.515 68.5742 299.518 69.9627C299.518 70.8837 299.7 71.7957 300.053 72.6464C300.407 73.4972 300.926 74.27 301.579 74.9207C302.233 75.5714 303.008 76.0873 303.862 76.4387C304.715 76.7901 305.63 76.9702 306.553 76.9687V76.9687ZM306.553 65.2535C307.487 65.2535 308.4 65.5297 309.176 66.0472C309.953 66.5646 310.558 67.3001 310.915 68.1606C311.273 69.021 311.366 69.9679 311.184 70.8814C311.002 71.7949 310.552 72.6339 309.892 73.2925C309.232 73.9511 308.39 74.3996 307.474 74.5813C306.559 74.763 305.609 74.6698 304.747 74.3133C303.884 73.9569 303.147 73.3533 302.628 72.5789C302.109 71.8045 301.832 70.894 301.832 69.9627C301.832 68.7137 302.329 67.5159 303.215 66.6328C304.1 65.7497 305.301 65.2535 306.553 65.2535Z" fill="#50567C"/>
<path d="M298.326 86.2827L300.594 80.3963H313.681L315.44 85.7403L317.639 85.0131L315.626 78.8843L314.515 78.0879H299.795L298.719 78.8266L296.162 85.4517L298.326 86.2827Z" fill="#50567C"/>
<path d="M306.576 90.1031C310.281 90.1041 313.883 88.8845 316.822 86.6338C319.76 84.383 321.871 81.2272 322.826 77.6567C323.782 74.0862 323.528 70.301 322.104 66.8892C320.681 63.4774 318.167 60.6301 314.954 58.7897L313.797 60.7865C316.57 62.3722 318.74 64.8274 319.969 67.7702C321.199 70.713 321.419 73.9785 320.595 77.059C319.771 80.1394 317.95 82.862 315.415 84.8035C312.88 86.7451 309.773 87.7966 306.576 87.7947C302.731 87.7947 299.043 86.271 296.324 83.5589C293.605 80.8467 292.077 77.1682 292.077 73.3326C292.077 71.2262 292.538 69.1453 293.428 67.2352C294.319 65.3252 295.616 63.6321 297.231 62.2745C298.846 60.9169 300.738 59.9274 302.776 59.3753C304.814 58.8232 306.948 58.7219 309.03 59.0782L309.423 56.7698C307.142 56.4095 304.81 56.522 302.574 57.1002C300.338 57.6784 298.245 58.7101 296.427 60.1307C294.608 61.5514 293.102 63.3305 292.003 65.3573C290.905 67.3841 290.237 69.6149 290.04 71.9106C289.844 74.2064 290.125 76.5178 290.864 78.7007C291.603 80.8836 292.785 82.8912 294.337 84.5982C295.889 86.3051 297.776 87.6749 299.882 88.6221C301.988 89.5692 304.267 90.0734 306.576 90.1031V90.1031Z" fill="#50567C"/>
<path d="M88.113 332.846L90.138 338.987C92.6516 336.919 94.456 334.121 95.2996 330.982C96.1432 327.843 95.984 324.52 94.8442 321.476C93.7045 318.431 91.6409 315.817 88.9411 313.998C86.2413 312.179 83.0398 311.245 79.7828 311.327C76.5257 311.409 73.3754 312.502 70.7708 314.455C68.1663 316.407 66.2372 319.121 65.2525 322.219C64.2678 325.317 64.2765 328.643 65.2774 331.736C66.2783 334.829 68.2215 337.533 70.8363 339.471L73.3937 332.835L88.113 332.846ZM74.2268 323.613C74.2268 322.453 74.5716 321.319 75.2175 320.355C75.8635 319.391 76.7816 318.639 77.8557 318.196C78.9299 317.752 80.1118 317.636 81.2521 317.862C82.3924 318.088 83.4399 318.647 84.262 319.467C85.0841 320.287 85.644 321.331 85.8708 322.469C86.0976 323.606 85.9812 324.785 85.5363 325.856C85.0914 326.928 84.3379 327.844 83.3712 328.488C82.4045 329.132 81.268 329.476 80.1053 329.476C79.3323 329.471 78.5679 329.315 77.8556 329.015C77.1434 328.716 76.4974 328.279 75.9546 327.73C75.4118 327.181 74.9829 326.531 74.6924 325.816C74.4019 325.102 74.2555 324.337 74.2616 323.567L74.2268 323.613Z" fill="white"/>
<path d="M80.14 317.703C78.9774 317.703 77.8408 318.047 76.8741 318.691C75.9074 319.336 75.154 320.251 74.709 321.323C74.2641 322.394 74.1477 323.573 74.3745 324.71C74.6013 325.848 75.1612 326.892 75.9833 327.712C76.8054 328.532 77.8529 329.091 78.9932 329.317C80.1335 329.543 81.3154 329.427 82.3896 328.983C83.4637 328.54 84.3818 327.788 85.0277 326.824C85.6737 325.86 86.0184 324.726 86.0184 323.566C86.0184 322.011 85.3991 320.52 84.2967 319.42C83.1943 318.321 81.6991 317.703 80.14 317.703V317.703Z" fill="#B1B3C5"/>
<path d="M73.3937 332.846L70.8363 339.483C73.6459 341.563 77.0728 342.646 80.571 342.558C84.0691 342.47 87.4371 341.217 90.1381 338.998V338.998L88.113 332.858L73.3937 332.846Z" fill="#B1B3C5"/>
<path d="M80.14 330.584C82.005 330.581 83.7928 329.841 85.1116 328.525C86.4304 327.21 87.1726 325.427 87.1757 323.566H84.8613C84.8613 324.498 84.5844 325.408 84.0656 326.183C83.5468 326.957 82.8095 327.561 81.9468 327.917C81.0841 328.273 80.1348 328.367 79.2189 328.185C78.3031 328.003 77.4618 327.555 76.8016 326.896C76.1413 326.238 75.6916 325.399 75.5094 324.485C75.3273 323.572 75.4208 322.625 75.7781 321.764C76.1355 320.904 76.7406 320.168 77.517 319.651C78.2934 319.133 79.2062 318.857 80.14 318.857C80.7602 318.854 81.3748 318.974 81.9473 319.212C82.5198 319.45 83.0385 319.8 83.4727 320.242L85.1159 318.603C84.2977 317.788 83.2904 317.186 82.1833 316.851C81.0762 316.516 79.9034 316.459 78.7687 316.684C77.6341 316.909 76.5726 317.41 75.6784 318.142C74.7841 318.874 74.0846 319.815 73.6418 320.881C73.1991 321.947 73.0267 323.105 73.14 324.254C73.2533 325.402 73.6487 326.505 74.2913 327.464C74.9339 328.424 75.8038 329.21 76.824 329.755C77.8442 330.299 78.9831 330.584 80.14 330.584V330.584Z" fill="#50567C"/>
<path d="M71.9126 339.899L74.1922 334.001H87.2799L89.0388 339.345L91.2374 338.629L89.2124 332.489L88.1131 331.692H73.3938L72.306 332.431L69.7487 339.068L71.9126 339.899Z" fill="#50567C"/>
<path d="M80.1632 343.719C84.6256 343.719 88.9052 341.951 92.0605 338.803C95.2159 335.656 96.9886 331.388 96.9886 326.937C96.9933 324.314 96.3747 321.727 95.1834 319.388L93.1236 320.427C94.1493 322.444 94.6807 324.675 94.6742 326.937C94.6744 330.185 93.5782 333.339 91.5623 335.89C89.5465 338.441 86.7283 340.241 83.5618 340.999C80.3953 341.758 77.065 341.432 74.1072 340.072C71.1495 338.713 68.7367 336.4 67.2574 333.507C65.7782 330.613 65.3187 327.307 65.953 324.121C66.5873 320.935 68.2785 318.054 70.754 315.944C73.2295 313.833 76.3452 312.616 79.5993 312.487C82.8533 312.358 86.056 313.325 88.6916 315.233L90.0571 313.375C87.9105 311.821 85.4259 310.796 82.8062 310.383C80.1865 309.97 77.5061 310.182 74.9839 310.999C72.4616 311.817 70.1691 313.219 68.2937 315.089C66.4182 316.959 65.0129 319.246 64.1927 321.762C63.3724 324.277 63.1604 326.951 63.5741 329.564C63.9877 332.177 65.0152 334.655 66.5726 336.796C68.13 338.938 70.1732 340.681 72.5352 341.884C74.8972 343.087 77.511 343.716 80.1632 343.719V343.719Z" fill="#50567C"/>
<path d="M91.9317 392.691H96.8265V395H91.9317V392.691Z" fill="#50567C"/>
<path d="M105.297 392.691H252.907V395H105.297V392.691Z" fill="#50567C"/>
<path d="M110.116 54.6515C111.429 46.6109 105.958 39.0311 97.8969 37.7216C89.8355 36.4121 82.2362 41.8687 80.9233 49.9094C79.6104 57.95 85.0812 65.5298 93.1425 66.8393C101.204 68.1488 108.803 62.6921 110.116 54.6515Z" fill="white"/>
<path d="M93.0974 43.9155H90.7831V60.663H93.0974V43.9155Z" fill="#50567C"/>
<path d="M96.1523 57.6157H93.838V60.6628H96.1523V57.6157Z" fill="#50567C"/>
<path d="M96.1523 43.9155H93.838V46.9626H96.1523V43.9155Z" fill="#50567C"/>
<path d="M95.7589 52.6874V50.379C97.7029 50.379 98.0732 50.0212 98.0732 49.2248C98.0732 48.4284 97.7377 48.0706 95.7589 48.0706H88.9315V45.7622H95.8052C98.8486 45.7622 100.434 46.9164 100.434 49.2248C100.434 51.5332 98.8023 52.6874 95.7589 52.6874Z" fill="#50567C"/>
<path d="M97.2864 58.7702H88.9315V56.4618H97.3326C97.5904 56.4984 97.8532 56.4747 98.1002 56.3925C98.3472 56.3103 98.5716 56.172 98.7557 55.9883C98.9399 55.8047 99.0786 55.5808 99.161 55.3345C99.2434 55.0881 99.2671 54.826 99.2304 54.5689C99.2702 54.3117 99.2485 54.0488 99.167 53.8016C99.0855 53.5544 98.9466 53.33 98.7615 53.1465C98.5765 52.9631 98.3506 52.8259 98.1023 52.7461C97.8539 52.6664 97.5902 52.6463 97.3326 52.6875H91.9402V50.3791H97.2864C97.8491 50.338 98.4141 50.4181 98.943 50.614C99.472 50.8098 99.9525 51.1168 100.352 51.5142C100.752 51.9116 101.061 52.3901 101.259 52.9171C101.456 53.4442 101.538 54.0075 101.499 54.5689C101.538 55.1307 101.456 55.6945 101.258 56.2221C101.061 56.7497 100.752 57.2288 100.352 57.627C99.9531 58.0253 99.4728 58.3334 98.9438 58.5306C98.4149 58.7279 97.8497 58.8095 97.2864 58.7702Z" fill="#50567C"/>
<path d="M105.502 64.864L104.067 63.0519C104.345 62.8326 104.623 62.6018 104.877 62.3594L106.451 64.056C106.15 64.2984 105.826 64.5639 105.502 64.864Z" fill="#50567C"/>
<path d="M96.4531 68.2231L96.3374 65.9147C97.0339 65.875 97.7264 65.7824 98.4088 65.6377L98.8832 67.9461C98.0827 68.1077 97.2696 68.2004 96.4531 68.2231ZM93.9999 68.2231C93.1883 68.1388 92.3839 67.9961 91.593 67.796L92.1716 65.5569C92.8477 65.7321 93.5363 65.8556 94.2314 65.9262L93.9999 68.2231ZM101.244 67.2766L100.422 65.1183C101.08 64.8692 101.718 64.5721 102.332 64.2295L103.489 66.2378C102.768 66.6273 102.017 66.9592 101.244 67.2305V67.2766ZM89.2671 66.9996C88.5125 66.6727 87.7851 66.2868 87.0916 65.8454L88.3298 63.8948C88.922 64.2632 89.5409 64.5873 90.1812 64.8643L89.2671 66.9996ZM85.1244 64.4027C84.5012 63.8715 83.9244 63.2885 83.4002 62.6598L85.1591 61.1709C85.6087 61.6871 86.0961 62.1693 86.6171 62.6137L85.1244 64.4027ZM81.9884 60.64C81.5499 59.9419 81.1631 59.2128 80.8312 58.4585L82.972 57.5698C83.2411 58.2142 83.5623 58.8357 83.9325 59.4281L81.9884 60.64ZM80.1022 56.1386C79.9046 55.3462 79.7692 54.5397 79.6972 53.7263L82.0116 53.5186C82.07 54.2156 82.1862 54.9066 82.3587 55.5846L80.1022 56.1386ZM81.9884 51.4295L79.6741 51.2794C79.7225 50.464 79.8347 49.6536 80.0096 48.8556L82.324 49.3519C82.1538 50.0338 82.0415 50.7288 81.9884 51.4295V51.4295ZM82.8795 47.3436L80.7271 46.5126C81.0183 45.7488 81.3745 45.0113 81.7917 44.308L83.7936 45.4622C83.4223 46.062 83.101 46.6912 82.8332 47.3436H82.8795ZM84.9739 43.7309L83.1456 42.2882C83.6592 41.6508 84.2201 41.0528 84.8235 40.4992L86.3857 42.2074C85.8616 42.6776 85.3742 43.1869 84.9276 43.7309H84.9739ZM88.0636 40.9147L86.7791 38.9987C87.464 38.5632 88.1794 38.1774 88.9199 37.8445L89.892 39.9452C89.2449 40.2239 88.6185 40.5479 88.0173 40.9147H88.0636ZM91.8591 39.1603L91.2227 36.9442C92.011 36.7197 92.8158 36.5576 93.6296 36.4595L93.9189 38.7679C93.2086 38.85 92.5049 38.9811 91.8129 39.1603H91.8591ZM98.0963 38.8602C97.4085 38.7353 96.7122 38.662 96.0134 38.6409V36.3325C96.8327 36.3531 97.6491 36.438 98.4551 36.5864L98.0963 38.8602Z" fill="#50567C"/>
<path d="M101.117 39.7951C100.792 39.6473 100.46 39.5163 100.121 39.4026L100.885 37.2212C101.279 37.3597 101.66 37.5097 102.042 37.6713L101.117 39.7951Z" fill="#50567C"/>
<path d="M95.2728 72.2397C91.866 72.2396 88.5157 71.3717 85.5393 69.7184C82.5629 68.0652 80.059 65.6812 78.265 62.7925C76.471 59.9038 75.4462 56.606 75.2878 53.2116C75.1293 49.8172 75.8425 46.4387 77.3597 43.3963L79.4311 44.4235C78.077 47.1241 77.4408 50.1262 77.5834 53.1424C77.726 56.1585 78.6425 59.0876 80.2453 61.6492C81.8481 64.2108 84.0834 66.319 86.7371 67.7719C89.3909 69.2249 92.3742 69.9739 95.4014 69.9473C98.4285 69.9207 101.398 69.1193 104.026 67.6198C106.653 66.1204 108.851 63.9732 110.408 61.3838C111.966 58.7945 112.83 55.8497 112.919 52.8315C113.009 49.8133 112.319 46.8229 110.918 44.1465C110.918 44.1465 110.71 43.7194 110.605 43.5694L112.503 42.2651C112.676 42.5298 112.834 42.8034 112.978 43.0846C114.558 46.1266 115.327 49.523 115.211 52.9472C115.095 56.3714 114.097 59.7082 112.314 62.6366C110.531 65.5651 108.023 67.9866 105.03 69.6685C102.038 71.3503 98.6615 72.2358 95.2265 72.2397H95.2728Z" fill="#50567C"/>
<path d="M81.0165 41.861L79.1418 40.4875C79.6854 39.7499 80.2809 39.0517 80.9239 38.3984L82.5902 40.0028C82.0196 40.5819 81.4935 41.2031 81.0165 41.861V41.861Z" fill="#50567C"/>
<path d="M89.2787 35.6858L88.4918 33.5159C92.0579 32.2382 95.9146 31.9981 99.6123 32.8234L99.1031 35.1318C95.842 34.3824 92.4344 34.5745 89.2787 35.6858V35.6858Z" fill="#50567C"/>
<path d="M115.153 36.0093C115.153 38.8948 113.383 40.9031 111.682 42.8768C110.98 43.5928 110.429 44.4416 110.061 45.3733C109.694 46.305 109.517 47.3006 109.541 48.3016V49.1441H105.19L105.109 48.1053C105.042 46.9006 105.222 45.695 105.638 44.5619C106.054 43.4289 106.697 42.3921 107.527 41.5149C109.055 39.7028 110.062 38.2946 110.062 36.7365C110.062 35.1783 109.02 33.9202 106.764 33.8741C105.326 33.8632 103.918 34.2856 102.725 35.086L101.568 31.5426C103.487 30.4381 105.67 29.8718 107.886 29.9036C112.862 29.8805 115.153 32.766 115.153 36.0093Z" fill="#2AFFB2"/>
<path d="M110.328 56.0231C110.314 56.6249 110.123 57.2093 109.778 57.7031C109.432 58.1969 108.949 58.5782 108.387 58.7991C107.826 59.02 107.212 59.0708 106.622 58.9451C106.031 58.8193 105.491 58.5227 105.069 58.0923C104.648 57.6619 104.362 57.1169 104.249 56.5256C104.137 55.9342 104.201 55.3228 104.435 54.768C104.669 54.2131 105.062 53.7394 105.565 53.4063C106.068 53.0732 106.658 52.8954 107.261 52.8952C107.673 52.8836 108.083 52.957 108.465 53.111C108.847 53.265 109.193 53.4961 109.481 53.7899C109.769 54.0837 109.993 54.4338 110.138 54.8181C110.284 55.2025 110.349 55.6127 110.328 56.0231V56.0231Z" fill="#2AFFB2"/>
<path d="M106.162 31.1499L105.849 28.8415C106.208 28.8415 106.59 28.7492 107.007 28.7261L107.157 31.0345C106.787 31.0806 106.474 31.1037 106.162 31.1499Z" fill="#50567C"/>
<path d="M109.564 50.2751H105.213L104.056 49.2132L103.975 48.1629C103.9 46.8122 104.098 45.4602 104.557 44.1873C105.017 42.9145 105.727 41.7465 106.648 40.7529C108.129 39.0101 108.962 37.8444 108.962 36.7132C108.962 36.2169 108.962 35.0512 106.798 35.005C105.623 34.9951 104.472 35.3324 103.489 35.9746L101.66 35.4321L100.503 31.9002L100.978 30.5498C101.861 30.0075 102.815 29.5882 103.813 29.3033L104.461 31.5193C103.966 31.6701 103.483 31.8553 103.014 32.0734L103.454 33.3776C104.529 32.9331 105.681 32.7018 106.845 32.6966C109.645 32.7543 111.3 34.2548 111.3 36.7132C111.3 38.7446 110.027 40.4182 108.488 42.2303C107.76 42.9988 107.195 43.9061 106.827 44.8978C106.459 45.8895 106.296 46.9452 106.347 48.0013H108.418C108.46 45.8138 109.323 43.7215 110.837 42.138C112.503 40.2336 114.054 38.4676 114.054 36.0207C114.077 34.9439 113.721 33.8929 113.049 33.0498C112.377 32.2067 111.431 31.6245 110.374 31.4039L110.918 29.084C112.48 29.4404 113.87 30.3247 114.853 31.5869C115.836 32.8491 116.351 34.4115 116.31 36.0092C116.31 39.3217 114.32 41.5955 112.55 43.6154C111.943 44.2207 111.465 44.9412 111.143 45.7342C110.821 46.5272 110.662 47.3767 110.675 48.2322V49.0632L109.564 50.2751Z" fill="#50567C"/>
<path d="M107.261 60.305C106.699 60.3131 106.141 60.2073 105.621 59.994C105.101 59.7806 104.629 59.4642 104.236 59.0638C103.842 58.6634 103.534 58.1875 103.33 57.6648C103.126 57.1421 103.03 56.5835 103.049 56.0229C103.043 55.4474 103.145 54.8759 103.35 54.3378L105.514 55.1804C105.41 55.4489 105.358 55.735 105.363 56.0229C105.377 56.3968 105.501 56.7584 105.719 57.0626C105.938 57.3668 106.241 57.6 106.592 57.7333C106.942 57.8665 107.324 57.8938 107.69 57.8117C108.056 57.7297 108.39 57.5419 108.65 57.2719C108.909 57.0018 109.083 56.6615 109.15 56.2933C109.217 55.9252 109.174 55.5455 109.026 55.2018C108.878 54.858 108.631 54.5654 108.317 54.3604C108.004 54.1555 107.636 54.0472 107.261 54.0493C106.905 54.0415 106.553 54.1292 106.243 54.3032L105.086 52.3064C105.748 51.93 106.499 51.7349 107.261 51.7409C108.4 51.7409 109.492 52.192 110.297 52.995C111.102 53.7981 111.554 54.8873 111.554 56.0229C111.554 57.1586 111.102 58.2478 110.297 59.0508C109.492 59.8539 108.4 60.305 107.261 60.305V60.305Z" fill="#50567C"/>
<path d="M302.075 133.744H304.389V136.872H302.075V133.744Z" fill="#50567C"/>
<path d="M291.973 133.744H294.287V136.872H291.973V133.744Z" fill="#50567C"/>
<path d="M281.871 133.744H284.185V136.872H281.871V133.744Z" fill="#50567C"/>
<path d="M271.78 133.744H274.094V136.872H271.78V133.744Z" fill="#50567C"/>
<path d="M277.983 204.658H280.297V222.421H277.983V204.658Z" fill="#50567C"/>
<path d="M286.499 216.234H288.814V222.421H286.499V216.234Z" fill="#50567C"/>
<path d="M270.23 211.006H272.544V222.421H270.23V211.006Z" fill="#50567C"/>
<path d="M261.678 200.944H263.992V224.421H261.678V200.944Z" fill="#50567C"/>
<path d="M253.925 214.056H256.239V224.421H253.925V214.056Z" fill="#50567C"/>
<path d="M98.3772 121.108H128.417V123.417H98.3772V121.108Z" fill="#50567C"/>
<path d="M117.147 113.248H128.417V115.556H117.147V113.248Z" fill="#50567C"/>
<path d="M120.121 128.276H128.417V130.584H120.121V128.276Z" fill="#50567C"/>
<path d="M98.3656 128.276H113.386V130.584H98.3656V128.276Z" fill="#50567C"/>
<path d="M98.3772 136.159H128.417V138.468H98.3772V136.159Z" fill="#50567C"/>
<path d="M106.072 143.315H128.417V145.624H106.072V143.315Z" fill="#50567C"/>
</svg>
