<svg width="120" height="106" viewBox="0 0 120 106" fill="none" xmlns="http://www.w3.org/2000/svg">
<path d="M47.9219 38.7147V4.78613H116.203V79.7861H47.9219V60.1433" stroke="white" stroke-width="1.5" stroke-linejoin="round"/>
<path d="M23.6643 38.7151C24.755 38.7039 25.8324 38.4759 26.833 38.0445C27.8337 37.6131 28.7374 36.9871 29.4909 36.2033C30.2444 35.4196 30.8325 34.4939 31.2205 33.4808C31.6085 32.4677 31.7886 31.3877 31.7502 30.3044V27.483C31.7502 25.3518 30.8983 23.3079 29.3819 21.8009C27.8655 20.2939 25.8088 19.4473 23.6643 19.4473C21.5197 19.4473 19.463 20.2939 17.9466 21.8009C16.4302 23.3079 15.5783 25.3518 15.5783 27.483V30.3044C15.5399 31.3877 15.72 32.4677 16.108 33.4808C16.496 34.4939 17.0841 35.4196 17.8376 36.2033C18.5911 36.9871 19.4948 37.6131 20.4955 38.0445C21.4961 38.4759 22.5735 38.7039 23.6643 38.7151V38.7151Z" stroke="white" stroke-width="1.5" stroke-miterlimit="10"/>
<path d="M35.3438 103.001V54.7866L47.9219 53.0008C53.1688 52.0008 56.9062 47.6437 56.9062 44.0723H19.1719C10.6367 44.0723 4.79688 46.7687 4.79688 54.7866V70.858C4.83368 72.7409 5.60274 74.5366 6.94277 75.8683C8.28279 77.2 10.0897 77.9643 11.9844 78.0008" stroke="white" stroke-width="1.5" stroke-miterlimit="10"/>
<path d="M24.5625 74.4287V103" stroke="white" stroke-width="2" stroke-miterlimit="10"/>
<path d="M13.7812 54.7861V103" stroke="white" stroke-width="2" stroke-miterlimit="10"/>
<path d="M53.3125 17.2864V10.1436H60.5" stroke="white" stroke-width="1.5" stroke-miterlimit="10"/>
<path d="M110.812 17.2864V10.1436H103.625" stroke="white" stroke-width="1.5" stroke-miterlimit="10"/>
<path d="M53.3125 67.2861V74.429H60.5" stroke="white" stroke-width="1.5" stroke-miterlimit="10"/>
<path d="M110.812 67.2861V74.429H103.625" stroke="white" stroke-width="1.5" stroke-miterlimit="10"/>
<path d="M81.6854 45.2863C82.8805 45.2865 84.0637 45.0498 85.1656 44.5899C86.2675 44.1301 87.266 43.4564 88.1027 42.6083C88.9393 41.7602 89.5973 40.7548 90.0381 39.6508C90.4789 38.5468 90.6937 37.3666 90.6698 36.1791V33.1434C90.6698 30.7754 89.7232 28.5044 88.0383 26.83C86.3534 25.1555 84.0682 24.2148 81.6854 24.2148C79.3026 24.2148 77.0174 25.1555 75.3325 26.83C73.6476 28.5044 72.701 30.7754 72.701 33.1434V36.1791C72.6771 37.3666 72.8918 38.5468 73.3326 39.6508C73.7734 40.7548 74.4314 41.7602 75.2681 42.6083C76.1048 43.4564 77.1033 44.1301 78.2052 44.5899C79.3071 45.0498 80.4903 45.2865 81.6854 45.2863V45.2863Z" stroke="white" stroke-width="1.5" stroke-miterlimit="10"/>
<path d="M99.6538 61.3761V52.4475C99.6538 49.8404 89.771 45.3047 81.6851 45.3047C73.5991 45.3047 63.7163 49.8404 63.7163 52.4475V61.3761" stroke="white" stroke-width="1.5" stroke-linecap="round" stroke-linejoin="round"/>
</svg>
