<svg width="80" height="80" viewBox="0 0 80 80" fill="none" xmlns="http://www.w3.org/2000/svg">
<path d="M47.0001 61.6496C45.7484 62.0943 44.5691 62.7211 43.5001 63.5096C43.2177 63.6666 42.9775 63.8896 42.8001 64.1596C42.5793 64.3994 42.4243 64.6922 42.3501 65.0096C42.2655 65.3376 42.2655 65.6817 42.3501 66.0096C42.3575 66.3422 42.4618 66.6654 42.6501 66.9396C42.9747 67.5053 43.5107 67.919 44.1401 68.0896L44.8101 68.1796C45.2304 68.1679 45.6404 68.0473 46.0001 67.8296C46.7592 67.2471 47.5892 66.7632 48.4701 66.3896L47.8701 66.6396L48.3001 66.4696C48.9146 66.2697 49.441 65.8634 49.7901 65.3196C49.9754 65.0439 50.0794 64.7216 50.0901 64.3896C50.1799 64.0623 50.1799 63.7169 50.0901 63.3896C49.903 62.7568 49.4759 62.2221 48.9001 61.8996L48.3001 61.6496C47.8649 61.5295 47.4053 61.5295 46.9701 61.6496H47.0001Z" fill="#2AFFB2"/>
<path d="M37.7502 16.8097C37.6402 17.5697 37.0502 17.8597 36.4102 18.2497C35.2602 18.9397 34.0702 19.5697 32.8602 20.1697C30.647 21.2821 28.354 22.2281 26.0002 22.9997C24.8702 23.3697 23.7202 23.6997 22.5602 23.9997C21.3136 24.1517 20.1063 24.535 19.0002 25.1297C18.4788 25.5515 18.0717 26.0978 17.8166 26.7181C17.5615 27.3385 17.4664 28.013 17.5402 28.6797C17.5402 30.0897 17.5402 31.4997 17.5402 32.9097L17.4102 41.1297C17.2605 43.7952 17.2872 46.4677 17.4902 49.1297C18.1002 54.1997 21.7502 57.9497 25.4302 61.1297C29.0499 64.327 33.0867 67.0182 37.4302 69.1297C38.6302 69.6997 39.8602 70.4097 41.2202 70.1297C42.5802 69.8497 43.5402 68.7097 44.5002 67.6897C45.0136 66.9954 45.651 66.4021 46.3802 65.9397C47.5602 65.3997 48.8102 65.1297 49.9502 64.4697C51.9586 63.1951 53.7539 61.6124 55.2702 59.7797C56.9136 58.021 58.4025 56.124 59.7202 54.1097C62.5302 49.4997 61.9902 44.1097 61.9702 38.9097C61.9702 35.7697 61.9702 32.6397 61.9702 29.5097C62.0984 28.13 61.7451 26.7484 60.9702 25.5997C59.9702 24.3897 58.6102 24.1897 57.1902 23.8497C52.0923 22.6383 47.3166 20.3391 43.1902 17.1097C42.7115 16.6582 42.0783 16.4068 41.4202 16.4068C40.7622 16.4068 40.129 16.6582 39.6502 17.1097C39.1873 17.5825 38.928 18.2179 38.928 18.8797C38.928 19.5414 39.1873 20.1768 39.6502 20.6497C43.0835 23.3746 46.9104 25.5629 51.0002 27.1397C51.9202 27.4997 52.8502 27.833 53.7902 28.1397C54.8361 28.5698 55.9366 28.8525 57.0602 28.9797C57.4302 28.9797 57.5702 29.3297 57.1402 28.7097C56.7102 28.0897 56.9702 28.4897 56.9302 28.7097C56.8903 29.1521 56.8903 29.5972 56.9302 30.0397V33.6997V41.1197C57.0406 43.3471 56.9904 45.5795 56.7802 47.7997C56.1902 51.7197 53.0002 54.9997 50.3002 57.7397C48.8277 59.2697 47.0104 60.4252 45.0002 61.1097C43.8715 61.5074 42.8463 62.1532 42.0002 62.9997C41.2302 63.7397 40.4902 64.9997 39.5602 65.5297L40.8202 65.1797C40.1902 65.2297 38.9502 64.3297 38.3502 64.0197C37.3502 63.4897 36.3502 62.9197 35.3502 62.3297C33.5139 61.2078 31.7565 59.9615 30.0902 58.5997C27.0902 56.1497 23.0902 52.9397 22.4402 48.8797C22.2269 46.4753 22.2035 44.0578 22.3702 41.6497L22.4602 33.9297V30.1897C22.4602 30.0097 22.4602 28.1897 22.4602 28.1897L22.0902 28.7297C21.5702 29.2297 21.5602 29.3797 22.0902 29.1897C22.4678 29.165 22.8391 29.0806 23.1902 28.9397C25.4415 28.4185 27.6563 27.7504 29.8202 26.9397C32.4013 25.9747 34.9108 24.8285 37.3302 23.5097C39.4902 22.3397 42.1402 20.8797 42.5302 18.1997C42.6873 17.5612 42.5946 16.8869 42.2712 16.3145C41.9478 15.7421 41.4181 15.3147 40.7902 15.1197C40.1499 14.9475 39.4674 15.0346 38.8909 15.3622C38.3143 15.6898 37.8901 16.2314 37.7102 16.8697L37.7502 16.8097Z" fill="#2AFFB2"/>
<path d="M40 14.46C36.51 18.18 23.6 24.38 18 24.38V47.93C18 59 38.76 71.11 40 71.46C41.22 71.11 62 59 62 47.93V24.38C56.38 24.38 43.47 18.18 40 14.46Z" stroke="#50567C" stroke-width="2" stroke-miterlimit="10"/>
<path d="M52.4801 55.5904C55.0001 52.8404 57.0001 49.7704 57.0001 46.8004V28.6004C52.6801 28.6004 42.7001 23.8204 40.0001 20.9404C38.4613 22.363 36.7271 23.5584 34.8501 24.4904" stroke="#50567C" stroke-width="2" stroke-miterlimit="10"/>
<path d="M29.35 27C27.3363 27.8805 25.1905 28.4212 23 28.6V46.8C23 55.35 39 64.71 40 65C42.5342 63.6885 44.9355 62.1346 47.17 60.36" stroke="#50567C" stroke-width="2" stroke-miterlimit="10"/>
<path d="M48.1605 34.3799L38.0605 44.4799L33.8505 40.2699L30.4805 43.6399L38.0605 51.2099L51.5305 37.7399L48.1605 34.3799Z" stroke="#50567C" stroke-width="2" stroke-miterlimit="10"/>
</svg>
