<svg width="80" height="80" viewBox="0 0 80 80" fill="none" xmlns="http://www.w3.org/2000/svg">
<path d="M21.6665 44.5708C21.7739 42.5038 22.1309 40.4573 22.7298 38.4756" stroke="#50567C" stroke-width="2" stroke-miterlimit="10"/>
<path d="M23.1697 54.3238C22.4474 52.36 21.9832 50.3112 21.7886 48.2285" stroke="#50567C" stroke-width="2" stroke-miterlimit="10"/>
<path d="M24.209 34.819C26.6704 29.7968 30.7491 25.7427 35.7929 23.305C40.8367 20.8673 46.5543 20.1866 52.0316 21.372C57.509 22.5573 62.4297 25.5401 66.007 29.8435C69.5844 34.1469 71.6118 39.5224 71.7651 45.1105C71.9185 50.6986 70.1889 56.1767 66.8528 60.6688C63.5168 65.1609 58.7671 68.4077 53.363 69.8901C47.9588 71.3724 42.2125 71.0048 37.0425 68.8458C31.8726 66.6869 27.5777 62.8614 24.8445 57.981" stroke="#50567C" stroke-width="2" stroke-miterlimit="10"/>
<path d="M33.8154 32.3805C36.4483 29.8596 39.7653 28.1651 43.3549 27.5073C46.9445 26.8494 50.6488 27.2572 54.0081 28.6799C57.3675 30.1027 60.2342 32.4779 62.2525 35.5108C64.2709 38.5437 65.3521 42.1009 65.362 45.7411C65.3719 49.3813 64.3102 52.9443 62.3084 55.9881C60.3066 59.0319 57.4529 61.4226 54.1014 62.8636C50.7498 64.3046 47.0478 64.7324 43.4547 64.0941C39.8615 63.4557 36.5354 61.7793 33.8888 59.2727" stroke="#50567C" stroke-width="2" stroke-miterlimit="10"/>
<path d="M46.1109 59.1999C53.5361 59.1999 59.5554 53.1963 59.5554 45.7904C59.5554 38.3845 53.5361 32.3809 46.1109 32.3809C38.6858 32.3809 32.6665 38.3845 32.6665 45.7904C32.6665 53.1963 38.6858 59.1999 46.1109 59.1999Z" fill="#2AFFB2"/>
<path d="M43.6665 17.7519V14.0947H49.7776V17.7519" stroke="#50567C" stroke-width="2" stroke-miterlimit="10"/>
<path d="M53.4444 9.21875H40V14.0949H53.4444V9.21875Z" stroke="#50567C" stroke-width="2" stroke-miterlimit="10"/>
<path d="M13.1113 34.8184H30.2224" stroke="#50567C" stroke-width="2" stroke-miterlimit="10"/>
<path d="M7 44.5713H26.5556" stroke="#50567C" stroke-width="2" stroke-miterlimit="10"/>
<path d="M11.8887 54.3232H28.9998" stroke="#50567C" stroke-width="2" stroke-miterlimit="10"/>
<path d="M49.521 42.8519L57.111 34.8184" stroke="#50567C" stroke-width="2" stroke-miterlimit="10"/>
<path d="M46.7224 49.1423C48.5787 49.1423 50.0836 47.6413 50.0836 45.7899C50.0836 43.9384 48.5787 42.4375 46.7224 42.4375C44.8661 42.4375 43.3613 43.9384 43.3613 45.7899C43.3613 47.6413 44.8661 49.1423 46.7224 49.1423Z" stroke="#50567C" stroke-width="2" stroke-miterlimit="10"/>
<path d="M29.2932 21.5674L24.7954 26.0535" stroke="#50567C" stroke-width="2" stroke-miterlimit="10"/>
<path d="M27.0444 23.8105L30.2222 26.9801" stroke="#50567C" stroke-width="2" stroke-miterlimit="10"/>
</svg>
