<svg width="120" height="106" viewBox="0 0 120 106" fill="none" xmlns="http://www.w3.org/2000/svg">
<path d="M51.5258 93.5213L57.2487 87.7934C74.6381 89.072 81.6177 77.889 83.3498 75.8604H33.9326L51.5258 93.5213Z" fill="#4441D4"/>
<path d="M51.5259 93.5213L57.2488 87.7934C74.6382 89.072 81.6177 77.889 83.3499 75.8604" stroke="white" stroke-width="1.5" stroke-miterlimit="10" stroke-linecap="round"/>
<path d="M87.3237 39.9936L86.9501 39.6015C86.0394 38.7852 85.4819 37.6445 85.3963 36.4219C85.3107 35.1994 85.7036 33.9915 86.4916 33.0553L93.539 26.3728C96.0863 23.9521 99.7374 23.6112 101.639 25.6227L102.013 26.0148C103.915 28.0434 103.389 31.6745 100.841 34.1123L93.7768 40.7778C92.812 41.5184 91.5969 41.8509 90.3912 41.7044C89.1855 41.5579 88.0846 40.9439 87.3237 39.9936V39.9936Z" fill="#4441D4" stroke="white" stroke-width="1.5" stroke-miterlimit="10"/>
<path d="M86.1521 75.8606H55.5847C53.7832 75.8606 52.0554 75.1422 50.7815 73.8634C49.5077 72.5846 48.792 70.8502 48.792 69.0417C48.792 54.7731 48.792 21.94 48.792 7.67145C48.792 5.86296 49.5077 4.12855 50.7815 2.84975C52.0554 1.57096 53.7832 0.852539 55.5847 0.852539H86.1521C87.9536 0.852539 89.6814 1.57096 90.9553 2.84975C92.2292 4.12855 92.9448 5.86296 92.9448 7.67145C92.9448 21.94 92.9448 54.7731 92.9448 69.0417C92.9448 70.8502 92.2292 72.5846 90.9553 73.8634C89.6814 75.1422 87.9536 75.8606 86.1521 75.8606Z" fill="#4441D4" stroke="white" stroke-width="1.5" stroke-miterlimit="10"/>
<path d="M86.1521 75.8608H55.5847C53.7832 75.8608 52.0554 75.1424 50.7815 73.8636C49.5077 72.5848 48.792 70.8504 48.792 69.0419V63.9277H92.9448V69.0419C92.9448 70.8504 92.2292 72.5848 90.9553 73.8636C89.6814 75.1424 87.9536 75.8608 86.1521 75.8608Z" fill="#4441D4" stroke="white" stroke-width="1.5" stroke-miterlimit="10"/>
<path d="M29.0762 70.9844C29.0762 70.9844 31.2838 68.6659 32.982 66.9442C34.2229 65.8538 34.9856 64.3164 35.1047 62.6653C35.1047 59.8184 34.9349 51.2607 37.3463 44.9702C39.503 39.3446 40.1483 36.2932 43.6296 25.0931C43.8892 24.4982 44.2983 23.9813 44.8167 23.5928C45.3351 23.2042 45.9451 22.9575 46.587 22.8768C47.2289 22.796 47.8808 22.884 48.4786 23.132C49.0765 23.3801 49.6 23.7797 49.9978 24.2919C51.9556 26.8205 52.9331 29.9763 52.7489 33.1735C52.378 38.3965 51.351 43.5516 49.6922 48.5161C53.8697 53.8178 57.7246 64.9667 53.0885 78.2465L44.5976 86.7702L29.0762 70.9844Z" fill="#4441D4"/>
<path d="M91.9939 74.3433L91.6203 74.0193C89.7013 72.3146 88.9881 70.0132 90.041 68.8029L94.4902 63.6887C95.2878 62.7806 96.4119 62.2275 97.6155 62.1508C98.819 62.0741 100.004 62.4801 100.909 63.2796L101.283 63.6035C102.204 64.3791 102.78 65.49 102.885 66.6919C102.99 67.8938 102.615 69.0885 101.843 70.0132L97.4111 75.1274C96.3242 76.3548 93.9128 75.9968 91.9939 74.3433Z" fill="#4441D4" stroke="white" stroke-width="1.5" stroke-miterlimit="10"/>
<path d="M26.0615 67.9529L16.8481 77.1953L44.6729 105.147L53.8863 95.9044L26.0615 67.9529Z" fill="#4441D4" stroke="white" stroke-width="1.5" stroke-linejoin="round"/>
<path d="M92.028 62.3765L91.6544 62.0526C89.7015 60.3478 88.9712 57.9783 90.0411 56.7338L94.5583 51.5173C95.376 50.6037 96.5203 50.0515 97.7418 49.9813C98.9634 49.911 100.163 50.3283 101.079 51.1423L101.453 51.4662C102.379 52.2569 102.957 53.3823 103.062 54.5982C103.167 55.8141 102.79 57.0224 102.013 57.9612L97.5131 63.1947C96.4433 64.4392 93.9809 64.0641 92.028 62.3765Z" fill="#4441D4" stroke="white" stroke-width="1.5" stroke-miterlimit="10"/>
<path d="M92.028 50.7668L91.6544 50.4429C89.7015 48.7382 88.9712 46.3686 90.0411 45.1242L94.5583 39.9077C95.3736 38.9916 96.5167 38.4363 97.7383 38.3628C98.9599 38.2894 100.161 38.7038 101.079 39.5156L101.453 39.8395C102.389 40.6312 102.974 41.7635 103.079 42.9877C103.184 44.2119 102.801 45.4279 102.013 46.3686L97.5131 51.5851C96.4433 52.8466 93.9809 52.4545 92.028 50.7668Z" fill="#4441D4" stroke="white" stroke-width="1.5" stroke-miterlimit="10"/>
<path d="M69.1875 69.042H74.2821" stroke="white" stroke-width="1.5" stroke-linecap="round" stroke-linejoin="round"/>
<path d="M53.1391 78.2465C57.7752 64.9667 53.9203 53.8178 49.7428 48.5161C51.4016 43.5516 52.4286 38.3965 52.7995 33.1735C52.9837 29.9763 52.0062 26.8205 50.0484 24.2919C49.6506 23.7797 49.1272 23.3801 48.5293 23.132C47.9314 22.884 47.2796 22.796 46.6377 22.8768C45.9957 22.9575 45.3857 23.2042 44.8673 23.5928C44.3489 23.9813 43.9399 24.4982 43.6802 25.0931C40.199 36.2932 39.5537 39.3446 37.397 44.9702C34.9855 51.2607 35.1554 59.8184 35.1554 62.6653C35.0231 64.3241 34.2415 65.8626 32.9817 66.9442C31.2835 68.6489 29.0249 70.9844 29.0249 70.9844" stroke="white" stroke-width="1.5" stroke-miterlimit="10" stroke-linecap="round"/>
<path d="M72.5835 22.8945V46.9994" stroke="white" stroke-width="1.5" stroke-miterlimit="10" stroke-linecap="round"/>
<path d="M84.5899 34.9473H60.5605" stroke="white" stroke-width="1.5" stroke-miterlimit="10" stroke-linecap="round"/>
</svg>
