<svg width="77" height="80" viewBox="0 0 77 80" fill="none" xmlns="http://www.w3.org/2000/svg">
<path d="M26.5245 53.3831L21.9565 57.9795L33.3683 69.4623L37.9363 64.8659L26.5245 53.3831Z" fill="#2AFFB2" stroke="#50567C" stroke-width="2" stroke-miterlimit="10"/>
<path d="M50.4846 53.3756L39.0728 64.8584L43.6407 69.4548L55.0525 57.972L50.4846 53.3756Z" fill="#2AFFB2" stroke="#50567C" stroke-width="2" stroke-miterlimit="10"/>
<path d="M57.3609 37.3052V22.7542C57.3609 14.3361 48.8921 5.14844 38.5058 5.14844C28.1195 5.14844 19.6963 14.3361 19.6963 22.7542V35.0083" stroke="#50567C" stroke-width="2" stroke-miterlimit="10"/>
<path d="M28.8047 48.9619V55.6804" stroke="#50567C" stroke-width="2" stroke-miterlimit="10"/>
<path d="M48.2075 49.0996V55.6803" stroke="#50567C" stroke-width="2" stroke-miterlimit="10"/>
<path d="M50.4846 53.3756L39.0728 64.8584L43.6407 69.4548L55.0525 57.972L50.4846 53.3756Z" stroke="#50567C" stroke-width="2" stroke-miterlimit="10"/>
<path d="M26.5245 53.3831L21.9565 57.9795L33.3683 69.4623L37.9363 64.8659L26.5245 53.3831Z" stroke="#50567C" stroke-width="2" stroke-miterlimit="10"/>
<path d="M19.6396 39.6025H18.8065C17.5139 39.6025 16.2743 39.0859 15.3603 38.1662C14.4464 37.2466 13.9329 35.9992 13.9329 34.6986V33.0678C13.9329 32.4159 14.0609 31.7703 14.3095 31.1683C14.5582 30.5662 14.9225 30.0196 15.3818 29.5596C15.841 29.0997 16.386 28.7356 16.9854 28.4882C17.5849 28.2408 18.227 28.115 18.8749 28.118H19.6396V39.6025Z" fill="#2AFFB2" stroke="#50567C" stroke-width="2" stroke-miterlimit="10"/>
<path d="M57.3608 28.1172H58.1484C59.453 28.1172 60.7043 28.6387 61.6268 29.567C62.5493 30.4952 63.0676 31.7542 63.0676 33.067V34.6978C63.0676 35.3438 62.9408 35.9833 62.6945 36.5798C62.4481 37.1763 62.0871 37.7179 61.6321 38.1736C61.1771 38.6292 60.6372 38.99 60.0432 39.2351C59.4493 39.4801 58.8131 39.6048 58.1712 39.6017H57.3608V28.1172Z" fill="#2AFFB2" stroke="#50567C" stroke-width="2" stroke-miterlimit="10"/>
<path d="M31.1099 14.3359C31.1099 22.1684 46.1985 32.1714 54.4277 32.7112" stroke="#50567C" stroke-width="2" stroke-miterlimit="10"/>
<path d="M52.7955 32.4814V36.1565C52.7955 42.7946 49.3715 49.6738 43.6647 53.0732L43.5049 53.1766C42.0273 54.0556 40.3422 54.5194 38.6256 54.5194C36.9091 54.5194 35.224 54.0556 33.7464 53.1766L33.4382 53.0158C30.6241 51.2077 28.3083 48.7152 26.7044 45.7685C25.1006 42.8219 24.2605 39.5161 24.2617 36.1565V28.1173C25.3004 24.6719 29.8543 20.0781 33.3925 20.0781" stroke="#50567C" stroke-width="2" stroke-miterlimit="10"/>
<path d="M42.5234 46.4923H51.6543C53.1524 46.4435 54.5759 45.8228 55.6358 44.7564C56.6957 43.6899 57.3125 42.2575 57.361 40.75V38.4531" stroke="#50567C" stroke-width="2" stroke-miterlimit="10"/>
<path d="M36.7825 48.79H40.2066C41.4673 48.79 42.4893 47.7617 42.4893 46.4931V45.3447C42.4893 44.0761 41.4673 43.0478 40.2066 43.0478H36.7825C35.5218 43.0478 34.4998 44.0761 34.4998 45.3447V46.4931C34.4998 47.7617 35.5218 48.79 36.7825 48.79Z" fill="#2AFFB2" stroke="#50567C" stroke-width="2" stroke-miterlimit="10"/>
<path d="M21.9792 57.9775L15.4621 59.4246C9.5841 60.7109 8.59112 64.8683 7.1416 71.759" stroke="#50567C" stroke-width="2" stroke-miterlimit="10"/>
<path d="M55.0786 57.9775L61.5615 59.4246C67.4166 60.7109 68.421 64.8683 69.9162 71.759" stroke="#50567C" stroke-width="2" stroke-miterlimit="10"/>
</svg>
