<svg width="80" height="80" viewBox="0 0 80 80" fill="none" xmlns="http://www.w3.org/2000/svg">
<path d="M54 24.0008H62.15C62.7765 23.9835 63.4002 24.0912 63.9846 24.3175C64.5691 24.5438 65.1026 24.8843 65.5541 25.319C66.0056 25.7537 66.366 26.274 66.6142 26.8495C66.8624 27.4249 66.9936 28.0441 67 28.6708V59.0008H14V28.6708C14 26.0008 15.66 24.0008 18.4 24.0008H28" stroke="#50567C" stroke-width="2" stroke-miterlimit="10"/>
<path d="M9 59H71V60.66C71 62.3415 70.332 63.9541 69.1431 65.1431C67.9541 66.332 66.3415 67 64.66 67H16C14.1435 67 12.363 66.2625 11.0503 64.9497C9.7375 63.637 9 61.8565 9 60V59Z" stroke="#50567C" stroke-width="2" stroke-miterlimit="10"/>
<path d="M36 63H47" stroke="#50567C" stroke-width="2" stroke-miterlimit="10"/>
<path d="M54 28H63V35.59" stroke="#50567C" stroke-width="2" stroke-miterlimit="10"/>
<path d="M18 56V28H28" stroke="#50567C" stroke-width="2" stroke-miterlimit="10"/>
<path d="M36 36.0004V25.4304C36 23.0004 38.42 21.0004 41 21.0004C43.58 21.0004 46 23.0004 46 25.4504V36.0004H51V25.6904C51 23.0383 49.9464 20.4947 48.0711 18.6194C46.1957 16.744 43.6522 15.6904 41 15.6904C38.3478 15.6904 35.8043 16.744 33.9289 18.6194C32.0536 20.4947 31 23.0383 31 25.6904V36.0004H36Z" stroke="#50567C" stroke-width="2" stroke-miterlimit="10"/>
<path d="M54 33H28C26.8954 33 26 33.8954 26 35V52C26 53.1046 26.8954 54 28 54H54C55.1046 54 56 53.1046 56 52V35C56 33.8954 55.1046 33 54 33Z" fill="#2AFFB2" stroke="#50567C" stroke-width="2" stroke-miterlimit="10"/>
<path d="M63.2202 41.5908V39.5908" stroke="#50567C" stroke-width="2" stroke-miterlimit="10"/>
<path d="M63.2202 55.5908V44.5908" stroke="#50567C" stroke-width="2" stroke-miterlimit="10"/>
<path d="M40.9998 38C40.3958 38.0036 39.8069 38.1894 39.3103 38.5331C38.8136 38.8769 38.4323 39.3626 38.2162 39.9266C38.0001 40.4906 37.9592 41.1068 38.0991 41.6944C38.2389 42.282 38.5528 42.8137 38.9998 43.22V46C38.9998 46.5304 39.2105 47.0391 39.5856 47.4142C39.9607 47.7893 40.4694 48 40.9998 48C41.5302 48 42.039 47.7893 42.414 47.4142C42.7891 47.0391 42.9998 46.5304 42.9998 46V43.22C43.4468 42.8137 43.7607 42.282 43.9006 41.6944C44.0404 41.1068 43.9996 40.4906 43.7835 39.9266C43.5674 39.3626 43.186 38.8769 42.6894 38.5331C42.1927 38.1894 41.6038 38.0036 40.9998 38V38Z" stroke="#50567C" stroke-width="2" stroke-miterlimit="10"/>
</svg>
