<svg width="400" height="400" viewBox="0 0 400 400" fill="none" xmlns="http://www.w3.org/2000/svg">
<path d="M183.93 56.3745H145.652V58.5605H183.93V56.3745Z" fill="#50567C"/>
<path d="M160.008 47.8711H145.652V50.0571H160.008V47.8711Z" fill="#50567C"/>
<path d="M156.224 64.1055H145.652V66.2914H156.224V64.1055Z" fill="#50567C"/>
<path d="M183.93 64.1055H164.791V66.2914H183.93V64.1055Z" fill="#50567C"/>
<path d="M183.93 72.6235H145.652V74.8095H183.93V72.6235Z" fill="#50567C"/>
<path d="M174.131 80.3545H145.652V82.5405H174.131V80.3545Z" fill="#50567C"/>
<path d="M81.5631 65.2056H77.1885V67.3915H81.5631V65.2056Z" fill="#8185A0"/>
<path d="M126.44 67.3627H118.281V65.1768H126.44V67.3627ZM111.479 67.3627H103.32V65.1768H111.479V67.3627ZM96.5245 67.3627H88.3657V65.1768H96.5245V67.3627Z" fill="#8185A0"/>
<path d="M137.61 65.2056H133.235V67.3915H137.61V65.2056Z" fill="#8185A0"/>
<path d="M61.4324 126.543H59.2451V130.915H61.4324V126.543Z" fill="#8185A0"/>
<path d="M61.4324 119.643H59.2451V111.366H61.4324V119.643ZM61.4324 104.465H59.2451V96.1807H61.4324V104.465Z" fill="#8185A0"/>
<path d="M61.4324 84.9155H59.2451V89.2874H61.4324V84.9155Z" fill="#8185A0"/>
<path d="M107.869 146.042H103.495V148.228H107.869V146.042Z" fill="#8185A0"/>
<path d="M96.6413 146.042H88.4097V148.228H96.6413V146.042Z" fill="#8185A0"/>
<path d="M81.5485 146.042H77.1738V148.228H81.5485V146.042Z" fill="#8185A0"/>
<path d="M170.719 87.4517H168.531V91.8236H170.719V87.4517Z" fill="#8185A0"/>
<path d="M170.719 96.064H168.531V101.15H170.719V96.064Z" fill="#8185A0"/>
<path d="M170.719 105.384H168.531V109.756H170.719V105.384Z" fill="#8185A0"/>
<path d="M335.396 93.4556H331.021V95.6415H335.396V93.4556Z" fill="#8185A0"/>
<path d="M345.362 95.6415H342.526V93.4556H345.362C347.118 93.454 348.855 93.0944 350.466 92.399L351.327 94.4028C349.445 95.2205 347.414 95.6422 345.362 95.6415V95.6415ZM357.371 89.8123L355.657 88.4497C357.323 86.3758 358.338 83.8558 358.574 81.2069L360.761 81.4037C360.478 84.4709 359.299 87.3873 357.371 89.7904V89.8123ZM360.798 74.1827H358.61V65.6138H360.798V74.1827ZM360.798 58.5167H358.61V49.9477H360.798V58.5167ZM360.798 42.8434H358.61V35.6662C358.61 35.2378 358.589 34.8098 358.545 34.3837L360.732 34.1724C360.782 34.6688 360.806 35.1673 360.805 35.6662L360.798 42.8434ZM170.719 33.6114H168.531V33.1159C168.555 30.1222 169.729 27.2523 171.812 25.1007L173.416 26.558C171.709 28.3176 170.743 30.6651 170.719 33.1159V33.6114ZM356.365 28.2412C354.897 26.0262 352.81 24.2906 350.364 23.2499L351.217 21.2388C354.061 22.4552 356.483 24.4829 358.18 27.0681L356.365 28.2412ZM178.914 23.0678L178.185 21.0057C180.121 20.3324 182.157 19.9924 184.207 20.0001H187.007V22.1861H184.207C182.406 22.1808 180.616 22.4789 178.914 23.0678V23.0678ZM343.817 22.1861H335.264V20.0001H343.817V22.1861ZM328.163 22.1861H319.581V20.0001H328.163V22.1861ZM312.487 22.1861H303.898V20.0001H312.458L312.487 22.1861ZM296.811 22.1861H288.222V20.0001H296.811V22.1861ZM281.091 22.1861H272.539V20.0001H281.091V22.1861ZM265.408 22.1861H256.856V20.0001H265.408V22.1861ZM249.732 22.1861H241.173V20.0001H249.732V22.1861ZM234.049 22.1861H225.497V20.0001H234.049V22.1861ZM218.366 22.1861H209.813V20.0001H218.366V22.1861ZM202.683 22.1861H194.13V20.0001H202.683V22.1861Z" fill="#8185A0"/>
<path d="M170.719 40.7812H168.531V45.1532H170.719V40.7812Z" fill="#8185A0"/>
<path d="M376.073 198.52C376.736 195.248 377.203 193.303 377.203 193.303H384.436C375.745 213.093 378.902 268.711 368.432 289.069H302.002C302.782 287.491 303.449 285.86 304 284.188C304.613 282.359 305.167 280.369 305.655 278.256H365.778C369.197 266.146 370.67 238.37 372.216 223.411C373.251 213.363 374.957 204.058 376.073 198.52Z" fill="#B1B9C5"/>
<path d="M376.073 198.52C374.957 204.05 373.251 213.355 372.216 223.411C370.67 238.37 369.197 266.146 365.778 278.256H305.655C306.74 273.42 307.562 268.528 308.12 263.603C311.102 239.259 311.102 208.116 317.999 193.303H377.203C377.203 193.303 376.736 195.256 376.073 198.52Z" fill="#E2E2E9"/>
<path d="M373.681 367.407H360.01L358.02 367.072L351.1 365.92L325.049 361.578L320.325 367.407H314.441L309.716 361.578L274.755 367.407H272.51H261.084L270.577 364.244L308.112 351.741H308.185H326.58H326.653L351.006 359.851L357.961 362.168L373.681 367.407Z" fill="#E2E2E9"/>
<path d="M368.643 371.823C369.641 371.823 370.616 372.118 371.446 372.673C372.276 373.227 372.923 374.014 373.304 374.935C373.686 375.857 373.786 376.871 373.592 377.849C373.397 378.827 372.916 379.725 372.211 380.43C371.505 381.136 370.606 381.616 369.627 381.81C368.649 382.005 367.634 381.905 366.712 381.524C365.79 381.142 365.002 380.496 364.448 379.666C363.894 378.837 363.598 377.862 363.598 376.865C363.597 376.203 363.727 375.547 363.98 374.934C364.233 374.322 364.605 373.766 365.073 373.297C365.542 372.829 366.099 372.458 366.711 372.205C367.324 371.952 367.98 371.822 368.643 371.823V371.823Z" fill="#E2E2E9"/>
<path d="M358.02 367.072L357.961 367.407V371.822L351.101 371.043V365.92L358.02 367.072Z" fill="#8891AA"/>
<path d="M357.961 371.823V381.907H351.101V371.043L357.961 371.823Z" fill="#B1B8C5"/>
<path d="M357.962 295.154V362.168L351.006 359.851L351.101 359.574V300.225V299.992H353.31V295.154H357.962Z" fill="#B1B8C5"/>
<path d="M357.961 289.077V295.154H353.31H351.101V289.077H357.961Z" fill="#8891AA"/>
<path d="M350.225 158.299L354.629 193.31H347.601L345.632 159.69L332.136 137.284L337.692 139.987L350.225 158.299Z" fill="#B1B9C5"/>
<path d="M353.31 295.154V299.992H351.101H340.908V297.5V295.154H351.101H353.31Z" fill="#B1B3C5"/>
<path d="M351.101 371.043V381.907H317.379C318.377 381.908 319.354 381.614 320.184 381.061C321.015 380.508 321.663 379.721 322.046 378.799C322.429 377.878 322.53 376.864 322.336 375.886C322.142 374.907 321.662 374.008 320.957 373.302C320.251 372.596 319.352 372.115 318.373 371.92C317.395 371.725 316.38 371.824 315.457 372.206C314.535 372.587 313.747 373.233 313.192 374.063C312.637 374.892 312.341 375.867 312.341 376.865C312.341 378.201 312.872 379.482 313.816 380.428C314.761 381.373 316.042 381.905 317.379 381.907H272.51V367.407H274.755L309.716 361.578L314.441 367.407H320.325L325.049 361.578L351.101 365.95V371.043Z" fill="#E7E7E7"/>
<path d="M351.101 300.225V359.574L351.006 359.851L326.654 351.741H326.581V321.822H321.769V302.579V297.5H340.908V299.992H351.101V300.225Z" fill="#E7E7E7"/>
<path d="M351.101 289.077V295.154H340.908V297.5H321.769V289.077H351.101Z" fill="#E7E7E7"/>
<path d="M293.698 188.319L273.844 207.621L259.801 212.896L234.363 212.051L236.9 198.52L238.672 197.638L258.263 195.037L264.409 196.378L262.871 193.507L276.855 158.291L283.177 146.217L292.203 139.98L306.96 137.619L323.059 132.847L332.137 137.313L345.662 159.69L347.63 193.31H318.028C311.131 208.124 311.131 239.266 308.149 263.611L293.727 250.378L291.824 248.957L300.785 209.086L293.698 188.319Z" fill="#E2E6E9"/>
<path d="M316.519 75.9024L331.021 94.5486L320.763 123.279L308.492 125.356L299.677 121.21L303.045 111.636L301.952 104.903L296.308 105.42L293.72 113.443H290.497L289.506 96.0496L292.203 93.7908L285.816 94.126L282.142 92.7561L300.975 74.1172L316.519 75.9024Z" fill="#586689"/>
<path d="M326.581 321.822V351.741H308.185V346.443H321.768V321.822H326.581Z" fill="#B1B3C5"/>
<path d="M295.878 137.473L300.019 135.032L304.08 132.635L321.79 127.607L323.037 132.846L306.96 137.626L292.203 139.987L295.623 137.626L295.878 137.473Z" fill="#E2E2E9"/>
<path d="M281.609 121.72V115.322H276.855L278.474 108.721L284.424 107.497L284.795 105.063V101.42L277.308 100.691L277.738 95.3208L283.301 97.5723L286.363 97.9439L289.506 96.0422L290.497 113.435H293.72L296.308 105.42L301.951 104.903L303.045 111.635L299.677 121.21L308.477 125.356L320.748 123.279L321.776 127.607L304.102 132.635L300.041 135.032L302.6 126.106L298.576 128.351L289.134 131.047L285.109 127.024L281.609 121.72ZM299.961 110.863V108.721H297.708L299.961 110.863Z" fill="white"/>
<path d="M321.768 321.822V346.443H308.185V321.822H312.997H317.379H321.768Z" fill="#E2E2E9"/>
<path d="M321.769 302.579H317.379V321.822H321.769V302.579Z" fill="#B1B3C5"/>
<path d="M321.768 297.5V302.579H317.379V292.662H312.997V289.077H321.768V297.5Z" fill="#B1B3C5"/>
<path d="M317.379 371.823C318.378 371.821 319.354 372.116 320.185 372.669C321.015 373.222 321.663 374.009 322.046 374.93C322.429 375.852 322.53 376.866 322.336 377.844C322.142 378.823 321.662 379.722 320.957 380.428C320.252 381.134 319.353 381.615 318.374 381.81C317.395 382.005 316.38 381.906 315.458 381.524C314.535 381.143 313.747 380.497 313.192 379.667C312.637 378.838 312.341 377.863 312.341 376.865C312.341 375.529 312.872 374.248 313.817 373.302C314.761 372.357 316.043 371.825 317.379 371.823V371.823Z" fill="#E2E2E9"/>
<path d="M317.379 302.579H312.997V321.822H317.379V302.579Z" fill="#E2E2E9"/>
<path d="M317.379 292.662H312.997V302.579H317.379V292.662Z" fill="#E2E2E9"/>
<path d="M312.998 302.579V321.822H308.185V346.443V351.741H308.112L270.578 364.244V360.659V360.528L273.327 360.492L267.071 293.769L266.633 289.077H302.003H312.998V292.662V302.579Z" fill="#E7E7E7"/>
<path d="M239.736 278.329L233.488 277.287L245.883 274.139L295.863 275.356L299.326 263.195L285.145 250.48L269.047 245.664L286.8 245.197L291.817 248.957L293.72 250.378L308.141 263.61C307.584 268.535 306.761 273.427 305.677 278.263C305.189 280.377 304.634 282.366 304.022 284.195H274.858L239.736 278.329Z" fill="#8891AA"/>
<path d="M303.993 284.195C303.442 285.867 302.775 287.498 301.995 289.077H264.811V284.195H303.964H303.993Z" fill="#E2E2E9"/>
<path d="M302.578 126.106L300.019 135.032L295.878 137.473V130.675L289.112 131.047L298.554 128.351L302.578 126.106Z" fill="#E2E2E9"/>
<path d="M300.974 74.1174L282.142 92.7563L278.066 91.248L275.893 90.4392L298.838 73.877L300.974 74.1174Z" fill="#586689"/>
<path d="M293.377 216.554L294.66 211.002L290.927 192.115L293.698 188.297L300.755 209.078L291.795 248.95L286.778 245.19L291.795 223.418L293.34 216.714L293.377 216.554Z" fill="#B1B9C5"/>
<path d="M299.961 108.721V110.863L297.708 108.721H299.961Z" fill="#E2E2E9"/>
<path d="M299.348 263.195L295.885 275.356L245.904 274.139L233.488 277.287V286.636L236.265 360.659H232.882H223.841H221.698L209.668 287.393V261.213H203.769L215.355 247.077L266.283 245.729L269.024 245.656V245.664L285.123 250.48L299.348 263.195Z" fill="#B1B8C5"/>
<path d="M298.838 73.8765L275.893 90.4388L270.92 88.588L293.975 73.3154L298.838 73.8765Z" fill="#607791"/>
<path d="M290.927 192.115L294.66 211.002L293.377 216.554L278.612 209.078L290.927 192.115Z" fill="#B1B9C5"/>
<path d="M293.698 188.297L290.927 192.115L278.612 209.078L275.835 212.896L261.799 216.714H261.333H250.039H249.973H233.488L234.363 212.051L259.801 212.896L273.844 207.621L293.698 188.297Z" fill="#B1B9C5"/>
<path d="M293.341 216.714L291.795 223.418H266.276H152.775H145.907H142.896V216.714H160.067H233.488H249.973H250.039H261.333H261.799H293.341Z" fill="#B1B8C5"/>
<path d="M282.141 92.7559L285.816 94.1257L292.203 93.7906L289.505 96.0494L286.363 97.9512L283.3 97.5795L277.737 95.328L278.065 91.2476L282.141 92.7559Z" fill="#E2E2E9"/>
<path d="M291.795 223.418L286.778 245.19L269.025 245.656L266.283 245.729L266.276 245.336V223.418H291.795Z" fill="#B1B8C5"/>
<path d="M279.684 103.802L277.307 100.698L284.795 101.412V105.063L284.423 107.497L278.474 108.721L279.684 103.802Z" fill="#E2E2E9"/>
<path d="M254.844 360.754L251.643 360.798L239.736 278.329L274.807 284.195H264.84V289.077H266.633L267.071 293.769L251.898 292.662L258.161 360.703L254.844 360.754Z" fill="#8891AA"/>
<path d="M267.071 293.769L273.327 360.492L270.578 360.528L258.161 360.703L251.898 292.662L267.071 293.769Z" fill="#B1B8C5"/>
<path d="M272.51 367.407V381.907H266.123C267.121 381.909 268.097 381.614 268.928 381.061C269.758 380.508 270.406 379.721 270.789 378.799C271.172 377.878 271.273 376.864 271.079 375.886C270.886 374.907 270.406 374.008 269.7 373.302C268.995 372.596 268.096 372.115 267.117 371.92C266.138 371.725 265.123 371.824 264.201 372.206C263.278 372.587 262.49 373.233 261.935 374.063C261.381 374.892 261.085 375.867 261.085 376.865C261.085 378.201 261.615 379.482 262.56 380.428C263.504 381.373 264.786 381.905 266.123 381.907H244.315V371.043L251.562 365.083L255.536 366.052L261.121 367.407H272.51Z" fill="#586989"/>
<path d="M258.161 360.703L270.577 360.528V360.659V364.244L261.084 367.407L255.499 366.051L255.572 365.753L254.843 360.754L258.161 360.703Z" fill="#B1B3C5"/>
<path d="M266.123 371.823C267.121 371.821 268.097 372.116 268.928 372.669C269.758 373.222 270.406 374.009 270.789 374.93C271.172 375.852 271.273 376.866 271.079 377.844C270.885 378.823 270.405 379.722 269.7 380.428C268.995 381.134 268.096 381.615 267.117 381.81C266.138 382.005 265.123 381.906 264.201 381.524C263.278 381.143 262.49 380.497 261.935 379.667C261.381 378.838 261.084 377.863 261.084 376.865C261.084 375.529 261.615 374.248 262.56 373.302C263.504 372.357 264.786 371.825 266.123 371.823V371.823Z" fill="#E2E2E9"/>
<path d="M239.729 366.569H244.279V371.043V381.907H209.668V371.823H209.901L219.854 365.083L224.739 366.773L228.435 368.048L238.008 366.569H239.729Z" fill="#586989"/>
<path d="M237.724 285.441L241.348 360.659H239.729H236.266L233.488 286.636V277.287L237.724 285.441Z" fill="#8891AA"/>
<path d="M239.729 360.66V366.569H238.008L228.435 368.048L224.739 366.773L223.842 360.66H232.883H236.266H239.729Z" fill="#B1B3C5"/>
<path d="M236.9 198.527L234.363 212.051L224.024 209.603L224.432 207.162L225.154 202.783L225.854 198.527H236.9Z" fill="#E2E2E9"/>
<path d="M234.363 212.051L233.488 216.715L223.295 214.033L223.623 212.066L224.024 209.603L234.363 212.051Z" fill="#B1B3C5"/>
<path d="M234.107 175.983V193.514H181.91H160.066H107.869V175.983H234.107Z" fill="#E2E6E9"/>
<path d="M234.107 109.755H107.869V175.983H234.107V109.755Z" fill="white"/>
<path d="M233.488 216.714H160.066V212.051H181.911H190.871H198.031H204.323H223.543L223.623 212.065L223.295 214.033L233.488 216.714Z" fill="#8891AA"/>
<path d="M225.854 198.527L225.154 202.783H225.147L214.378 203.65L198.031 212.051H190.871L203.171 201.209L214.509 198.527H225.854Z" fill="white"/>
<path d="M225.154 202.783L224.432 207.162H215.472L204.323 212.051H198.031L214.378 203.65L225.147 202.783H225.154Z" fill="#E2E2E9"/>
<path d="M209.668 287.394V371.823V381.907H197.04V289.653V282.082V274.519V261.213H203.769H209.668V287.394Z" fill="#E2E2E9"/>
<path d="M197.039 289.652V381.907H165.396V289.652H197.039ZM184.134 362.518C184.134 361.941 183.963 361.378 183.643 360.898C183.322 360.419 182.867 360.045 182.334 359.825C181.801 359.604 181.214 359.547 180.649 359.659C180.083 359.771 179.563 360.049 179.155 360.457C178.748 360.864 178.47 361.384 178.357 361.949C178.245 362.514 178.303 363.1 178.523 363.633C178.744 364.166 179.118 364.621 179.597 364.941C180.077 365.261 180.641 365.432 181.218 365.432C181.605 365.432 181.988 365.355 182.346 365.206C182.703 365.056 183.027 364.837 183.298 364.561C183.57 364.284 183.783 363.957 183.927 363.598C184.07 363.238 184.141 362.854 184.134 362.467V362.518Z" fill="#B1B3C5"/>
<path d="M197.039 282.082H165.396V289.652H197.039V282.082Z" fill="#B1B3C5"/>
<path d="M197.039 274.519H165.396V282.082H197.039V274.519Z" fill="#B1B3C5"/>
<path d="M197.039 261.213H165.396V274.519H197.039V261.213Z" fill="#B1B3C5"/>
<path d="M181.911 193.514H160.066V212.051H181.911V193.514Z" fill="#E2E6E9"/>
<path d="M165.396 289.653V381.907H152.775V261.213H165.396V274.519V282.082V289.653Z" fill="#E2E2E9"/>
<path d="M160.067 212.051H142.896V216.714H160.067V212.051Z" fill="#E2E2E9"/>
<path d="M152.775 261.213V381.907H145.907V229.131H152.775V261.213Z" fill="#B1B8C5"/>
<path d="M152.775 223.418H145.907V229.131H152.775V223.418Z" fill="#8891AA"/>
<path d="M145.907 229.131V381.907H93.0249L97.1516 343.711H98.8286V332.927H95.6424L101.665 325.058L111.231 321.167L123.283 318.69L114.067 308.765L106.273 311.607L114.067 291.285L107.337 268.092L100.958 281.856L87.8409 298.856V280.443L75.7887 249.635L67.9872 290.199L61.0898 283.809V229.131H145.907Z" fill="#E2E6E9"/>
<path d="M145.907 223.418V229.131H61.0898V223.418H142.896H145.907Z" fill="#8891AA"/>
<path d="M142.896 216.714V223.418H61.0895H54.3599V216.714H142.896Z" fill="#B1B8C5"/>
<path d="M114.067 308.765L123.283 318.689L111.23 321.167L101.665 325.058L95.6421 332.927H92.5434H89.4082L96.3202 320.227L106.273 311.607L114.067 308.765Z" fill="#2AFFB2"/>
<path d="M107.337 268.092L114.067 291.285L106.272 311.607L96.3201 320.227L89.4081 332.927H84.6543L86.4333 320.227L98.8282 300.51L105.565 288.902L107.337 268.092Z" fill="#35DB9F"/>
<path d="M107.337 268.092L105.565 288.902L98.8285 300.51L86.4336 320.227L87.8408 310.186V298.856L100.957 281.856L107.337 268.092Z" fill="#2AFFB2"/>
<path d="M98.8284 332.927V343.711H97.1514H92.5435V332.927H95.6422H98.8284Z" fill="#8891AA"/>
<path d="M97.1516 343.711L93.0248 381.907H87.8408L92.5436 343.711H97.1516Z" fill="#8891AA"/>
<path d="M92.5433 332.927V343.711H54.4182H52.7412V332.927H56.6565H68.7087H76.5029H84.6544H89.4082H92.5433Z" fill="#B1B8C5"/>
<path d="M92.5436 343.711L87.8409 381.907H84.7349H58.5525L54.4185 343.711H92.5436Z" fill="#B1B8C5"/>
<path d="M87.8408 298.855V310.186L86.4336 320.227L84.6546 332.927H76.5031L78.479 283.517L75.7886 249.635L87.8408 280.442V298.855Z" fill="#35DB9F"/>
<path d="M75.7887 249.635L78.4791 283.517L76.5032 332.927H68.709L66.9154 318.74L65.1655 304.874L67.9872 290.199L75.7887 249.635Z" fill="#2AFFB2"/>
<path d="M66.9153 318.74L68.7089 332.927H56.6567V324.001L50.277 316.562L49.526 313.407L47.798 306.149L44.2545 291.285L32.5596 290.199L45.5596 284.792L55.3516 286.774L65.1654 304.874L66.9153 318.74Z" fill="#35DB9F"/>
<path d="M53.4705 279.415L47.3897 279.495L43.4306 279.546L32.5596 290.199L45.5596 284.792L55.3516 286.774L65.1654 304.874L67.9871 290.199L61.0897 283.809L56.3067 279.378L53.4705 279.415Z" fill="#2AFFB2"/>
<path d="M56.6566 324.001V332.927L52.7413 326.201L43.9993 321.946L31.3711 324.074L39.7413 317.407L49.5259 313.406L50.2769 316.561L56.6566 324.001Z" fill="#35DB9F"/>
<path d="M47.7979 306.149L49.5259 313.407L39.7413 317.407L31.3711 324.074L38.4653 309.895L47.7979 306.149Z" fill="#2AFFB2"/>
<path d="M136.006 108.663H132.98V110.849H136.006V108.663Z" fill="#50567C"/>
<path d="M234.108 194.607H107.87L106.776 193.514V109.756L107.87 108.663H127.898V110.849H108.963V192.421H233.014V110.849H145.346V108.663H234.108L235.201 109.756V193.514L234.108 194.607Z" fill="#50567C"/>
<path d="M234.107 174.89H209.916V177.076H234.107V174.89Z" fill="#50567C"/>
<path d="M200.16 174.89H196.311V177.076H200.16V174.89Z" fill="#50567C"/>
<path d="M192.329 174.89H107.869V177.076H192.329V174.89Z" fill="#50567C"/>
<path d="M161.16 193.514H158.973V212.051H161.16V193.514Z" fill="#50567C"/>
<path d="M183.004 193.514H180.817V212.051H183.004V193.514Z" fill="#50567C"/>
<path d="M233.488 215.622H104.749V217.808H233.488V215.622Z" fill="#50567C"/>
<path d="M95.1247 215.622H93.2217V217.808H95.1247V215.622Z" fill="#50567C"/>
<path d="M291.795 224.511H54.3598L53.2661 223.418V216.715L54.3598 215.622H87.8405V217.808H55.4534V222.325H291.795V224.511Z" fill="#50567C"/>
<path d="M293.341 215.622H261.799V217.808H293.341V215.622Z" fill="#50567C"/>
<path d="M223.543 210.958H153.723V213.144H223.543V210.958Z" fill="#50567C"/>
<path d="M143.99 223.418H141.802V212.051L142.896 210.958H148.313V213.144H143.99V223.418Z" fill="#50567C"/>
<path d="M153.869 223.418H151.682V261.213H153.869V223.418Z" fill="#50567C"/>
<path d="M152.775 380.814H93.0244V383H152.775V380.814Z" fill="#50567C"/>
<path d="M62.1834 223.418H59.9961V283.809H62.1834V223.418Z" fill="#50567C"/>
<path d="M147.001 251.165H144.813V381.907H147.001V251.165Z" fill="#50567C"/>
<path d="M147.001 239.273H144.813V242.319H147.001V239.273Z" fill="#50567C"/>
<path d="M147.001 223.418H144.813V234.333H147.001V223.418Z" fill="#50567C"/>
<path d="M359.055 289.077H356.868V362.168H359.055V289.077Z" fill="#50567C"/>
<path d="M357.962 383H266.276V380.814H356.868V367.407H359.055V381.907L357.962 383Z" fill="#50567C"/>
<path d="M267.369 223.418H265.182V245.336H267.369V223.418Z" fill="#50567C"/>
<path d="M352.194 365.92H350.007V381.907H352.194V365.92Z" fill="#50567C"/>
<path d="M352.194 327.214H350.007V359.574H352.194V327.214Z" fill="#50567C"/>
<path d="M352.194 316.708H350.007V318.974H352.194V316.708Z" fill="#50567C"/>
<path d="M352.194 300.225H350.007V311.016H352.194V300.225Z" fill="#50567C"/>
<path d="M352.194 289.077H350.007V295.154H352.194V289.077Z" fill="#50567C"/>
<path d="M161.16 212.051H158.973V216.714H161.16V212.051Z" fill="#50567C"/>
<path d="M302.002 290.17H264.839L263.746 289.077V284.195L264.839 283.102H303.993V285.288H265.933V287.984H302.002V290.17Z" fill="#50567C"/>
<path d="M364.939 192.217H362.788V194.403H364.939V192.217Z" fill="#50567C"/>
<path d="M312.341 228.613L310.154 228.417C311.357 215.002 313.019 201.406 317 192.851L317.992 192.217H358.603V194.403H318.684C315.039 202.695 313.5 215.724 312.341 228.613Z" fill="#50567C"/>
<path d="M309.48 236.538L309.272 239.161L311.453 239.333L311.66 236.711L309.48 236.538Z" fill="#50567C"/>
<path d="M368.432 290.17H302.002L301.025 288.589C301.781 287.054 302.429 285.469 302.965 283.845C303.563 282.067 304.11 280.107 304.591 278.016C305.669 273.206 306.485 268.341 307.033 263.443C307.85 256.768 308.433 249.759 309.053 241.948L311.24 242.115C310.62 249.956 310.037 256.987 309.213 263.705C308.653 268.67 307.823 273.6 306.727 278.475C306.231 280.661 305.663 282.657 305.043 284.508C304.634 285.732 304.19 286.884 303.73 287.947H367.754C372.945 277.236 374.636 257.162 376.277 237.729C377.735 220.474 379.106 204.123 382.839 194.367H372.033V192.181H384.428L385.434 193.711C381.395 202.899 379.966 219.906 378.45 237.911C376.765 257.92 375.023 278.606 369.401 289.543L368.432 290.17Z" fill="#50567C"/>
<path d="M377.203 199.62H374.286V197.434H377.203V199.62ZM369.912 199.62H365.537V197.434H369.912V199.62ZM361.162 199.62H356.788V197.434H361.162V199.62ZM352.413 199.62H348.038V197.434H352.413V199.62ZM343.664 199.62H339.289V197.434H343.664V199.62ZM334.915 199.62H330.54V197.434H334.915V199.62ZM326.165 199.62H321.791V197.434H326.165V199.62Z" fill="#50567C"/>
<path d="M365.778 285.288H362.861V283.102H365.778V285.288ZM358.487 285.288H354.112V283.102H358.487V285.288ZM349.737 285.288H345.363V283.102H349.737V285.288ZM340.988 285.288H336.613V283.102H340.988V285.288ZM332.239 285.288H327.864V283.102H332.239V285.288ZM323.489 285.288H319.115V283.102H323.489V285.288ZM314.74 285.288H310.365V283.102H314.74V285.288Z" fill="#50567C"/>
<path d="M327.674 351.741H325.487V322.915H309.279V329.903H307.091V321.822L308.185 320.729H326.58L327.674 321.822V351.741Z" fill="#50567C"/>
<path d="M309.279 339.361H307.091V351.741H309.279V339.361Z" fill="#50567C"/>
<path d="M314.091 289.077H311.903V321.822H314.091V289.077Z" fill="#50567C"/>
<path d="M322.862 289.077H320.675V321.822H322.862V289.077Z" fill="#50567C"/>
<path d="M373.681 368.5L359.828 368.485L350.926 366.999L325.502 362.758L321.178 368.099L320.325 368.5H314.441L313.595 368.099L309.272 362.758L274.756 368.5H261.085L260.742 366.372L282.091 359.261L282.783 361.33L267.829 366.314H274.668L309.534 360.499L310.57 360.893L314.966 366.314H319.807L324.204 360.893L325.232 360.499L360.105 366.314H366.944L326.479 352.834H308.295L296.695 356.696L296.002 354.626L307.77 350.706L308.112 350.648H326.581L327.004 350.706L374.031 366.372L373.681 368.5Z" fill="#50567C"/>
<path d="M288.213 357.22L285.964 357.968L286.655 360.042L288.903 359.294L288.213 357.22Z" fill="#50567C"/>
<path d="M317.379 383C316.241 382.997 315.127 382.678 314.16 382.079C313.193 381.48 312.411 380.625 311.902 379.608C311.392 378.591 311.175 377.453 311.275 376.32C311.374 375.188 311.786 374.105 312.465 373.192L314.222 374.504C313.708 375.183 313.431 376.013 313.435 376.865C313.439 377.691 313.704 378.494 314.192 379.161C314.68 379.828 315.366 380.324 316.152 380.579C316.938 380.834 317.785 380.834 318.571 380.581C319.358 380.327 320.044 379.832 320.533 379.166C321.022 378.5 321.289 377.697 321.294 376.871C321.3 376.045 321.045 375.238 320.566 374.565C320.087 373.892 319.407 373.388 318.625 373.123C317.842 372.858 316.995 372.847 316.205 373.09L315.556 371.006C316.401 370.744 317.292 370.667 318.169 370.78C319.046 370.894 319.888 371.195 320.637 371.664C321.387 372.133 322.026 372.758 322.511 373.497C322.997 374.235 323.317 375.07 323.449 375.943C323.582 376.817 323.525 377.709 323.281 378.558C323.036 379.408 322.612 380.194 322.035 380.864C321.459 381.534 320.744 382.072 319.941 382.441C319.137 382.809 318.263 383 317.379 383V383Z" fill="#50567C"/>
<path d="M266.122 383C264.908 383 263.721 382.64 262.712 381.966C261.702 381.292 260.915 380.334 260.451 379.213C259.986 378.092 259.864 376.858 260.101 375.668C260.338 374.478 260.923 373.384 261.781 372.526C262.64 371.668 263.734 371.084 264.925 370.847C266.116 370.611 267.35 370.732 268.472 371.197C269.594 371.661 270.552 372.447 271.227 373.456C271.902 374.465 272.262 375.651 272.262 376.865C272.262 378.492 271.615 380.052 270.463 381.203C269.312 382.354 267.751 383 266.122 383V383ZM266.122 372.915C265.341 372.915 264.577 373.147 263.927 373.581C263.277 374.015 262.771 374.632 262.472 375.353C262.172 376.075 262.094 376.869 262.247 377.635C262.399 378.401 262.776 379.105 263.328 379.657C263.881 380.21 264.585 380.586 265.352 380.738C266.118 380.891 266.913 380.812 267.635 380.513C268.357 380.215 268.974 379.708 269.408 379.059C269.842 378.409 270.074 377.646 270.074 376.865C270.074 376.346 269.972 375.833 269.773 375.353C269.575 374.874 269.284 374.439 268.917 374.072C268.55 373.705 268.114 373.415 267.635 373.216C267.155 373.018 266.641 372.915 266.122 372.915V372.915Z" fill="#50567C"/>
<path d="M368.643 383C367.428 383.001 366.241 382.643 365.23 381.97C364.22 381.296 363.432 380.339 362.966 379.218C362.5 378.097 362.378 376.863 362.614 375.672C362.85 374.482 363.434 373.388 364.292 372.529C365.15 371.67 366.244 371.085 367.435 370.848C368.626 370.611 369.861 370.732 370.983 371.196C372.106 371.66 373.065 372.446 373.74 373.455C374.415 374.465 374.775 375.651 374.775 376.865C374.773 378.49 374.126 380.048 372.977 381.198C371.828 382.348 370.269 382.996 368.643 383V383ZM368.643 372.915C367.861 372.914 367.096 373.144 366.446 373.577C365.795 374.011 365.287 374.627 364.987 375.348C364.687 376.07 364.607 376.864 364.759 377.631C364.911 378.397 365.286 379.102 365.839 379.655C366.391 380.208 367.095 380.585 367.862 380.738C368.629 380.891 369.424 380.813 370.146 380.514C370.869 380.215 371.486 379.709 371.921 379.06C372.356 378.41 372.587 377.646 372.587 376.865C372.587 375.819 372.172 374.815 371.433 374.075C370.693 373.334 369.69 372.917 368.643 372.915V372.915Z" fill="#50567C"/>
<path d="M340.908 296.407H321.769V298.593H340.908V296.407Z" fill="#50567C"/>
<path d="M353.31 301.085H340.915L339.821 299.992V295.154L340.915 294.061H353.31L354.404 295.154V299.992L353.31 301.085ZM342.001 298.899H352.209V296.247H342.016L342.001 298.899Z" fill="#50567C"/>
<path d="M321.768 301.486H312.997V303.672H321.768V301.486Z" fill="#50567C"/>
<path d="M308.674 126.434L308.025 126.347L299.21 122.201L298.648 120.846L301.915 111.533L301.032 106.083L297.124 106.44L294.755 113.778L293.712 114.506H290.49L289.396 113.479L288.404 96.0859L288.798 95.1824L288.988 95.0221L285.867 95.1897L285.43 95.1241L270.563 89.6155L270.337 87.6773L293.391 72.3756L294.12 72.2007L316.665 74.7874L317.394 75.2027L331.896 93.8489L332.063 94.8836L321.798 123.614L320.952 124.343L308.674 126.434ZM301.04 120.641L308.644 124.197L319.946 122.288L329.789 94.7233L315.935 76.9151L294.244 74.4231L273.319 88.2675L285.984 92.9818L292.145 92.654L292.874 94.5849L290.628 96.5085L291.532 112.32H292.925L295.265 105.034L296.213 104.305L301.856 103.788L303.03 104.699L304.124 111.431L304.08 111.971L301.04 120.641Z" fill="#50567C"/>
<path d="M296.971 137.626H294.784V131.826L289.17 132.14L288.339 131.819L284.175 127.622L280.697 122.317L280.515 121.72V116.415H276.855L275.798 115.06L278.496 104.05L276.439 101.361L276.221 100.611L276.979 91.1602L279.159 91.335L278.43 100.37L280.552 103.139L280.749 104.065L278.248 114.229H281.609L282.703 115.322V121.392L285.94 126.332L289.542 129.932L295.819 129.582L296.971 130.675V137.626Z" fill="#50567C"/>
<path d="M353.543 193.448L349.176 158.699L336.956 140.84L331.663 138.268L332.618 136.3L338.174 139.004L338.596 139.368L351.13 157.679L351.312 158.16L355.716 193.172L353.543 193.448Z" fill="#50567C"/>
<path d="M331.662 138.261L322.556 133.83L321.973 133.102L319.698 123.534L321.827 123.024L323.985 132.089L332.618 136.293L331.662 138.261Z" fill="#50567C"/>
<path d="M277.825 158.808L275.886 157.788L282.207 145.714L282.557 145.328L295.317 136.533L303.782 131.586L321.492 126.558L322.089 128.657L304.518 133.648L296.184 138.566L284.023 146.968L277.825 158.808Z" fill="#50567C"/>
<path d="M271.644 168.521L270.699 170.898L272.732 171.705L273.677 169.328L271.644 168.521Z" fill="#50567C"/>
<path d="M261.799 217.807L233.211 217.771L223.018 215.09L222.216 213.851L224.775 198.352L225.854 197.434H236.645L238.183 196.669L238.526 196.56L258.125 193.959L258.496 193.973L262.324 194.811L261.909 194.032L261.858 193.113L268.821 175.582L270.847 176.384L264.074 193.449L265.372 195.868L264.176 197.456L258.219 196.152L239 198.702L237.389 199.504L236.9 199.62H226.78L224.542 213.231L233.634 215.621H261.653L275.178 211.942L294.74 185.004L296.512 186.286L276.717 213.538L276.126 213.953L262.091 217.771L261.799 217.807Z" fill="#50567C"/>
<path d="M212.409 200.145L211.906 198.017L214.509 197.434H225.854V199.62H214.64L212.409 200.145Z" fill="#50567C"/>
<path d="M191.593 212.875L190.149 211.235L202.449 200.385L202.923 200.145L208.115 198.921L208.618 201.049L203.689 202.207L191.593 212.875Z" fill="#50567C"/>
<path d="M204.761 213.049L203.886 211.053L215.034 206.164L215.471 206.069H224.432V208.255H215.705L204.761 213.049Z" fill="#50567C"/>
<path d="M293.209 217.691L292.888 217.53L278.124 210.054L279.108 208.102L294.186 215.738L293.209 217.691Z" fill="#50567C"/>
<path d="M307.383 264.419L292.998 251.224L291.139 249.832L292.451 248.083L294.442 249.577L308.863 262.809L307.383 264.419Z" fill="#50567C"/>
<path d="M291.138 249.824L286.122 246.065L285.714 244.942L293.545 210.987L289.855 192.326L291.999 191.904L295.732 210.79L295.725 211.25L288.003 244.746L292.451 248.076L291.138 249.824Z" fill="#50567C"/>
<path d="M292.378 141.066L292.028 138.909L306.72 136.563L322.724 131.797L323.351 133.896L307.135 138.705L292.378 141.066Z" fill="#50567C"/>
<path d="M241.347 361.753H221.698L220.619 360.835L219.372 353.228L221.53 352.87L222.631 359.567H240.203L236.645 285.732L232.518 277.79L233.67 276.209L274.989 283.117L274.624 285.273L235.471 278.723L238.693 284.938L238.817 285.39L242.441 360.609L241.347 361.753Z" fill="#50567C"/>
<path d="M219.107 338.209L216.949 338.563L217.446 341.597L219.605 341.244L219.107 338.209Z" fill="#50567C"/>
<path d="M210.631 286.45L208.472 286.804L216.004 332.671L218.163 332.317L210.631 286.45Z" fill="#50567C"/>
<path d="M204.615 261.905L202.923 260.521L214.509 246.385L215.325 245.984L230.965 245.569L231.016 247.755L215.887 248.156L204.615 261.905Z" fill="#50567C"/>
<path d="M239.697 245.349L237.372 245.409L237.429 247.594L239.754 247.534L239.697 245.349Z" fill="#50567C"/>
<path d="M286.755 244.097L243.359 245.256L243.418 247.441L286.814 246.283L286.755 244.097Z" fill="#50567C"/>
<path d="M251.657 361.891L250.564 360.951L238.643 278.38L240.815 278.147L252.59 359.69L272.131 359.414L265.547 289.179L267.727 288.975L274.42 360.39L273.341 361.585L251.657 361.891Z" fill="#50567C"/>
<path d="M266.276 380.814H244.279V383H266.276V380.814Z" fill="#50567C"/>
<path d="M244.979 371.888L243.586 370.197L250.833 364.237L251.788 364.019L261.347 366.343L260.829 368.471L251.803 366.277L244.979 371.888Z" fill="#50567C"/>
<path d="M244.279 383H209.668V380.814H243.185V367.662H238.096L228.603 369.127L228.078 369.083L220.014 366.292L210.513 372.726L209.289 370.919L219.241 364.179L220.211 364.048L228.537 366.926L238.008 365.476H244.279L245.372 366.569V381.907L244.279 383Z" fill="#50567C"/>
<path d="M224.941 360.49L222.776 360.807L223.673 366.92L225.837 366.603L224.941 360.49Z" fill="#50567C"/>
<path d="M254.494 365.913L253.75 360.82L255.915 360.5L256.659 365.593L254.494 365.913Z" fill="#50567C"/>
<path d="M240.823 360.66H238.635V366.773H240.823V360.66Z" fill="#50567C"/>
<path d="M271.671 360.66H269.484V364.245H271.671V360.66Z" fill="#50567C"/>
<path d="M209.668 383H197.04V380.814H208.574V262.306H197.04V260.12H209.668L210.761 261.213V381.907L209.668 383Z" fill="#50567C"/>
<path d="M165.396 383H152.775L151.682 381.907V261.213L152.775 260.12H165.396V262.306H153.869V380.814H165.396V383Z" fill="#50567C"/>
<path d="M197.04 383H165.396L164.303 381.907V261.213H166.49V380.814H195.946V261.213H198.133V381.907L197.04 383Z" fill="#50567C"/>
<path d="M197.039 260.12H165.396V262.306H197.039V260.12Z" fill="#50567C"/>
<path d="M197.039 273.425H191.731V275.611H197.039V273.425Z" fill="#50567C"/>
<path d="M185.782 273.425H183.223V275.611H185.782V273.425Z" fill="#50567C"/>
<path d="M179.577 273.425H165.396V275.611H179.577V273.425Z" fill="#50567C"/>
<path d="M197.039 280.989H165.396V283.175H197.039V280.989Z" fill="#50567C"/>
<path d="M197.039 288.56H181.218V290.746H197.039V288.56Z" fill="#50567C"/>
<path d="M175.779 288.56H165.396V290.746H175.779V288.56Z" fill="#50567C"/>
<path d="M188.414 296.123H174.029V298.309H188.414V296.123Z" fill="#50567C"/>
<path d="M181.218 366.496C180.427 366.49 179.655 366.251 179 365.808C178.345 365.365 177.836 364.739 177.536 364.007C177.236 363.276 177.16 362.472 177.316 361.697C177.472 360.922 177.854 360.211 178.414 359.652C178.974 359.094 179.686 358.713 180.462 358.559C181.238 358.404 182.042 358.482 182.773 358.783C183.504 359.083 184.131 359.594 184.573 360.249C185.014 360.905 185.253 361.676 185.257 362.467C185.259 362.997 185.156 363.522 184.953 364.013C184.751 364.503 184.453 364.948 184.078 365.323C183.702 365.697 183.256 365.994 182.765 366.195C182.274 366.397 181.748 366.499 181.218 366.496V366.496ZM181.218 360.667C180.858 360.673 180.507 360.785 180.211 360.989C179.915 361.194 179.685 361.482 179.553 361.816C179.42 362.151 179.389 362.517 179.465 362.869C179.54 363.221 179.718 363.543 179.976 363.794C180.234 364.045 180.561 364.214 180.915 364.279C181.27 364.345 181.635 364.304 181.966 364.162C182.297 364.02 182.579 363.783 182.775 363.481C182.971 363.18 183.074 362.827 183.07 362.467C183.067 362.227 183.017 361.99 182.922 361.769C182.827 361.549 182.69 361.349 182.518 361.182C182.346 361.015 182.142 360.883 181.919 360.795C181.696 360.707 181.458 360.663 181.218 360.667V360.667Z" fill="#50567C"/>
<path d="M273.603 367.407H271.416V381.907H273.603V367.407Z" fill="#50567C"/>
<path d="M235.837 198.346L232.426 216.53L234.576 216.933L237.987 198.749L235.837 198.346Z" fill="#50567C"/>
<path d="M55.4916 343.6L53.3169 343.835L54.9116 358.577L57.0863 358.342L55.4916 343.6Z" fill="#50567C"/>
<path d="M57.972 366.667L55.7974 366.902L56.1986 370.611L58.3732 370.376L57.972 366.667Z" fill="#50567C"/>
<path d="M93.0247 383H58.5524L57.466 382.024L56.6421 374.395L58.8148 374.154L59.5367 380.814H92.0477L96.0651 343.595L98.2378 343.828L94.1111 382.024L93.0247 383Z" fill="#50567C"/>
<path d="M75.7883 344.804H52.7411L51.6475 343.711V332.927L52.7411 331.834H59.8281V334.02H53.8348V342.618H75.7883V344.804Z" fill="#50567C"/>
<path d="M86.4334 342.618H83.6045V344.804H86.4334V342.618Z" fill="#50567C"/>
<path d="M98.8286 344.804H89.8095V342.618H97.7349V334.02H65.1655V331.834H98.8286L99.9222 332.927V343.711L98.8286 344.804Z" fill="#50567C"/>
<path d="M85.7411 333.08L83.5756 332.774L86.7472 310.113V280.646L76.1533 253.555L74.6367 261.417L72.4858 261.009L74.7169 249.431L76.8095 249.241L88.8617 280.041L88.9346 280.442L88.9273 310.339L85.7411 333.08Z" fill="#50567C"/>
<path d="M70.7514 270.04L70.2422 272.688L72.3902 273.1L72.8994 270.453L70.7514 270.04Z" fill="#50567C"/>
<path d="M67.6226 333.065L64.0791 305.012L64.0937 304.67L69.3214 277.477L71.4723 277.885L66.2737 304.91L69.7953 332.789L67.6226 333.065Z" fill="#50567C"/>
<path d="M96.5097 333.59L94.7744 332.264L100.797 324.394L101.256 324.045L111.012 320.095L121.161 318.011L120.483 317.283L122.087 315.789L124.085 317.946L123.501 319.76L111.551 322.216L102.357 325.961L96.5097 333.59Z" fill="#50567C"/>
<path d="M116.699 313.203L113.761 310.04L106.652 312.634L105.252 311.214L112.915 291.234L107.104 271.203L101.949 282.315L99.9658 281.397L106.346 267.633L108.387 267.786L115.117 290.979L115.088 291.678L108.154 309.756L113.695 307.738L114.869 308.022L118.296 311.716L116.699 313.203Z" fill="#50567C"/>
<path d="M97.2659 284.13L95.8472 285.966L97.5752 287.299L98.9939 285.463L97.2659 284.13Z" fill="#50567C"/>
<path d="M94.0751 289.007L86.9731 298.21L88.7052 299.545L95.8072 290.342L94.0751 289.007Z" fill="#50567C"/>
<path d="M76.8973 249.549L74.7168 249.722L77.4091 283.607L79.5896 283.434L76.8973 249.549Z" fill="#50567C"/>
<path d="M77.1799 288.425L77.0693 291.213L79.255 291.3L79.3656 288.511L77.1799 288.425Z" fill="#50567C"/>
<path d="M76.8383 297.188L75.4155 332.9L77.6011 332.987L79.0239 297.275L76.8383 297.188Z" fill="#50567C"/>
<path d="M99.7761 301.056L97.8877 299.963L104.501 288.567L106.251 267.997L108.431 268.187L106.659 288.997L106.513 289.449L99.7761 301.056Z" fill="#50567C"/>
<path d="M94.7578 304.95L85.5107 319.659L87.3629 320.822L96.6099 306.113L94.7578 304.95Z" fill="#50567C"/>
<path d="M32.9825 291.212L32.144 289.193L45.1441 283.787L45.7784 283.721L52.1217 285.004L51.6915 287.146L45.669 285.929L32.9825 291.212Z" fill="#50567C"/>
<path d="M56.3006 286.258L54.3774 287.3L64.1899 305.398L66.113 304.357L56.3006 286.258Z" fill="#50567C"/>
<path d="M67.2431 291.001L55.8836 280.479L52.7557 280.523L52.7266 278.337L56.2919 278.286L57.0502 278.577L68.7305 289.398L67.2431 291.001Z" fill="#50567C"/>
<path d="M55.716 333.474L51.9684 327.04L43.8388 323.083L31.5533 325.153L30.394 323.586L34.9801 314.42L36.9415 315.396L33.3105 322.639L43.817 320.868L44.4805 320.963L53.2225 325.218L53.6891 325.655L55.5629 328.876V324.402L49.4457 317.276L49.2124 316.817L43.3722 292.298L32.4574 291.285L31.7939 289.419L42.665 278.767L44.1961 280.326L35.0093 289.332L44.3565 290.199L45.3189 291.03L51.2831 316.052L57.4878 323.287L57.7503 324.001V332.927L55.716 333.474Z" fill="#50567C"/>
<path d="M46.6612 305.841L37.3105 309.559L38.1199 311.592L47.4705 307.874L46.6612 305.841Z" fill="#50567C"/>
<path d="M32.0563 324.926L30.6929 323.221L39.0631 316.554L39.3255 316.394L49.1102 312.394L49.9414 314.419L40.3025 318.361L32.0563 324.926Z" fill="#50567C"/>
<path d="M90.3707 333.452L88.4458 332.402L95.3578 319.702L95.6057 319.403L105.558 310.783L106.994 312.43L97.1878 320.926L90.3707 333.452Z" fill="#50567C"/>
<path d="M66.1641 319.527L58.7053 312.394L58.4866 312.095L51.7642 298.608L53.7182 297.631L60.3604 310.951L67.6734 317.953L66.1641 319.527Z" fill="#50567C"/>
<path d="M283.745 102.709H279.684V104.895H283.745V102.709Z" fill="#50567C"/>
<path d="M281.683 120.634L281.556 122.816L285.792 123.064L285.92 120.882L281.683 120.634Z" fill="#50567C"/>
<path d="M58.5527 380.814H39.2896V383H58.5527V380.814Z" fill="#50567C"/>
<path d="M389 380.814H386.718V383H389V380.814Z" fill="#50567C"/>
<path d="M382.029 380.814H357.961V383H382.029V380.814Z" fill="#50567C"/>
<path d="M175.745 155.577C182.833 152.602 186.165 144.449 183.189 137.366C180.213 130.283 172.054 126.952 164.967 129.927C157.879 132.901 154.547 141.054 157.523 148.137C160.499 155.221 168.658 158.551 175.745 155.577Z" fill="white"/>
<path d="M185.323 156.907L183.201 154.903C183.362 154.742 183.507 154.575 183.661 154.407L185.848 156.324C185.68 156.52 185.505 156.717 185.323 156.907Z" fill="#50567C"/>
<path d="M169.989 163.34C169.472 163.34 168.947 163.304 168.436 163.26L168.706 160.346C169.144 160.389 169.596 160.411 170.04 160.419L169.989 163.34ZM171.55 163.34L171.382 160.426C171.827 160.426 172.272 160.353 172.709 160.295L173.095 163.209C172.585 163.231 172.067 163.282 171.55 163.311V163.34ZM166.898 163.085C166.388 162.998 165.877 162.896 165.374 162.772L166.103 159.938C166.533 160.047 166.978 160.142 167.416 160.215L166.898 163.085ZM174.627 162.932L174.029 160.076C174.459 159.989 174.896 159.879 175.319 159.755L176.136 162.553C175.64 162.67 175.137 162.816 174.627 162.903V162.932ZM163.879 162.335C163.391 162.175 162.895 161.992 162.421 161.796L163.544 159.1C163.952 159.275 164.375 159.428 164.791 159.566L163.879 162.335ZM177.616 162.058L176.588 159.333C177.003 159.18 177.412 159.005 177.82 158.816L179.052 161.461C178.578 161.65 178.097 161.847 177.616 162.029V162.058ZM161.007 161.14C160.547 160.907 160.088 160.652 159.643 160.411L161.196 157.861C161.575 158.094 161.969 158.313 162.363 158.509L161.007 161.14ZM180.43 160.746L179.008 158.203C179.395 157.992 179.738 157.752 180.146 157.511L181.757 159.901C181.327 160.193 180.882 160.462 180.43 160.717V160.746ZM158.345 159.522C157.93 159.216 157.514 158.896 157.121 158.568L158.994 156.331C159.33 156.615 159.724 156.892 160.052 157.154L158.345 159.522ZM183.026 159.027L181.225 156.724C181.582 156.455 181.954 156.163 182.253 155.864L184.214 158.05C183.799 158.342 183.434 158.677 183.026 158.998V159.027ZM155.969 157.526C155.597 157.161 155.239 156.797 154.897 156.396L157.084 154.473C157.376 154.801 157.682 155.129 158.003 155.435L155.969 157.526ZM153.905 155.165C153.592 154.757 153.293 154.327 153.008 153.89L155.466 152.309C155.706 152.688 155.961 153.037 156.195 153.409L153.905 155.165ZM152.221 152.549C151.973 152.097 151.74 151.631 151.528 151.157L154.19 149.962C154.374 150.37 154.571 150.771 154.78 151.165L152.221 152.549Z" fill="#50567C"/>
<path d="M150.945 149.7C150.858 149.452 150.777 149.205 150.697 148.972L153.475 148.097C153.548 148.316 153.614 148.527 153.694 148.738L150.945 149.7Z" fill="#50567C"/>
<path d="M156.144 132.212L153.796 130.471L154.277 129.852L156.552 131.68C156.413 131.87 156.275 132.045 156.144 132.212Z" fill="#50567C"/>
<path d="M186.847 136.351C186.693 135.943 186.511 135.535 186.322 135.142L188.954 133.881C189.18 134.34 189.384 134.821 189.566 135.295L186.847 136.351ZM185.709 133.969C185.49 133.59 185.257 133.24 184.98 132.846L187.393 131.214C187.678 131.63 187.955 132.074 188.21 132.519L185.709 133.969ZM184.251 131.783C183.981 131.433 183.69 131.098 183.391 130.777L185.534 128.795C185.884 129.174 186.22 129.568 186.54 129.968L184.251 131.783ZM157.449 130.69L155.32 128.7C155.67 128.329 156.049 127.972 156.413 127.615L158.389 129.757C158.039 130.027 157.719 130.369 157.42 130.69H157.449ZM182.457 129.837C182.137 129.531 181.801 129.24 181.458 128.97L183.289 126.697C183.682 127.017 184.076 127.352 184.448 127.702L182.457 129.837ZM159.396 128.897L157.551 126.617C157.952 126.296 158.368 125.99 158.798 125.706L160.431 128.118C160.066 128.358 159.738 128.628 159.366 128.897H159.396ZM180.394 128.169C180.037 127.921 179.665 127.68 179.278 127.44L180.737 124.919C181.174 125.181 181.619 125.458 182.034 125.749L180.394 128.169ZM161.583 127.403L160.125 124.875C160.569 124.62 161.029 124.38 161.488 124.146L162.749 126.777C162.327 126.988 161.926 127.192 161.554 127.411L161.583 127.403ZM178.112 126.835C177.718 126.646 177.31 126.463 176.901 126.303L177.973 123.593C178.454 123.782 178.928 123.993 179.388 124.219L178.112 126.835ZM163.967 126.267L162.91 123.549C163.391 123.359 163.88 123.192 164.368 123.046L165.214 125.83C164.769 125.968 164.346 126.114 163.938 126.274L163.967 126.267ZM175.633 125.866C175.21 125.735 174.78 125.618 174.357 125.516L175.013 122.682C175.509 122.791 176.012 122.93 176.471 123.083L175.633 125.866ZM166.475 125.494L165.834 122.653C166.329 122.536 166.84 122.449 167.35 122.368L167.773 125.283C167.328 125.327 166.891 125.407 166.468 125.502L166.475 125.494ZM173.037 125.269C172.607 125.203 172.162 125.152 171.725 125.123L171.951 122.208C172.461 122.245 172.979 122.303 173.482 122.383L173.037 125.269ZM169.078 125.108L168.874 122.194C169.362 122.194 169.858 122.143 170.332 122.143L170.391 125.057C169.946 125.072 169.501 125.086 169.085 125.115L169.078 125.108Z" fill="#50567C"/>
<path d="M187.444 138.275C187.386 138.056 187.328 137.838 187.262 137.626L190.055 136.781C190.128 137.029 190.201 137.284 190.266 137.51L187.444 138.275Z" fill="#50567C"/>
<path d="M168.035 132.038H165.848V153.467H168.035V132.038Z" fill="#50567C"/>
<path d="M171.936 149.569H169.749V153.467H171.936V149.569Z" fill="#50567C"/>
<path d="M171.936 132.038H169.749V135.936H171.936V132.038Z" fill="#50567C"/>
<path d="M171.82 142.873V140.687C174.277 140.687 175.108 140.22 175.108 138.858C175.108 137.495 174.277 137.029 171.82 137.029H163.07V134.843H171.82C173.169 134.843 177.295 134.843 177.295 138.858C177.295 142.872 173.169 142.873 171.82 142.873Z" fill="#50567C"/>
<path d="M173.766 150.662H163.041V148.476H173.766C175.625 148.476 176.573 147.536 176.573 145.678C176.573 143.82 175.625 142.872 173.766 142.872H166.942V140.687H173.766C177.412 140.687 178.761 143.266 178.761 145.678C178.761 148.09 177.448 150.662 173.766 150.662Z" fill="#50567C"/>
<path d="M192.082 156.025L190.222 154.881C193.034 150.26 194.146 144.804 193.369 139.452C192.592 134.1 189.973 129.185 185.963 125.554C181.952 121.922 176.802 119.8 171.396 119.553C165.99 119.305 160.666 120.947 156.341 124.197L155.028 122.448C159.436 119.118 164.815 117.327 170.34 117.348C174.863 117.349 179.305 118.554 183.208 120.839C187.111 123.124 190.335 126.407 192.547 130.351C194.76 134.294 195.882 138.755 195.797 143.275C195.713 147.795 194.425 152.211 192.067 156.068L192.082 156.025Z" fill="#50567C"/>
<path d="M186.329 144.753L188.444 144.17L191.302 154.568L201.465 150.961L202.195 153.023L189.814 157.41L186.329 144.753Z" fill="#50567C"/>
<path d="M170.354 168.201C163.606 168.185 157.139 165.5 152.368 160.731C147.597 155.963 144.909 149.5 144.894 142.756C144.878 138.847 145.775 134.987 147.511 131.484L149.473 132.453C147.888 135.653 147.069 139.178 147.081 142.749C147.081 146.923 148.204 151.02 150.334 154.611C152.464 158.202 155.521 161.153 159.185 163.157C162.85 165.16 166.986 166.14 171.16 165.996C175.334 165.851 179.393 164.587 182.91 162.335L184.091 164.179C179.992 166.807 175.224 168.203 170.354 168.201Z" fill="#50567C"/>
<path d="M154.263 142.195L152.214 142.968L148.43 132.876L138.631 137.386L137.712 135.397L149.647 129.91L154.263 142.195Z" fill="#50567C"/>
<path d="M69.2414 134.216C73.1707 134.216 76.9391 135.776 79.7175 138.553C82.496 141.33 84.0569 145.096 84.0569 149.022C84.0569 152.949 82.496 156.715 79.7175 159.492C76.9391 162.269 73.1707 163.829 69.2414 163.829H24.7656C23.0726 163.869 21.3885 163.571 19.8125 162.952C18.2365 162.332 16.8003 161.404 15.5886 160.221C14.3768 159.039 13.4138 157.627 12.7564 156.067C12.0989 154.507 11.7603 152.832 11.7603 151.139C11.7603 149.447 12.0989 147.771 12.7564 146.212C13.4138 144.652 14.3768 143.239 15.5886 142.057C16.8003 140.875 18.2365 139.946 19.8125 139.327C21.3885 138.707 23.0726 138.409 24.7656 138.45H25.1885C26.0816 133.992 28.3894 129.941 31.7693 126.898C35.1491 123.855 39.4208 121.983 43.95 121.559C48.4792 121.136 53.0244 122.183 56.9107 124.546C60.7971 126.908 63.8173 130.461 65.5229 134.675C66.7376 134.364 67.9873 134.21 69.2414 134.216Z" fill="white"/>
<path d="M84.9898 151.238L82.8025 150.939C82.8902 150.304 82.9341 149.664 82.9337 149.023C82.9327 146.934 82.4545 144.874 81.5356 142.999C80.6167 141.123 79.2814 139.482 77.6315 138.201C75.9815 136.92 74.0606 136.032 72.0152 135.605C69.9697 135.179 67.8538 135.224 65.8288 135.739L64.5383 135.127C63.5125 132.61 61.9857 130.327 60.0506 128.417C58.1154 126.507 55.8122 125.01 53.2807 124.017C50.7491 123.024 48.042 122.554 45.3236 122.638C42.6051 122.722 39.932 123.356 37.4664 124.504L36.5186 122.522C39.1821 121.283 42.0644 120.584 44.9995 120.464C47.9347 120.343 50.8646 120.804 53.6208 121.82C56.3769 122.836 58.9047 124.387 61.0587 126.383C63.2127 128.379 64.9503 130.781 66.1715 133.451C67.176 133.259 68.1964 133.162 69.2191 133.16C71.4945 133.163 73.7427 133.653 75.8124 134.598C77.8821 135.543 79.7251 136.92 81.2175 138.636C82.7098 140.353 83.8167 142.369 84.4637 144.549C85.1106 146.729 85.2826 149.022 84.9679 151.274L84.9898 151.238Z" fill="#50567C"/>
<path d="M82.8752 157.205L80.9941 156.083C81.26 155.642 81.5033 155.187 81.7233 154.721L83.7137 155.624C83.4632 156.166 83.1833 156.694 82.8752 157.205V157.205Z" fill="#50567C"/>
<path d="M69.2411 164.922H24.7654C21.1741 164.88 17.7408 163.44 15.1952 160.908C12.6496 158.376 11.1926 154.952 11.1337 151.363C11.0748 147.774 12.4188 144.304 14.8799 141.69C17.3411 139.076 20.7253 137.524 24.3133 137.364C24.918 134.879 25.9544 132.519 27.3756 130.391L29.1984 131.601C27.7739 133.746 26.7831 136.15 26.2819 138.676L25.2101 139.55H24.7872C23.2389 139.511 21.6985 139.783 20.2567 140.348C18.8149 140.913 17.5009 141.761 16.3921 142.842C15.2833 143.923 14.4022 145.214 13.8005 146.641C13.1989 148.067 12.8889 149.599 12.8889 151.147C12.8889 152.695 13.1989 154.227 13.8005 155.653C14.4022 157.079 15.2833 158.371 16.3921 159.451C17.5009 160.532 18.8149 161.38 20.2567 161.945C21.6985 162.511 23.2389 162.782 24.7872 162.743H69.263C72.8624 162.75 76.3188 161.336 78.8799 158.809L80.4111 160.368C77.4379 163.304 73.4209 164.942 69.2411 164.922Z" fill="#50567C"/>
<path d="M31.0283 129.298L29.4023 127.841C29.8398 127.353 30.2992 126.886 30.7731 126.442L32.2677 128.038C31.8376 128.417 31.4147 128.839 31.0283 129.298Z" fill="#50567C"/>
</svg>
