<svg width="462" height="397" viewBox="0 0 462 397" fill="none" xmlns="http://www.w3.org/2000/svg">
<g clip-path="url(#clip0)">
<path d="M382.338 89.6851H384.413V93.8359H382.338V89.6851Z" fill="#8185A0"/>
<path d="M382.338 82.5036H384.413V73.8905H382.338V82.5036ZM382.338 66.7026H384.413V62.0606C384.414 60.6338 384.206 59.2145 383.797 57.8475L381.812 58.4424C382.16 59.617 382.337 60.8355 382.338 62.0606V66.7026ZM378.381 52.8664L379.819 51.3652C377.581 49.1998 374.713 47.7998 371.628 47.3666L371.338 49.442C373.986 49.8 376.452 50.9894 378.381 52.8388V52.8664ZM308.293 49.2898H316.913V47.2144H308.293V49.2898ZM324.094 49.2898H332.714V47.2144H324.094V49.2898ZM339.895 49.2898H348.508V47.2144H339.902L339.895 49.2898ZM355.696 49.2898H364.309V47.2144H355.696V49.2898Z" fill="#8185A0"/>
<path d="M296.948 47.1865H301.099V49.262H296.948V47.1865Z" fill="#8185A0"/>
<path d="M105.053 95.0601H109.204V97.1355H105.053V95.0601Z" fill="#8185A0"/>
<path d="M82.3346 214.681H84.4101V206.531H82.3346V214.681ZM82.3346 199.738H84.4101V191.581H82.3346V199.738ZM82.3346 184.788H84.4101V176.631H82.3346V184.788ZM82.3346 169.838H84.4101V161.688H82.3346V169.838ZM82.3346 154.895H84.4101V146.752H82.3346V154.895ZM82.3346 139.945H84.4101V131.788H82.3346V139.945ZM82.3346 124.995H84.4101V116.845H82.3346V124.995ZM82.3346 110.052H84.4101V109.934C84.4029 107.432 85.0954 104.979 86.4094 102.85L84.6245 101.785C83.101 104.242 82.2981 107.077 82.307 109.969L82.3346 110.052ZM90.8508 98.5538C92.505 97.6346 94.3684 97.158 96.2608 97.1702H98.2324V95.0947H96.2608C94.0136 95.1007 91.8047 95.6768 89.8407 96.7689L90.8508 98.5538Z" fill="#8185A0"/>
<path d="M82.3347 221.495H84.4102V225.646H82.3347V221.495Z" fill="#8185A0"/>
<path d="M215.245 45.9692H219.396V48.0447H215.245V45.9692Z" fill="#8185A0"/>
<path d="M177.022 118.388C178.647 118.252 180.222 117.762 181.638 116.955C183.053 116.147 184.276 115.04 185.22 113.711L183.574 112.452C182.809 113.543 181.815 114.455 180.662 115.122C179.509 115.79 178.225 116.199 176.898 116.319L177.022 118.388ZM188.257 106.482C188.418 105.496 188.499 104.499 188.499 103.5V97.4746H186.424V103.5C186.426 104.386 186.354 105.269 186.21 106.143L188.257 106.482ZM186.424 90.0999H188.499V81.2447H186.424V90.0999ZM186.424 73.8631H188.499V65.0148H186.424V73.8631ZM188.845 57.903C189.493 55.228 190.976 52.8289 193.079 51.0541L191.744 49.4699C189.299 51.5303 187.576 54.3176 186.825 57.4257L188.845 57.903ZM199.222 48.2177C199.908 48.1004 200.602 48.0403 201.298 48.0378H207.87V45.9624H201.298C200.479 45.9622 199.663 46.0316 198.856 46.1699L199.222 48.2177Z" fill="#8185A0"/>
<path d="M165.407 116.298H169.558V118.374H165.407V116.298Z" fill="#8185A0"/>
<path d="M221.311 232.281L223.386 232.29L223.37 236.44L221.294 236.432L221.311 232.281Z" fill="#8185A0"/>
<path d="M205.802 300.459H208.513C210.415 300.456 212.297 300.072 214.048 299.331L213.239 297.415C211.736 298.055 210.119 298.385 208.486 298.383H205.774L205.802 300.459ZM219.748 295.062C221.576 292.829 222.724 290.118 223.055 287.252L220.98 287.01C220.699 289.484 219.71 291.824 218.13 293.748L219.748 295.062ZM223.173 280.465L223.208 272.461H221.132L221.097 280.465H223.173ZM223.235 265.785L223.27 257.781H221.194L221.16 265.785H223.235ZM223.297 251.112L223.332 243.101H221.257L221.222 251.112H223.297Z" fill="#8185A0"/>
<path d="M194.968 298.383H199.119V300.458H194.968V298.383Z" fill="#8185A0"/>
<path d="M266.259 107.354H268.334V111.505H266.259V107.354Z" fill="#8185A0"/>
<path d="M223.602 177.787V175.483C223.607 173.821 223.988 172.182 224.716 170.689L222.848 169.783C221.986 171.557 221.534 173.503 221.527 175.476V177.78L223.602 177.787ZM228.521 166.178C230.459 164.753 232.747 163.88 235.142 163.653L234.941 161.578C232.172 161.842 229.525 162.851 227.283 164.497L228.521 166.178ZM241.485 163.584H249.213V161.508H241.472L241.485 163.584ZM255.827 163.397C258.577 162.952 261.145 161.738 263.236 159.897L261.852 158.333C260.059 159.912 257.859 160.957 255.502 161.349L255.827 163.397ZM267.262 154.321C267.99 152.54 268.363 150.634 268.362 148.71V146.323H266.287V148.71C266.292 150.371 265.97 152.016 265.339 153.553L267.262 154.321ZM266.287 139.876H268.362V132.141H266.287V139.876ZM266.287 125.694H268.362V117.952H266.287V125.694Z" fill="#8185A0"/>
<path d="M221.51 184.27L223.585 184.279L223.569 188.43L221.493 188.421L221.51 184.27Z" fill="#8185A0"/>
<path d="M292.804 324.63H296.955V326.706H292.804V324.63Z" fill="#8185A0"/>
<path d="M205.691 326.706H213.633V324.63H205.691V326.706ZM220.219 326.706H228.147V324.63H220.219V326.706ZM234.747 326.706H242.662V324.63H234.747V326.706ZM249.275 326.706H257.183V324.63H249.275V326.706ZM263.803 326.706H271.697V324.63H263.803V326.706ZM278.331 326.706H286.211V324.63H278.29L278.331 326.706Z" fill="#8185A0"/>
<path d="M194.968 324.63H199.119V326.706H194.968V324.63Z" fill="#8185A0"/>
<path d="M400.975 218.452H405.126V220.527H400.975V218.452Z" fill="#8185A0"/>
<path d="M325.312 326.706H333.344V324.631H325.312V326.706ZM340.041 326.706H348.073V324.631H340.041V326.706ZM354.769 326.706H362.815L362.781 324.631H354.769V326.706ZM369.706 324.873C372.241 323.475 374.317 321.372 375.683 318.819L373.856 317.837C372.679 320.038 370.889 321.85 368.702 323.053L369.706 324.873ZM377.44 311.922V303.869H375.365V311.832L377.44 311.922ZM377.44 297.187C377.467 294.694 378.23 292.266 379.633 290.206L377.91 289.037C376.282 291.438 375.397 294.265 375.365 297.166L377.44 297.187ZM384.178 286.083C386.039 285.074 388.122 284.546 390.238 284.547H391.435V282.472H390.238C387.777 282.473 385.354 283.086 383.189 284.257L384.178 286.083ZM413.186 284.547C415.966 284.548 418.69 283.764 421.045 282.285L419.945 280.528C417.918 281.796 415.576 282.469 413.186 282.472H412.861V284.547H413.186ZM398.132 284.547H406.164V282.472H398.132V284.547ZM426.012 277.179C427.359 274.906 428.076 272.315 428.087 269.673V268.981H426.012V269.673C426.001 271.944 425.382 274.17 424.22 276.121L426.012 277.179ZM426.012 262.264H428.087V254.232H426.012V262.264ZM426.012 247.535H428.087V239.503H426.012V247.535ZM426.012 232.848L428.087 232.772C427.997 229.884 427.09 227.08 425.472 224.685L423.757 225.854C425.139 227.931 425.908 230.355 425.977 232.848H426.012ZM419.191 221.779L420.139 219.932C418.25 218.957 416.155 218.449 414.03 218.452H411.851V220.527H413.995C415.791 220.525 417.561 220.954 419.156 221.779H419.191Z" fill="#8185A0"/>
<path d="M314.409 324.63H318.56V326.706H314.409V324.63Z" fill="#8185A0"/>
<path d="M127.833 261.592C129.012 261.591 130.164 261.939 131.144 262.593C132.125 263.246 132.889 264.176 133.341 265.265C133.793 266.353 133.912 267.551 133.683 268.707C133.454 269.862 132.887 270.924 132.055 271.758C131.222 272.592 130.16 273.16 129.005 273.39C127.849 273.621 126.651 273.503 125.562 273.053C124.474 272.602 123.543 271.838 122.888 270.859C122.233 269.879 121.884 268.727 121.884 267.549C121.884 265.97 122.51 264.456 123.626 263.339C124.742 262.222 126.255 261.594 127.833 261.592Z" fill="#E2E6E9"/>
<path d="M134.025 278.237C132.143 279.325 130.007 279.898 127.833 279.898C125.659 279.898 123.524 279.325 121.641 278.237C120.769 277.739 119.962 277.132 119.241 276.432C117.064 274.333 115.731 271.511 115.492 268.497C115.253 265.483 116.125 262.486 117.943 260.07C119.761 257.655 122.4 255.988 125.363 255.384C128.325 254.78 131.406 255.281 134.025 256.791C134.77 257.222 135.465 257.733 136.1 258.313C137.553 259.62 138.676 261.251 139.377 263.074C140.079 264.898 140.339 266.861 140.136 268.804C139.934 270.747 139.275 272.615 138.213 274.254C137.15 275.894 135.715 277.259 134.025 278.237ZM133.783 267.514C133.783 266.338 133.434 265.187 132.78 264.209C132.126 263.231 131.197 262.468 130.11 262.018C129.023 261.567 127.827 261.45 126.672 261.679C125.518 261.909 124.458 262.475 123.626 263.307C122.794 264.14 122.227 265.2 121.998 266.354C121.768 267.508 121.886 268.704 122.336 269.791C122.787 270.878 123.549 271.808 124.528 272.461C125.506 273.115 126.656 273.464 127.833 273.464C129.41 273.462 130.923 272.835 132.038 271.719C133.153 270.604 133.781 269.092 133.783 267.514Z" fill="#B1B3C5"/>
<path d="M129.84 315.07V339.207H125.834V315.07C127.138 315.476 128.535 315.476 129.84 315.07Z" fill="#E2E6E9"/>
<path d="M123.281 303.717C122.277 304.639 121.58 305.846 121.281 307.176L100.375 295.111L102.381 291.652L123.281 303.717Z" fill="#E2E2E9"/>
<path d="M134.385 307.183C134.496 307.666 134.552 308.161 134.551 308.656C134.55 310.088 134.093 311.481 133.246 312.635C132.398 313.788 131.205 314.641 129.839 315.07C128.535 315.476 127.138 315.476 125.834 315.07C124.467 314.642 123.272 313.79 122.424 312.636C121.575 311.483 121.117 310.088 121.116 308.656C121.115 308.161 121.17 307.666 121.282 307.183C121.618 305.697 122.45 304.37 123.641 303.419C124.831 302.468 126.31 301.95 127.833 301.95C129.357 301.95 130.835 302.468 132.026 303.419C133.216 304.37 134.048 305.697 134.385 307.183Z" fill="#E2E6E9"/>
<path d="M153.292 291.645L155.291 295.104L134.392 307.183C134.094 305.853 133.396 304.646 132.393 303.724L153.292 291.645Z" fill="#E2E2E9"/>
<path d="M60.8259 350.864V366.962H194.968V237.801L143.822 232.523L135.673 233.858L125.628 230.17L118.855 231.111L118.412 225.646H60.8259V255.131H76.101V255.124V241.737H179.693V350.864H76.101V332.233H71.4936V350.864H60.8259Z" fill="#E2E6E9"/>
<path d="M194.904 332.233H184.236V350.864H194.904V332.233Z" fill="#E2E6E9"/>
<path d="M194.904 319.103V332.233H184.237H179.629H165.094V319.103H179.629H194.904Z" fill="#E2E6E9"/>
<path d="M194.904 286.892V319.102H179.629V268.254H184.236V286.892H194.904Z" fill="#E2E6E9"/>
<path d="M194.904 268.254H184.236V286.892H194.904V268.254Z" fill="#E2E6E9"/>
<path d="M194.904 255.131V268.255H184.237H179.629H165.094V255.131H179.629H194.904Z" fill="#E2E6E9"/>
<path d="M125.142 339.816L126.65 341.545H131.203L133.79 339.207L133.396 316.938C137.872 314.509 137.636 310.822 137.636 310.822L156.391 299.4L155.291 295.104L153.292 291.645L132.365 303.717C131.124 302.574 129.499 301.939 127.813 301.939C126.126 301.939 124.501 302.574 123.261 303.717L102.361 291.645L100.355 295.104L121.296 307.183C121.184 307.666 121.129 308.161 121.13 308.657C121.131 310.089 121.589 311.483 122.438 312.636C123.286 313.79 124.481 314.642 125.848 315.07V339.207L125.142 339.816ZM121.642 256.799C119.98 257.756 118.563 259.087 117.504 260.686C116.444 262.285 115.77 264.108 115.535 266.012C115.301 267.915 115.511 269.847 116.151 271.656C116.79 273.464 117.841 275.099 119.22 276.432L119.103 276.55C120.13 278.35 121.567 279.883 123.297 281.026C125.026 282.169 127 282.889 129.059 283.128C131.118 283.367 133.205 283.118 135.15 282.403C137.096 281.687 138.845 280.523 140.258 279.006C141.671 277.49 142.707 275.662 143.284 273.671C143.86 271.679 143.96 269.58 143.575 267.543C143.191 265.507 142.333 263.589 141.07 261.944C139.808 260.3 138.177 258.976 136.308 258.078L136.101 258.314C135.466 257.733 134.77 257.223 134.025 256.792C132.143 255.704 130.007 255.131 127.833 255.131C125.66 255.131 123.524 255.704 121.642 256.792V256.799ZM179.629 332.24V350.836H76.0376V241.738H179.629V255.124H165.101V268.269H179.629V319.117H165.101V332.261L179.629 332.24Z" fill="#E2E6E9"/>
<path d="M155.292 295.118L156.392 299.414L137.637 310.836C137.637 310.836 137.872 314.523 133.396 316.951L133.79 339.207L131.203 341.545H126.651L125.143 339.816L125.834 339.207H129.84V315.069C131.206 314.641 132.399 313.788 133.246 312.635C134.093 311.481 134.551 310.088 134.551 308.656C134.552 308.16 134.497 307.666 134.385 307.183L155.292 295.118Z" fill="#B1B3C5"/>
<path d="M136.329 258.078C138.202 258.974 139.838 260.298 141.104 261.943C142.37 263.587 143.232 265.507 143.618 267.547C144.005 269.586 143.906 271.688 143.33 273.683C142.754 275.677 141.716 277.508 140.301 279.027C138.887 280.546 137.134 281.71 135.186 282.427C133.237 283.143 131.147 283.39 129.086 283.149C127.024 282.908 125.048 282.185 123.317 281.038C121.587 279.892 120.15 278.354 119.124 276.549L119.242 276.432C119.963 277.132 120.769 277.739 121.642 278.237C124.292 279.766 127.414 280.26 130.406 279.623C133.398 278.987 136.049 277.266 137.847 274.791C139.646 272.316 140.465 269.264 140.146 266.221C139.827 263.179 138.394 260.362 136.122 258.313L136.329 258.078Z" fill="#B1B3C5"/>
<path d="M136.427 227.548L127.897 224.795L122.113 225.646H118.412L118.855 231.111L125.628 230.17L135.673 233.858L143.822 232.522L194.968 237.801V231.921L142.369 226.199L136.427 227.548Z" fill="#B1B3C5"/>
<path d="M60.8262 368H194.968L196.006 366.962V231.921H193.93V365.924H61.8639V350.864H59.7885V366.962L60.8262 368Z" fill="#50567C"/>
<path d="M195.942 286.892H193.867V319.103H195.942V286.892Z" fill="#50567C"/>
<path d="M59.7881 355.131H61.8635V226.684H122.113V224.608H60.8258L59.7881 225.646V355.131Z" fill="#50567C"/>
<path d="M179.629 351.902H76.0377L75 350.864V241.738L76.0377 240.7H179.629L180.667 241.738V255.124H178.592V242.776H77.0754V349.826H178.592V332.234H180.667V350.864L179.629 351.902Z" fill="#50567C"/>
<path d="M180.667 268.254H178.591V319.102H180.667V268.254Z" fill="#50567C"/>
<path d="M184.237 269.292H165.094L164.057 268.255V255.131L165.094 254.093H194.904L195.942 255.131V268.255H193.867V256.169H166.132V267.217H184.237V269.292Z" fill="#50567C"/>
<path d="M194.904 287.93H184.251L183.213 286.892V268.255L184.251 267.217H194.904L195.942 268.255V286.892L194.904 287.93ZM185.274 285.854H193.867V269.292H185.274V285.854Z" fill="#50567C"/>
<path d="M184.237 333.271H165.094L164.057 332.233V319.103L165.094 318.065H194.904L195.942 319.103V332.233H193.867V320.14H166.132V331.195H184.237V333.271Z" fill="#50567C"/>
<path d="M194.904 351.902H184.251L183.213 350.864V332.234L184.251 331.196H194.904L195.942 332.234V350.836L194.904 351.902ZM185.274 349.826H193.867V333.271H185.274V349.826Z" fill="#50567C"/>
<path d="M127.833 316.412C126.813 316.412 125.803 316.21 124.861 315.819C123.919 315.428 123.063 314.855 122.342 314.133C121.622 313.41 121.051 312.553 120.663 311.61C120.274 310.666 120.075 309.656 120.078 308.636C120.076 308.06 120.141 307.487 120.272 306.927C120.656 305.208 121.615 303.672 122.989 302.571C124.364 301.47 126.072 300.87 127.833 300.87C129.595 300.87 131.303 301.47 132.678 302.571C134.052 303.672 135.01 305.208 135.395 306.927C135.526 307.482 135.591 308.051 135.589 308.622C135.589 309.64 135.389 310.649 135 311.591C134.611 312.532 134.039 313.387 133.319 314.108C132.599 314.828 131.744 315.399 130.802 315.788C129.861 316.178 128.852 316.378 127.833 316.377V316.412ZM127.833 302.977C126.544 302.976 125.293 303.415 124.287 304.221C123.28 305.027 122.579 306.153 122.299 307.411C122.202 307.819 122.153 308.237 122.154 308.656C122.155 309.547 122.365 310.425 122.767 311.22C123.17 312.014 123.754 312.703 124.471 313.231C125.189 313.759 126.02 314.11 126.899 314.258C127.777 314.405 128.678 314.345 129.528 314.08C130.826 313.677 131.937 312.821 132.658 311.668C133.379 310.516 133.662 309.143 133.457 307.799C133.252 306.455 132.572 305.23 131.54 304.345C130.508 303.46 129.193 302.974 127.833 302.977Z" fill="#50567C"/>
<path d="M129.84 340.245H125.834L124.796 339.207V315.07H126.872V338.169H128.802V315.07H130.877V339.207L129.84 340.245Z" fill="#50567C"/>
<path d="M120.763 308.082L99.8566 296.017L99.4761 294.599L101.482 291.126L102.901 290.746L123.8 302.818L122.762 304.616L102.762 293.063L101.794 294.744L121.801 306.291L120.763 308.082Z" fill="#50567C"/>
<path d="M134.911 308.082L133.873 306.291L153.873 294.737L152.912 293.063L132.904 304.616L131.867 302.818L152.773 290.746L154.191 291.126L156.191 294.599L155.81 296.017L134.911 308.082Z" fill="#50567C"/>
<path d="M127.833 280.963C125.477 280.966 123.162 280.345 121.123 279.165C120.177 278.623 119.303 277.966 118.521 277.207C116.154 274.935 114.701 271.875 114.438 268.604C114.174 265.334 115.119 262.08 117.092 259.459C119.066 256.838 121.932 255.031 125.148 254.38C128.363 253.729 131.706 254.279 134.544 255.927C135.36 256.391 136.124 256.943 136.82 257.573C138.836 259.391 140.254 261.776 140.886 264.416C141.518 267.056 141.335 269.825 140.361 272.359C139.387 274.892 137.667 277.071 135.43 278.607C133.192 280.143 130.541 280.965 127.826 280.963H127.833ZM127.833 256.196C125.189 256.201 122.63 257.131 120.6 258.824C118.569 260.518 117.195 262.868 116.716 265.469C116.237 268.069 116.683 270.755 117.976 273.061C119.269 275.367 121.329 277.148 123.797 278.095C126.266 279.042 128.988 279.095 131.492 278.246C133.996 277.397 136.123 275.698 137.506 273.444C138.889 271.191 139.44 268.525 139.063 265.908C138.686 263.291 137.406 260.888 135.443 259.116C134.857 258.585 134.215 258.121 133.527 257.732C131.802 256.714 129.836 256.174 127.833 256.169V256.196Z" fill="#50567C"/>
<path d="M127.834 274.502C126.45 274.503 125.097 274.094 123.945 273.326C122.794 272.558 121.896 271.465 121.366 270.187C120.836 268.909 120.697 267.502 120.967 266.145C121.236 264.787 121.903 263.54 122.881 262.562C123.86 261.583 125.107 260.917 126.464 260.647C127.821 260.378 129.228 260.517 130.506 261.047C131.785 261.577 132.877 262.475 133.645 263.626C134.413 264.777 134.822 266.13 134.821 267.514C134.819 269.367 134.082 271.143 132.772 272.453C131.462 273.763 129.686 274.5 127.834 274.502ZM127.834 262.596C126.861 262.594 125.909 262.881 125.099 263.421C124.289 263.961 123.658 264.728 123.284 265.627C122.911 266.526 122.813 267.515 123.002 268.47C123.191 269.424 123.659 270.301 124.346 270.99C125.034 271.679 125.91 272.148 126.865 272.338C127.819 272.528 128.808 272.431 129.707 272.059C130.607 271.687 131.375 271.057 131.916 270.248C132.457 269.439 132.745 268.487 132.745 267.514C132.744 266.212 132.226 264.963 131.305 264.041C130.385 263.119 129.136 262.599 127.834 262.596Z" fill="#50567C"/>
<path d="M128.871 255.131H126.796V259.019H128.871V255.131Z" fill="#50567C"/>
<path d="M128.871 261.558H126.796V265.452H128.871V261.558Z" fill="#50567C"/>
<path d="M122.686 260.672L120.742 257.31L120.604 256.791H121.649L122.541 256.272L124.485 259.635L122.686 260.672Z" fill="#50567C"/>
<path d="M117.628 260.416L116.591 262.213L119.959 264.156L120.996 262.358L117.628 260.416Z" fill="#50567C"/>
<path d="M119.338 266.477H115.45V268.552H119.338V266.477Z" fill="#50567C"/>
<path d="M121.206 271.918L117.823 273.862L118.861 275.668L122.243 273.724L121.206 271.918Z" fill="#50567C"/>
<path d="M122.677 274.328L120.733 277.695L122.531 278.733L124.475 275.365L122.677 274.328Z" fill="#50567C"/>
<path d="M128.871 276.003H126.796V279.898H128.871V276.003Z" fill="#50567C"/>
<path d="M132.976 274.385L131.179 275.423L133.122 278.79L134.92 277.753L132.976 274.385Z" fill="#50567C"/>
<path d="M135.704 270.859L134.667 272.657L138.034 274.6L139.071 272.802L135.704 270.859Z" fill="#50567C"/>
<path d="M140.217 266.477H136.329V268.552H140.217V266.477Z" fill="#50567C"/>
<path d="M139.358 261.428L135.975 263.372L137.013 265.178L140.395 263.234L139.358 261.428Z" fill="#50567C"/>
<path d="M132.98 260.672L131.182 259.635L133.126 256.272L134.018 256.791L135.063 256.784L134.924 257.31L132.98 260.672Z" fill="#50567C"/>
<path d="M117.257 171.927L112.663 178.382L114.012 186.773L118.156 192.848L118.855 172.903L117.257 171.927Z" fill="#586989"/>
<path d="M118.156 192.847L122.113 198.658V174.895L118.855 172.902L118.156 192.847Z" fill="#495575"/>
<path d="M122.114 198.659V225.646L127.247 224.581L136.427 227.549L142.37 226.2L140.281 222.505L138.856 219.987L129.17 217.932H126.23L124.847 169.762H122.114V174.895V198.659Z" fill="#495575"/>
<path d="M130.726 178.873L127.786 169.762H124.846L126.23 217.932H129.17L138.855 219.987V207.299L140.204 200.277L133.189 186.504L130.726 178.873Z" fill="#586989"/>
<path d="M130.726 178.873L133.189 186.504L140.204 200.278L149.481 192.163L137.707 185.473L130.726 178.873Z" fill="#586989"/>
<path d="M138.856 207.299V219.987L140.281 222.505L143.899 209.977V200.734L140.205 200.277L138.856 207.299Z" fill="#B1B3C5"/>
<path d="M143.899 200.734L146.956 201.115L146.922 199.606L156.967 201.419L156.012 194.736L155.362 192.847L149.481 192.163L140.204 200.278L143.899 200.734Z" fill="#B1B3C5"/>
<path d="M143.899 209.977L140.281 222.506L142.37 226.2L143.823 222.063L147.227 212.364L146.957 201.115L143.899 200.734V209.977Z" fill="#888EAA"/>
<path d="M143.823 222.063L142.37 226.2L211.419 233.706L223.305 232.15L230.596 228.545L232.727 232.15L287.871 274.191H290.362L236.574 228.912L230.347 225.647L208.382 229.832L143.823 222.063Z" fill="#8891AA"/>
<path d="M146.957 201.115L147.227 212.363L143.823 222.063L208.383 229.832L230.348 225.646L236.574 228.912L290.362 274.19H295.896L244.53 227.03L243.319 224.332L234.152 223.986L219.106 221.219L156.967 201.419L146.922 199.606L146.957 201.115Z" fill="#B1B8C5"/>
<path d="M154.234 189.575L155.362 192.847L156.012 194.736L156.967 201.419L221.347 218.742L244.128 220.561L248.915 217.884L248.68 222.996L302.842 274.19H332.216L348.314 268.255L337.986 245.473L325.201 234.909L325.187 234.902L320.753 231.236L332.97 251.312L335.156 263.509L327.954 268.255L306.951 266.878L255.826 222.083L252.312 211.187H249.891L240.205 215.511L205.096 209.112L167.219 199.606L158.399 189.575V189.506L154.234 189.575Z" fill="#8892AA"/>
<path d="M156.967 201.419L219.106 221.219L234.153 223.986L243.319 224.332L244.53 227.03L295.897 274.19H302.842L248.681 222.996L248.916 217.884L244.128 220.561L221.347 218.742L156.967 201.419Z" fill="#888EAA"/>
<path d="M315.343 227.023L305.685 220.561L305.588 220.485L268.196 190.551L254.457 185.473L242.606 188.06L158.399 189.506V189.575L167.219 199.606L205.096 209.112L240.205 215.511L249.891 211.187H252.312L255.826 222.083L306.951 266.878L327.955 268.255L335.156 263.509L332.97 251.312L320.753 231.236L317.031 228.157L315.343 227.023Z" fill="#B1B8C5"/>
<path d="M252.264 353.195H260.96L296.955 344.015H300.898L304.717 353.195H308.473L309.906 351.431V351.424L312.389 344.873L314.734 344.098L350.722 353.195H359.1L314.478 338.321H314.409H296.955H296.886L252.264 353.195Z" fill="#E2E6E9"/>
<path d="M254.955 357.872C254.271 358.202 253.676 358.691 253.218 359.298C252.761 359.904 252.454 360.611 252.324 361.359C252.193 362.108 252.243 362.876 252.468 363.602C252.694 364.327 253.089 364.989 253.62 365.531C254.152 366.074 254.805 366.482 255.526 366.723C256.246 366.963 257.014 367.028 257.765 366.913C258.516 366.798 259.229 366.506 259.844 366.061C260.46 365.616 260.961 365.031 261.306 364.354L261.153 364.278C260.565 364.529 259.932 364.658 259.292 364.658C258.664 364.658 258.042 364.534 257.462 364.294C256.881 364.053 256.354 363.7 255.91 363.256C255.466 362.811 255.114 362.283 254.874 361.702C254.634 361.122 254.511 360.499 254.512 359.871C254.512 359.18 254.663 358.498 254.955 357.872Z" fill="#B1B3C5"/>
<path d="M254.954 357.872C254.662 358.498 254.511 359.181 254.512 359.871C254.511 360.5 254.634 361.122 254.874 361.703C255.113 362.284 255.465 362.811 255.909 363.256C256.353 363.701 256.881 364.053 257.461 364.294C258.042 364.535 258.664 364.659 259.292 364.659C259.932 364.659 260.565 364.529 261.153 364.278L261.305 364.354C261.654 363.681 261.834 362.933 261.831 362.175C261.832 361.547 261.709 360.924 261.469 360.344C261.229 359.763 260.877 359.235 260.433 358.79C259.989 358.346 259.462 357.993 258.882 357.752C258.301 357.512 257.679 357.388 257.051 357.388C256.324 357.386 255.607 357.551 254.954 357.872Z" fill="#E2E6E9"/>
<path d="M255.827 274.19V278.825H301.528H309.843H341.425L349.332 274.19L362.31 261.862L383.583 228.911L418.001 185.473H410.37L410.322 185.431L404.511 191.706L378.997 223.605L357.426 257.926L348.315 268.255L332.217 274.19H302.842H295.897H290.362H287.872H255.827Z" fill="#B1B9C5"/>
<path d="M260.96 353.195H265.235L298.407 347.66L302.89 353.195H304.717L300.898 344.015H296.955L260.96 353.195Z" fill="#B1B3C5"/>
<path d="M296.954 309.916V338.321H314.409V335.367H301.527V309.916H296.954Z" fill="#B1B3C5"/>
<path d="M301.527 309.916V335.367H314.409V309.916H309.843H304.716H301.527Z" fill="#E2E6E9"/>
<path d="M301.528 291.645H304.717V309.915H301.528V291.645Z" fill="#B1B3C5"/>
<path d="M301.527 278.825V291.644H304.716V282.789H309.843V278.825H301.527Z" fill="#B1B3C5"/>
<path d="M303.734 357.803C303.031 358.114 302.413 358.59 301.933 359.19C301.452 359.79 301.123 360.497 300.974 361.252C300.825 362.006 300.86 362.785 301.075 363.523C301.291 364.261 301.681 364.936 302.213 365.492C302.744 366.047 303.402 366.466 304.13 366.714C304.858 366.961 305.635 367.03 306.395 366.913C307.155 366.797 307.876 366.499 308.496 366.045C309.117 365.591 309.619 364.995 309.96 364.306H309.905C309.178 364.615 308.385 364.738 307.598 364.666C306.811 364.593 306.055 364.327 305.396 363.89C304.737 363.453 304.197 362.86 303.824 362.164C303.451 361.467 303.256 360.689 303.257 359.899C303.253 359.173 303.416 358.456 303.734 357.803Z" fill="#B1B3C5"/>
<path d="M303.734 357.803C303.42 358.449 303.257 359.159 303.257 359.878C303.256 360.668 303.451 361.446 303.824 362.143C304.198 362.839 304.738 363.432 305.396 363.869C306.055 364.306 306.812 364.572 307.599 364.645C308.385 364.717 309.178 364.594 309.905 364.285H309.961C310.295 363.624 310.468 362.894 310.466 362.154C310.467 361.526 310.344 360.903 310.104 360.323C309.864 359.742 309.512 359.214 309.068 358.769C308.624 358.325 308.097 357.972 307.516 357.731C306.936 357.491 306.314 357.367 305.685 357.367C305.011 357.37 304.346 357.519 303.734 357.803Z" fill="#E2E6E9"/>
<path d="M304.716 291.645H309.843V309.915H304.716V291.645Z" fill="#E2E6E9"/>
<path d="M304.716 282.79V291.645H309.843V286.823V282.79H304.716Z" fill="#E2E6E9"/>
<path d="M343.423 155.566L333.738 172.633V172.64L326.972 184.553L315.896 205.314L305.588 220.486L305.685 220.562L315.343 227.023L324.419 216.176L334.43 200.361L359.051 163.985L365.319 158.665L370.017 154.072L358.505 153.076L356.111 146.31L353.385 146.095L341.244 135.234L334.859 130.121L330.597 126.711L348.315 124.864V108.392L314.831 110.1L306.951 119.045L316.221 133.013L335.329 157.489L337.834 159.911L343.423 155.566Z" fill="#E2E6E9"/>
<path d="M306.951 119.045L311.635 135.448L329.407 162.546L333.738 172.633L343.423 155.566L337.834 159.911L335.329 157.489L316.221 133.013L306.951 119.045Z" fill="#B1B9C5"/>
<path d="M309.905 351.424L312.956 347.66L346.129 353.195H350.722L314.734 344.098L312.389 344.872L309.905 351.424Z" fill="#B1B3C5"/>
<path d="M410.37 144.088L404.116 144.877L401.293 145.237L399.585 145.451L395.565 148.239L384.967 159.91L370.017 154.071L365.319 158.665L359.052 163.985L334.43 200.36L324.42 216.175L315.343 227.023L317.031 228.157L320.753 231.236L325.187 234.902L325.201 234.909L329.532 236.895L346.398 244.913L353.144 250.101L363.064 233.671L369.131 227.03L367.616 223.294L375.537 218.624L399.841 186.379L437.198 147.326L444.116 136.437L448.862 120.934L430.938 111.518L422.74 113.642L418.139 126.71L418.056 126.959V126.973L416.652 131.186L418.769 132.653L410.37 144.088Z" fill="#E2E6E9"/>
<path d="M325.201 234.91L337.986 245.474L348.315 268.255L357.426 257.926L378.996 223.606L404.51 191.706L410.322 185.432L442.484 150.703L448.862 139.461V120.934L444.116 136.438L437.198 147.327L399.841 186.379L375.537 218.625L367.616 223.294L369.131 227.03L363.064 233.671L353.144 250.102L346.398 244.913L329.532 236.895L325.201 234.91Z" fill="#B1B9C5"/>
<path d="M328.003 286.823H339.771V289.189H328.003V286.823Z" fill="#E2E2E9"/>
<path d="M330.597 126.71L334.859 130.121L348.314 127.776V124.863L330.597 126.71Z" fill="#B1B9C5"/>
<path d="M341.424 278.825H354.119C376.319 258.984 406.842 204.76 427.022 185.493H418.028L383.611 228.932L362.338 261.883L349.359 274.211L341.424 278.825Z" fill="#E2E2E9"/>
<path d="M348.315 127.776V130.543H358.284L358.408 126.71L358.457 125.458H358.367L348.315 124.863V127.776Z" fill="#B1B9C5"/>
<path d="M348.314 108.392V124.864L358.366 125.459H358.456L358.505 123.943L358.92 111.519L358.989 109.388L348.314 108.392Z" fill="#E2E2E9"/>
<path d="M352.493 357.754C351.776 358.047 351.14 358.511 350.642 359.104C350.143 359.697 349.796 360.403 349.63 361.16C349.464 361.917 349.484 362.703 349.689 363.451C349.894 364.198 350.278 364.885 350.807 365.451C351.335 366.018 351.994 366.447 352.725 366.703C353.457 366.959 354.24 367.034 355.007 366.92C355.773 366.807 356.501 366.509 357.127 366.052C357.753 365.596 358.259 364.994 358.602 364.298C358.028 364.54 357.412 364.665 356.789 364.665C355.519 364.665 354.302 364.161 353.404 363.263C352.506 362.365 352.002 361.147 352.002 359.878C352.006 359.157 352.176 358.447 352.5 357.802L352.493 357.754Z" fill="#B1B3C5"/>
<path d="M352.5 357.754C352.177 358.399 352.006 359.109 352.002 359.83C352.002 361.1 352.506 362.317 353.404 363.215C354.302 364.113 355.52 364.617 356.789 364.617C357.412 364.617 358.028 364.492 358.602 364.251C358.93 363.593 359.101 362.868 359.1 362.134C359.101 361.505 358.978 360.883 358.738 360.302C358.498 359.721 358.146 359.193 357.702 358.749C357.258 358.304 356.731 357.951 356.151 357.711C355.57 357.47 354.948 357.346 354.32 357.346C353.693 357.343 353.072 357.465 352.493 357.706L352.5 357.754Z" fill="#E2E6E9"/>
<path d="M356.112 146.31L358.505 153.075L370.017 154.072L374.258 149.928L372.272 148.918L360.207 151.208V146.628L356.112 146.31Z" fill="#B1B3C5"/>
<path d="M358.457 125.458L358.408 126.71H358.415H364.136L367.658 119.024L366.17 114.783L367.084 112.189L367.319 111.518H363.355L362.711 114.756L363.825 118.485L361.577 123.943H358.505L358.457 125.458Z" fill="#E2E2E9"/>
<path d="M358.92 111.518L358.505 123.943H361.577L363.825 118.485L362.711 114.756L363.355 111.518H358.92Z" fill="white"/>
<path d="M360.207 146.628V151.208L372.272 148.918L369.131 147.327L360.207 146.628Z" fill="#E2E2E9"/>
<path d="M364.116 126.69L363.043 129.035L366.752 130.045L365.562 133.504L367.596 134.016L370.619 134.77H378.568L372.639 138.229L370.204 139.142L367.616 138.838L366.087 138.658L366.274 145.894L369.131 147.34L380.892 148.336L390.135 144.926L396.672 140.976L392.757 146.323L399.55 145.465L401.259 145.251L402.518 136.534L403.874 127.382L400.892 124.192L396.416 127.382L394.417 133.552L390.342 133.255L389.761 125.88L385.825 116.596V115.213H379.799L367.346 112.279L367.111 112.196L366.198 114.791L367.685 119.031L364.116 126.69ZM372.251 125.548L371.663 119.045L376.382 118.353L383.486 121.674L380.242 126.973L372.251 125.548ZM400.975 130.149L398.706 129.298L400.325 128.073L400.975 130.149Z" fill="white"/>
<path d="M368.674 107.686L381.715 111.518L393.649 112.653L388.958 115.634L389.761 125.846L390.342 133.22L394.417 133.518L396.416 127.347L400.892 124.157L403.874 127.347L402.552 136.52L401.293 145.237L404.116 144.877L412.819 129.056L414.306 113.289L412.819 109.491H412.812L405.742 104.669L384.164 98.6851L374.264 99.6259L363.825 106.26L368.674 107.686Z" fill="#586689"/>
<path d="M367.319 111.519L367.083 112.19L367.319 112.273L379.799 115.206H385.825V116.562L389.761 125.846L388.958 115.635L393.649 112.653L381.715 111.519L368.675 107.686L367.319 111.519Z" fill="#E2E2E9"/>
<path d="M374.257 149.927L375.537 150.571H381.715L392.791 146.309L396.707 140.961L390.169 144.912L380.926 148.322L369.131 147.326L372.272 148.917L374.257 149.927Z" fill="#E2E2E9"/>
<path d="M370.017 154.072L384.967 159.911L395.565 148.24L382.995 156.957L375.538 150.571L374.258 149.928L370.017 154.072Z" fill="#B1B3C5"/>
<path d="M371.684 119.066L372.272 125.569L380.221 126.973L383.466 121.674L376.402 118.374L371.684 119.066Z" fill="#E2E2E9"/>
<path d="M374.264 99.6259L384.164 98.685L405.742 104.669L412.812 109.491L410.045 102.428L383.376 93.8354L374.264 99.6259Z" fill="#607791"/>
<path d="M375.537 150.571L382.995 156.956L395.565 148.24L399.584 145.452L392.791 146.31L381.715 150.571H375.537Z" fill="#E2E2E9"/>
<path d="M398.706 129.298L400.975 130.121L400.325 128.052L398.706 129.298Z" fill="#E2E2E9"/>
<path d="M414.307 113.289L412.819 129.055L416.652 131.186L418.056 126.973V126.959L418.215 113.455L414.307 113.289Z" fill="#E2E2E9"/>
<path d="M418.056 126.959L418.139 126.71L422.74 113.642L418.215 113.455L418.056 126.959Z" fill="white"/>
<path d="M376.693 116.769L371.684 117.08V119.066L376.402 118.374L383.466 121.674L376.693 116.769Z" fill="#B1B3C5"/>
<path d="M367.616 136.396V134.05L370.639 134.804H378.567L374.922 136.921H370.529L367.616 136.396Z" fill="white"/>
<path d="M370.529 136.922H374.922L372.639 138.243L370.204 139.129L367.616 138.824V136.396L370.529 136.922Z" fill="#E2E2E9"/>
<path d="M255.826 279.863H354.119L354.81 279.6C366.571 269.057 380.684 248.96 394.292 229.52C406.627 211.907 418.277 195.269 427.762 186.227L427.07 184.435H410.37V186.51H424.496C415.24 195.981 404.24 211.72 392.597 228.33C379.162 247.507 365.277 267.335 353.717 277.788H256.885V275.228H302.842V273.153H255.799L254.761 274.19V278.826L255.826 279.863Z" fill="#50567C"/>
<path d="M295.917 338.321H297.992V310.953H313.371V338.321H315.447V309.916L314.409 308.878H296.955L295.917 309.916V338.321Z" fill="#50567C"/>
<path d="M300.49 278.825H302.565V309.915H300.49V278.825Z" fill="#50567C"/>
<path d="M308.805 278.825H310.88V309.915H308.805V278.825Z" fill="#50567C"/>
<path d="M252.264 354.233L265.408 354.219L297.985 348.788L302.088 353.853L302.89 354.233H308.473L309.276 353.853L310.708 352.088L309.096 350.781L307.982 352.158H303.389L299.217 347.011L298.235 346.637L265.145 352.158H258.656L297.052 339.359H314.312L323.589 342.452L324.247 340.487L314.803 337.339L314.409 337.284H296.886L296.56 337.339L251.939 352.213L252.264 354.233Z" fill="#50567C"/>
<path d="M330.635 342.61L332.755 343.316L332.099 345.285L329.979 344.579L330.635 342.61Z" fill="#50567C"/>
<path d="M346.129 354.233H359.1L359.425 352.213L337.114 344.776L336.464 346.748L352.708 352.157H346.212L313.129 346.637L312.147 347.01L309.096 350.774L310.715 352.081L313.378 348.788L346.129 354.233Z" fill="#50567C"/>
<path d="M305.685 368C306.77 368.006 307.835 367.705 308.756 367.132C309.678 366.559 310.419 365.738 310.895 364.763C311.299 363.96 311.507 363.074 311.503 362.175C311.503 360.631 310.891 359.151 309.8 358.059C308.709 356.966 307.229 356.352 305.685 356.35C304.864 356.347 304.053 356.522 303.305 356.862C302.09 357.408 301.099 358.354 300.497 359.543C299.895 360.731 299.719 362.09 299.997 363.392C300.275 364.695 300.992 365.863 302.027 366.701C303.062 367.54 304.353 367.998 305.685 368ZM305.685 358.426C306.679 358.427 307.63 358.823 308.332 359.526C309.034 360.229 309.428 361.182 309.428 362.175C309.431 362.754 309.295 363.326 309.034 363.842C308.727 364.468 308.25 364.994 307.658 365.362C307.066 365.729 306.382 365.921 305.685 365.918C304.826 365.918 303.993 365.624 303.325 365.083C302.658 364.543 302.195 363.79 302.016 362.95C301.837 362.11 301.952 361.234 302.342 360.468C302.731 359.702 303.372 359.094 304.156 358.744C304.639 358.536 305.16 358.434 305.685 358.446V358.426Z" fill="#50567C"/>
<path d="M257.051 368C258.124 368.003 259.177 367.708 260.092 367.147C261.007 366.586 261.748 365.782 262.233 364.825C262.657 364.006 262.875 363.097 262.869 362.175C262.869 361.023 262.527 359.896 261.887 358.938C261.246 357.98 260.336 357.234 259.272 356.793C258.207 356.352 257.035 356.237 255.905 356.463C254.775 356.688 253.737 357.243 252.923 358.059C252.108 358.874 251.554 359.913 251.33 361.043C251.106 362.173 251.222 363.345 251.664 364.409C252.106 365.473 252.854 366.383 253.813 367.022C254.772 367.661 255.899 368.002 257.051 368ZM257.051 358.426C258.044 358.427 258.996 358.823 259.698 359.526C260.399 360.229 260.794 361.182 260.794 362.175C260.797 362.767 260.657 363.351 260.385 363.877C260.006 364.63 259.383 365.232 258.617 365.587C257.852 365.942 256.99 366.027 256.17 365.83C255.35 365.633 254.62 365.165 254.1 364.502C253.579 363.838 253.298 363.018 253.301 362.175C253.305 361.473 253.505 360.786 253.877 360.191C254.25 359.595 254.781 359.116 255.411 358.806C255.922 358.56 256.484 358.437 257.051 358.446V358.426Z" fill="#50567C"/>
<path d="M354.32 368C355.863 367.996 357.341 367.381 358.432 366.289C359.523 365.198 360.136 363.718 360.138 362.175H358.062C358.06 363.168 357.666 364.119 356.964 364.822C356.263 365.524 355.312 365.921 354.32 365.925C353.452 365.925 352.61 365.624 351.939 365.073C351.268 364.523 350.809 363.756 350.64 362.905C350.471 362.053 350.603 361.17 351.013 360.405C351.423 359.639 352.085 359.04 352.888 358.709C353.341 358.52 353.828 358.424 354.32 358.425C354.874 358.427 355.421 358.552 355.921 358.791C356.422 359.031 356.862 359.378 357.211 359.809L358.809 358.446C358.185 357.688 357.38 357.099 356.467 356.736C355.555 356.372 354.565 356.246 353.591 356.367C352.616 356.489 351.688 356.855 350.893 357.431C350.098 358.007 349.461 358.775 349.042 359.664C348.624 360.552 348.436 361.532 348.498 362.512C348.559 363.493 348.868 364.441 349.394 365.27C349.921 366.1 350.649 366.782 351.51 367.254C352.371 367.727 353.337 367.974 354.32 367.972V368Z" fill="#50567C"/>
<path d="M309.843 285.785H328.003V287.861H309.843V285.785Z" fill="#50567C"/>
<path d="M328.003 290.227H339.764L340.801 289.189V284.595L339.764 283.558H328.003L326.965 284.595V289.189L328.003 290.227ZM338.733 288.151H329.047V285.633H338.733V288.151Z" fill="#50567C"/>
<path d="M301.527 290.607H309.843V292.682H301.527V290.607Z" fill="#50567C"/>
<path d="M418.18 133.511L419.356 131.802L417.883 130.778L419.038 127.305L417.073 126.648L415.669 130.861L416.063 132.044L418.18 133.511Z" fill="#50567C"/>
<path d="M419.038 127.292L419.121 127.042L423.535 114.514L430.813 112.625L435.254 114.957L436.216 113.123L431.422 110.605L430.674 110.515L422.476 112.639L421.764 113.303L417.073 126.634L419.038 127.292Z" fill="#50567C"/>
<path d="M442.482 116.414L444.467 117.456L443.502 119.293L441.517 118.251L442.482 116.414Z" fill="#50567C"/>
<path d="M394.617 205.736L405.299 192.384L443.39 151.215L449.762 139.973L449.9 139.461V120.934L449.346 120.014L446.683 118.624L445.721 120.457L447.824 121.564V139.191L441.64 150.087L403.701 191.063L392.999 204.436L394.617 205.736Z" fill="#50567C"/>
<path d="M386.755 212.268L388.376 213.564L386.125 216.379L384.504 215.083L386.755 212.268Z" fill="#50567C"/>
<path d="M349.089 268.946L358.304 258.479L379.84 224.207L382.912 220.367L381.293 219.074L378.117 223.059L356.588 257.303L348.598 266.366L338.933 245.044L338.65 244.678L325.865 234.114L324.537 235.712L337.141 246.123L347.366 268.683L349.089 268.946Z" fill="#50567C"/>
<path d="M324.523 235.705L325.852 234.107L317.612 227.3L306.26 219.704L305.111 221.426L316.408 228.995L324.523 235.705Z" fill="#50567C"/>
<path d="M305.042 221.378L306.329 219.745L306.232 219.669L268.846 189.741L268.556 189.582L254.816 184.504L254.235 184.463L242.488 187.03L196.082 187.825L196.116 189.901L242.62 189.098L242.827 189.077L254.381 186.552L267.677 191.471L305.042 221.378Z" fill="#50567C"/>
<path d="M188.961 187.949L188.997 190.024L185.947 190.077L185.911 188.002L188.961 187.949Z" fill="#50567C"/>
<path d="M302.842 275.228H332.216L332.576 275.166L348.674 269.23L347.955 267.286L332.029 273.153H303.257L249.739 222.575L249.953 217.932L248.41 216.978L243.9 219.503L221.527 217.718L157.894 200.596L156.995 194.404L155.68 190.592L180.433 190.17L180.399 188.095L154.22 188.537L153.252 189.914L155.002 194.985L155.936 201.571L156.697 202.422L221.077 219.745L221.264 219.78L244.045 221.599L244.633 221.468L247.795 219.704L247.642 222.948L247.968 223.751L302.129 274.945L302.842 275.228Z" fill="#50567C"/>
<path d="M287.242 275.021L288.501 273.368L233.516 231.451L231.489 228.019L230.133 227.618L223 231.146L211.406 232.661L143.781 225.314L148.202 212.71L148.264 212.343L147.987 200.859L156.78 202.443L157.154 200.402L147.109 198.59L145.884 199.634L146.182 212.205L141.395 225.861L142.259 227.231L211.309 234.744L211.558 234.737L223.436 233.18L223.761 233.083L230.195 229.901L231.835 232.682L232.098 232.98L287.242 275.021Z" fill="#50567C"/>
<path d="M136.655 228.566L142.598 227.217L143.269 225.695L139.893 219.717V207.403L141.221 200.478L141.131 199.807L134.151 186.109L128.776 169.444L127.786 168.724H122.114L121.076 169.762V207.382H123.151V170.8H127.032L132.262 186.974L139.118 200.437L137.818 207.299V219.987L137.949 220.499L140.779 225.501L136.475 226.476L127.565 223.598L127.039 223.571L123.151 224.373V214.757H121.076V225.646L122.321 226.663L127.184 225.653L136.109 228.538L136.655 228.566Z" fill="#50567C"/>
<path d="M146.956 202.152L146.963 201.087L147.088 200.091L140.329 199.247L140.08 201.308L146.956 202.152Z" fill="#50567C"/>
<path d="M140.889 201.059L150.167 192.944L149.994 191.263L138.33 184.635L131.439 178.119L129.966 179.585L137.195 186.379L147.697 192.349L139.52 199.502L140.889 201.059Z" fill="#50567C"/>
<path d="M121.256 199.247L122.972 198.077L115.002 186.379L113.757 178.638L117.541 173.318L121.574 175.78L122.653 174.009L117.797 171.042L116.413 171.325L111.82 177.78L111.64 178.548L112.989 186.939L113.155 187.361L121.256 199.247Z" fill="#50567C"/>
<path d="M149.606 191.154L155.488 191.84L155.247 193.901L149.365 193.216L149.606 191.154Z" fill="#50567C"/>
<path d="M402.317 145.389L404.897 127.499L404.628 126.641L401.646 123.452L400.29 123.313L395.814 126.503L395.427 127.028L393.676 132.424L391.303 132.251L389.996 115.558L387.92 115.717L389.304 133.303L390.266 134.258L394.34 134.555L395.406 133.843L397.294 127.997L400.754 125.534L402.774 127.692L400.262 145.091L402.317 145.389Z" fill="#50567C"/>
<path d="M393.552 113.691L393.745 111.622L381.909 110.495L366.308 105.915L383.521 94.9774L409.256 103.265L411.843 109.872L413.78 109.118L411.013 102.055L410.363 101.446L383.693 92.8535L382.815 92.9642L363.271 105.389L363.534 107.257L381.618 112.556L393.552 113.691Z" fill="#50567C"/>
<path d="M405.022 145.382L413.725 129.561L413.85 129.152L415.337 113.386L415.275 112.916L413.787 109.118L411.85 109.872L413.248 113.441L411.809 128.744L403.203 144.379L405.022 145.382Z" fill="#50567C"/>
<path d="M373.257 121.239L380.055 122.94L379.551 124.954L372.753 123.252L373.257 121.239Z" fill="#50567C"/>
<path d="M358.92 110.48H367.319V112.556H358.92V110.48Z" fill="#50567C"/>
<path d="M358.415 125.673H364.136V127.748H358.415V125.673Z" fill="#50567C"/>
<path d="M332.783 173.041L334.693 172.225L330.272 161.979L312.59 135.012L308.107 119.308L315.322 111.117L319.625 110.896L319.515 108.827L314.776 109.069L314.049 109.415L306.17 118.36L305.955 119.336L310.639 135.732L310.763 136.022L328.487 163.044L332.783 173.041Z" fill="#50567C"/>
<path d="M331.584 108.208L331.69 110.281L329.189 110.408L329.083 108.336L331.584 108.208Z" fill="#50567C"/>
<path d="M348.315 131.581H358.284L359.321 130.577L360.027 109.422L359.086 108.357L348.259 107.36L336.083 107.976L336.187 110.051L348.294 109.436L357.917 110.328L357.28 129.505H349.352V127.776L348.135 126.759L334.679 129.104L335.039 131.145L347.277 129.014V130.543L348.315 131.581Z" fill="#50567C"/>
<path d="M396.354 163.224L405.347 152.674L426.012 124.558L424.338 123.334L403.694 151.415L394.777 161.875L396.354 163.224Z" fill="#50567C"/>
<path d="M375.537 151.609H381.715L382.088 151.54L393.047 147.326L410.501 145.12L410.238 143.058L392.417 145.341L381.521 149.533H375.786L367.297 145.237L367.152 139.82L370.079 140.159L370.556 140.104L373.157 139.142L379.086 135.704L378.567 133.767H370.763L366.931 132.812L367.754 130.405L367.041 129.07L364.516 128.378L368.598 119.46L368.633 118.686L367.27 114.784L369.705 107.873L367.74 107.215L367.692 107.361L365.194 114.438L365.187 115.13L366.536 118.976L362.123 128.627L362.794 130.059L365.43 130.778L364.599 133.207L365.326 134.549L370.639 135.842H374.707L372.195 137.302L370.079 138.07L366.211 137.613L365.049 138.672L365.236 145.908L365.803 146.808L375.073 151.498L375.537 151.609Z" fill="#50567C"/>
<path d="M369.048 148.364L369.214 146.296L353.814 145.092L341.936 134.466L330.182 125.05L328.881 126.669L340.594 136.043L352.693 146.87L353.302 147.133L369.048 148.364Z" fill="#50567C"/>
<path d="M306.446 221.073L316.81 205.805L327.885 185.044L342.877 158.638L341.071 157.614L326.066 184.041L315.004 204.781L304.731 219.904L306.446 221.073Z" fill="#50567C"/>
<path d="M344.386 151.756L346.191 152.78L344.324 156.072L342.519 155.047L344.386 151.756Z" fill="#50567C"/>
<path d="M342.282 190.613L359.833 164.684L366.046 159.405L374.984 150.675L373.552 149.173L364.621 157.897L358.38 163.196L358.194 163.404L340.566 189.451L342.282 190.613Z" fill="#50567C"/>
<path d="M334.333 200.545L336.077 201.645L334.397 204.306L332.654 203.206L334.333 200.545Z" fill="#50567C"/>
<path d="M316.049 227.783L316.139 227.693L325.298 216.735L330.411 208.662L328.653 207.548L323.582 215.566L314.547 226.358L315.308 227.002L316.049 227.783Z" fill="#50567C"/>
<path d="M383.583 157.814L400.173 146.309L398.997 144.601L383.064 155.649L376.209 149.782L374.86 151.36L382.317 157.745L383.583 157.814Z" fill="#50567C"/>
<path d="M360.401 152.232L372.466 149.942L372.078 147.901L361.245 149.956V146.628H359.169V151.208L360.401 152.232Z" fill="#50567C"/>
<path d="M414.355 112.261L422.788 112.61L422.702 114.684L414.269 114.334L414.355 112.261Z" fill="#50567C"/>
<path d="M413.318 128.142L417.151 130.273L416.142 132.087L412.309 129.955L413.318 128.142Z" fill="#50567C"/>
<path d="M366.578 134.05H368.654V138.824H366.578V134.05Z" fill="#50567C"/>
<path d="M395.872 140.36L397.547 141.586L393.632 146.933L391.957 145.707L395.872 140.36Z" fill="#50567C"/>
<path d="M194.968 365.924H382.448V368H194.968V365.924Z" fill="#50567C"/>
<path d="M347.277 108.392H349.352V127.776H347.277V108.392Z" fill="#50567C"/>
<path d="M242.372 98.2051C241.893 97.0387 242.45 95.705 243.616 95.2262C244.783 94.7473 246.117 95.3047 246.595 96.4711C247.074 97.6375 246.517 98.9712 245.35 99.45C244.184 99.9289 242.85 99.3715 242.372 98.2051Z" fill="#2AFFB2"/>
<path d="M278.331 70.8677C277.428 70.8663 276.544 71.1329 275.793 71.6338C275.041 72.1347 274.454 72.8473 274.108 73.6815C273.761 74.5157 273.67 75.434 273.845 76.3201C274.021 77.2063 274.455 78.0205 275.093 78.6598C275.731 79.299 276.545 79.7346 277.431 79.9113C278.317 80.0881 279.235 79.998 280.07 79.6527C280.905 79.3073 281.618 78.7221 282.12 77.971C282.622 77.22 282.89 76.337 282.89 75.4336C282.89 74.2239 282.41 73.0635 281.555 72.2075C280.7 71.3514 279.541 70.8695 278.331 70.8677Z" fill="#2AFFB2"/>
<path d="M267.262 88.2046C265.457 88.2046 263.693 88.7398 262.193 89.7424C260.692 90.7451 259.523 92.1702 258.832 93.8376C258.141 95.505 257.961 97.3397 258.313 99.1098C258.665 100.88 259.534 102.506 260.81 103.782C262.086 105.058 263.712 105.927 265.482 106.279C267.252 106.631 269.087 106.451 270.754 105.76C272.422 105.069 273.847 103.9 274.849 102.399C275.852 100.899 276.387 99.1343 276.387 97.3296C276.385 94.91 275.423 92.5901 273.713 90.8793C272.002 89.1684 269.682 88.2064 267.262 88.2046Z" fill="#2AFFB2"/>
<path d="M231.531 85.2159C229.16 82.2735 229.624 77.9662 232.566 75.5953C235.509 73.2245 239.816 73.6879 242.187 76.6303C244.558 79.5727 244.094 83.88 241.152 86.2508C238.209 88.6217 233.902 88.1583 231.531 85.2159Z" fill="#2AFFB2"/>
<path d="M269.58 62.6558H246.75C246.75 69.4078 251.855 74.5203 258.151 74.5203C264.446 74.5203 269.58 69.4078 269.58 62.6558Z" fill="#2AFFB2"/>
<path d="M254.976 41.6733C252.243 41.6733 251.33 43.4997 251.33 45.3261C251.33 47.1525 252.25 48.9719 254.976 48.9719H261.368V41.6733H254.976Z" fill="white"/>
<path d="M256.802 36.1938C255.419 36.1938 252.7 36.1938 252.7 38.9611C252.7 41.7283 255.467 41.7283 256.802 41.7283H261.368V36.1938H256.802Z" fill="white"/>
<path d="M257.715 36.1942H261.368V48.9719H254.976C252.25 48.9719 251.33 47.1455 251.33 45.3261C251.33 43.5066 252.243 41.6733 254.976 41.6733H256.802C255.418 41.6733 252.7 41.6733 252.7 38.9061C252.7 36.1389 255.467 36.1389 256.802 36.1389L257.715 36.1942ZM283.264 35.2879H282.807C281.817 30.5023 279.318 26.1607 275.676 22.9015C272.035 19.6424 267.444 17.6377 262.578 17.1824C257.712 16.727 252.829 17.845 248.646 20.3719C244.463 22.8988 241.202 26.7013 239.341 31.2201C237.146 30.6545 234.856 30.5628 232.623 30.9509C230.389 31.3391 228.265 32.1982 226.389 33.4712C224.514 34.7442 222.931 36.4019 221.746 38.334C220.561 40.2662 219.801 42.4284 219.516 44.6771C219.232 46.9258 219.429 49.2093 220.095 51.3757C220.762 53.5422 221.881 55.542 223.381 57.2421C224.88 58.9422 226.723 60.3036 228.789 61.2359C230.855 62.1681 233.096 62.6499 235.363 62.649H283.264C286.893 62.649 290.374 61.2073 292.94 58.6411C295.506 56.0748 296.948 52.5942 296.948 48.965C296.948 45.3358 295.506 41.8552 292.94 39.289C290.374 36.7227 286.893 35.281 283.264 35.281V35.2879Z" fill="white"/>
<path d="M272.104 21.4376L273.218 19.6873C272.623 19.3137 272.008 18.9955 271.385 18.6357L270.437 20.4829C270.984 20.7734 271.544 21.0986 272.104 21.4376Z" fill="#50567C"/>
<path d="M218.926 51.061L220.932 50.5283C220.262 48.0102 220.262 45.3604 220.934 42.8426C221.605 40.3247 222.924 38.0264 224.758 36.1761C226.593 34.3258 228.881 32.9881 231.393 32.2958C233.905 31.6035 236.555 31.5808 239.078 32.2299L240.282 31.6142C242.35 26.5563 246.243 22.4599 251.189 20.1369C256.135 17.8138 261.773 17.4336 266.986 19.0717L267.608 17.0931C262.046 15.3491 256.037 15.7012 250.716 18.0832C245.395 20.4652 241.13 24.7123 238.725 30.0231C237.619 29.7963 236.492 29.6828 235.363 29.6841C232.758 29.6862 230.188 30.2863 227.851 31.4383C225.515 32.5904 223.474 34.2635 221.885 36.3288C220.297 38.394 219.205 40.7963 218.692 43.3505C218.178 45.9047 218.259 48.5426 218.926 51.061Z" fill="#50567C"/>
<path d="M235.363 63.6935H283.264C287.124 63.6762 290.823 62.1436 293.563 59.4256C296.304 56.7077 297.868 53.022 297.918 49.1622C297.968 45.3025 296.5 41.5775 293.83 38.7897C291.16 36.0018 287.502 34.3741 283.644 34.257C282.665 30.1929 280.632 26.4586 277.75 23.4302L276.256 24.8622C279.065 27.8175 280.983 31.5055 281.79 35.5023L282.807 36.3324H283.264C286.618 36.3324 289.834 37.6648 292.206 40.0364C294.578 42.4081 295.91 45.6247 295.91 48.9787C295.91 52.3327 294.578 55.5493 292.206 57.921C289.834 60.2926 286.618 61.625 283.264 61.625H235.363C233.172 61.6273 231.007 61.1461 229.023 60.2158C227.039 59.2854 225.285 57.9288 223.886 56.2427L222.294 57.5641C223.889 59.4832 225.886 61.0274 228.145 62.0868C230.403 63.1462 232.868 63.6948 235.363 63.6935Z" fill="#50567C"/>
<path d="M258.171 75.558C265.152 75.558 270.624 69.8921 270.624 62.6558H268.549C268.549 68.7229 263.996 73.4826 258.171 73.4826C252.346 73.4826 247.794 68.7229 247.794 62.6558H245.719C245.733 69.8921 251.198 75.558 258.171 75.558Z" fill="#50567C"/>
<path d="M236.871 88.7853C238.07 88.7836 239.254 88.5082 240.33 87.9799C241.407 87.4516 242.349 86.6845 243.085 85.7369C243.82 84.7894 244.33 83.6864 244.574 82.5122C244.819 81.3379 244.792 80.1233 244.496 78.9609C244.2 77.7986 243.642 76.7191 242.866 75.8049C242.09 74.8906 241.115 74.1657 240.016 73.6853C238.917 73.205 237.722 72.9819 236.524 73.0331C235.326 73.0842 234.155 73.4083 233.101 73.9806L234.055 75.8069C235.291 75.1346 236.73 74.937 238.102 75.2513C239.473 75.5657 240.682 76.3703 241.502 77.5139C242.322 78.6574 242.695 80.0611 242.552 81.4608C242.41 82.8605 241.76 84.1598 240.727 85.1142C239.693 86.0687 238.346 86.6125 236.939 86.6435C235.533 86.6744 234.163 86.1903 233.089 85.2822C232.014 84.3741 231.308 83.1046 231.104 81.7125C230.9 80.3205 231.211 78.9017 231.98 77.7233L230.243 76.5887C229.467 77.7783 229.026 79.1555 228.968 80.5747C228.91 81.994 229.236 83.4027 229.912 84.652C230.588 85.9013 231.589 86.9449 232.809 87.6724C234.029 88.3999 235.423 88.7844 236.843 88.7853H236.871Z" fill="#50567C"/>
<path d="M278.331 81.0306C279.44 81.0306 280.523 80.7017 281.445 80.0857C282.367 79.4697 283.085 78.5941 283.509 77.5697C283.933 76.5454 284.043 75.4183 283.826 74.3311C283.61 73.2439 283.075 72.2455 282.291 71.4621C281.506 70.6787 280.507 70.1455 279.42 69.9301C278.332 69.7146 277.206 69.8266 276.182 70.2518C275.158 70.677 274.283 71.3963 273.668 72.3187C273.053 73.2411 272.726 74.3252 272.727 75.4338C272.729 76.9188 273.32 78.3423 274.371 79.3917C275.422 80.4411 276.846 81.0306 278.331 81.0306ZM278.331 71.9056C279.029 71.9056 279.711 72.1125 280.291 72.5002C280.871 72.8879 281.324 73.4389 281.591 74.0836C281.858 74.7283 281.927 75.4377 281.791 76.1221C281.655 76.8066 281.319 77.4352 280.826 77.9287C280.332 78.4221 279.704 78.7581 279.019 78.8943C278.335 79.0304 277.625 78.9605 276.981 78.6935C276.336 78.4264 275.785 77.9742 275.397 77.394C275.01 76.8138 274.803 76.1316 274.803 75.4338C274.803 74.4981 275.174 73.6007 275.836 72.939C276.498 72.2773 277.395 71.9056 278.331 71.9056Z" fill="#50567C"/>
<path d="M244.487 100.65C245.144 100.65 245.786 100.455 246.332 100.091C246.878 99.7256 247.304 99.207 247.555 98.6002C247.807 97.9935 247.872 97.3258 247.744 96.6816C247.616 96.0375 247.3 95.4458 246.835 94.9814C246.371 94.517 245.779 94.2007 245.135 94.0726C244.491 93.9445 243.823 94.0102 243.217 94.2616C242.61 94.5129 242.091 94.9385 241.726 95.4846C241.361 96.0307 241.167 96.6727 241.167 97.3295C241.169 98.2096 241.519 99.0532 242.141 99.6755C242.764 100.298 243.607 100.648 244.487 100.65ZM244.487 96.0842C244.734 96.0842 244.974 96.1573 245.179 96.2941C245.384 96.4309 245.544 96.6254 245.638 96.8529C245.732 97.0805 245.757 97.3309 245.709 97.5724C245.661 97.814 245.542 98.0359 245.368 98.21C245.194 98.3842 244.972 98.5028 244.73 98.5508C244.489 98.5989 244.238 98.5742 244.011 98.4799C243.783 98.3857 243.589 98.2261 243.452 98.0213C243.315 97.8165 243.242 97.5758 243.242 97.3295C243.244 96.9998 243.376 96.6841 243.609 96.451C243.842 96.2178 244.158 96.086 244.487 96.0842Z" fill="#50567C"/>
<path d="M267.262 107.492C269.956 107.489 272.539 106.417 274.444 104.512C276.349 102.607 277.421 100.024 277.425 97.3297H275.349C275.354 99.2503 274.676 101.11 273.435 102.576C272.194 104.042 270.471 105.018 268.576 105.33C266.681 105.642 264.737 105.27 263.091 104.279C261.446 103.289 260.207 101.745 259.595 99.9243C258.984 98.1035 259.041 96.1247 259.755 94.3419C260.47 92.5591 261.795 91.0888 263.495 90.1942C265.195 89.2995 267.157 89.0389 269.031 89.459C270.905 89.8791 272.569 90.9525 273.724 92.487L275.377 91.2348C274.338 89.8479 272.961 88.7499 271.377 88.0451C269.794 87.3404 268.057 87.0523 266.33 87.2082C264.604 87.3642 262.947 87.959 261.515 88.9361C260.084 89.9133 258.926 91.2403 258.152 92.791C257.378 94.3417 257.013 96.0646 257.093 97.796C257.172 99.5273 257.693 101.21 258.606 102.683C259.519 104.156 260.794 105.371 262.309 106.213C263.824 107.055 265.529 107.495 267.262 107.492Z" fill="#50567C"/>
<path d="M254.975 32.5479H252.9V52.6173H254.975V32.5479Z" fill="#50567C"/>
<path d="M258.629 48.9717H256.553V52.6175H258.629V48.9717Z" fill="#50567C"/>
<path d="M258.629 32.5479H256.553V36.1937H258.629V32.5479Z" fill="#50567C"/>
<path d="M258.504 42.7108V40.6354C260.794 40.6354 261.568 40.2065 261.568 38.9335C261.568 37.6606 260.794 37.2317 258.504 37.2317H250.292V35.1562H258.504C259.777 35.1562 263.644 35.1563 263.644 38.9335C263.644 42.7108 259.804 42.7108 258.504 42.7108Z" fill="#50567C"/>
<path d="M260.33 50.0098H250.292V47.9343H260.33C262.06 47.9343 262.938 47.0557 262.938 45.3262C262.938 43.5967 262.06 42.7112 260.33 42.7112H253.938V40.6357H260.33C263.789 40.6357 265.014 43.0571 265.014 45.3262C265.014 47.5953 263.782 50.0098 260.33 50.0098Z" fill="#50567C"/>
<path d="M276.525 38.3247C278.552 37.023 280.91 36.3314 283.319 36.3323V34.2568C280.512 34.2551 277.764 35.0621 275.405 36.5813L276.525 38.3247Z" fill="#50567C"/>
<path d="M127.171 79.4941C122.541 79.6973 118.169 81.6793 114.965 85.0271C111.761 88.3748 109.972 92.83 109.972 97.4639C109.972 102.098 111.761 106.553 114.965 109.901C118.169 113.248 122.541 115.23 127.171 115.434C127.96 115.432 128.747 115.381 129.53 115.281C129.856 111.194 131.572 107.342 134.393 104.366C137.214 101.39 140.969 99.4707 145.033 98.9271C145.033 98.6019 145.144 97.9032 145.144 97.4743C145.142 92.7074 143.248 88.1362 139.878 84.7649C136.508 81.3935 131.938 79.4978 127.171 79.4941Z" fill="#E2E6E9"/>
<path d="M145.462 116.07C142.826 116.07 140.847 116.728 140.847 119.363C140.847 121.999 142.826 122.656 145.462 122.656H150.069V116.07H145.462Z" fill="#2AFFB2"/>
<path d="M146.119 110.778C144.805 110.778 142.169 110.778 142.169 113.414C142.169 116.049 144.805 116.049 146.119 116.049H150.069V110.778H146.119Z" fill="#2AFFB2"/>
<path d="M146.119 122.657H145.462C142.826 122.657 140.847 121.999 140.847 119.364C140.847 116.728 142.826 116.071 145.462 116.071H146.119C144.804 116.071 142.169 116.071 142.169 113.435C142.169 110.799 144.811 110.778 146.119 110.778H150.069V122.636L146.119 122.657ZM129.515 115.282C129.474 115.759 129.453 116.244 129.453 116.728C129.453 120.285 130.508 123.763 132.485 126.721C134.461 129.679 137.27 131.984 140.557 133.346C143.844 134.707 147.46 135.063 150.949 134.369C154.438 133.675 157.643 131.962 160.159 129.447C162.674 126.931 164.388 123.726 165.082 120.237C165.776 116.748 165.419 113.131 164.058 109.844C162.697 106.558 160.391 103.749 157.433 101.772C154.475 99.7957 150.998 98.7407 147.44 98.7407C146.635 98.74 145.83 98.7954 145.033 98.9068C140.965 99.4512 137.208 101.374 134.386 104.354C131.565 107.334 129.851 111.191 129.529 115.282H129.515Z" fill="#2AFFB2"/>
<path d="M145.803 106.849H143.728V126.607H145.803V106.849Z" fill="#50567C"/>
<path d="M149.754 122.656H147.679V126.606H149.754V122.656Z" fill="#50567C"/>
<path d="M149.754 106.849H147.679V110.799H149.754V106.849Z" fill="#50567C"/>
<path d="M148.717 117.108V115.033C150.924 115.033 151.629 114.645 151.629 113.435C151.629 112.224 150.938 111.837 148.717 111.837H140.81V109.761H148.717C149.948 109.761 153.705 109.761 153.705 113.435C153.705 117.108 149.948 117.108 148.717 117.108Z" fill="#50567C"/>
<path d="M149.374 123.694H140.81V121.619H149.374C152.674 121.619 152.951 120.505 152.951 119.363C152.951 118.222 152.674 117.108 149.374 117.108H144.767V115.033H149.374C153.124 115.033 155.026 116.486 155.026 119.363C155.026 122.241 153.124 123.694 149.374 123.694Z" fill="#50567C"/>
<path d="M159.831 105.188L161.346 103.804C160.836 103.26 160.295 102.745 159.727 102.262L158.385 103.846C158.891 104.267 159.374 104.715 159.831 105.188Z" fill="#50567C"/>
<path d="M147.44 135.731C150.709 135.73 153.922 134.887 156.769 133.282C159.616 131.677 162.002 129.365 163.695 126.57C165.388 123.774 166.332 120.59 166.436 117.323C166.539 114.056 165.799 110.818 164.286 107.921L162.446 108.882C163.637 111.158 164.294 113.675 164.369 116.242C164.443 118.809 163.933 121.36 162.877 123.7C161.82 126.041 160.245 128.111 158.271 129.754C156.296 131.396 153.974 132.568 151.48 133.181C148.986 133.793 146.385 133.831 143.874 133.29C141.364 132.749 139.009 131.644 136.988 130.059C134.967 128.474 133.333 126.45 132.21 124.14C131.087 121.831 130.504 119.296 130.505 116.727C130.505 116.271 130.505 115.814 130.56 115.344C130.771 112.872 131.521 110.477 132.758 108.327C133.995 106.177 135.688 104.325 137.718 102.9C139.748 101.475 142.066 100.513 144.509 100.081C146.951 99.6495 149.459 99.7585 151.854 100.401L152.394 98.3945C149.701 97.6714 146.882 97.5491 144.137 98.0362C141.392 98.5232 138.787 99.6077 136.507 101.213C134.228 102.818 132.329 104.905 130.945 107.325C129.561 109.745 128.726 112.44 128.499 115.219C128.45 115.717 128.43 116.236 128.43 116.748C128.442 121.784 130.45 126.609 134.014 130.167C137.577 133.725 142.405 135.726 147.44 135.731Z" fill="#50567C"/>
<path d="M127.171 116.472C128.004 116.469 128.835 116.416 129.662 116.313L129.399 114.237C128.66 114.333 127.916 114.381 127.171 114.383C124.861 114.392 122.574 113.924 120.454 113.007C118.333 112.091 116.425 110.745 114.85 109.056L113.335 110.481C115.104 112.379 117.246 113.891 119.627 114.922C122.008 115.953 124.577 116.48 127.171 116.472Z" fill="#50567C"/>
<path d="M109.094 103.341L111.066 102.697C110.316 100.37 110.078 97.9085 110.37 95.4812C110.662 93.0538 111.476 90.7184 112.756 88.6355C114.036 86.5526 115.752 84.7715 117.786 83.4147C119.82 82.0579 122.123 81.1575 124.538 80.7754C126.953 80.3933 129.422 80.5386 131.775 81.2013C134.128 81.8639 136.31 83.0283 138.171 84.6142C140.032 86.2002 141.527 88.1703 142.554 90.3889C143.581 92.6076 144.115 95.0224 144.12 97.4672C144.12 97.737 144.079 98.159 144.044 98.5187V98.8301L146.12 99.0099V98.7263C146.161 98.3527 146.209 97.8408 146.209 97.4672C146.211 94.7182 145.617 92.0014 144.467 89.5044C143.317 87.0073 141.64 84.7893 139.55 83.0032C137.46 81.2172 135.008 79.9056 132.362 79.159C129.716 78.4123 126.94 78.2483 124.225 78.6783C121.51 79.1083 118.92 80.1221 116.635 81.6497C114.349 83.1773 112.422 85.1824 110.986 87.5267C109.551 89.8711 108.64 92.4989 108.318 95.2291C107.996 97.9592 108.271 100.727 109.122 103.341H109.094Z" fill="#50567C"/>
<path d="M127.361 105.624C126.458 105.622 125.568 105.417 124.755 105.022C123.943 104.628 123.231 104.056 122.67 103.348L124.317 102.089C124.685 102.542 125.149 102.908 125.675 103.161C126.201 103.413 126.777 103.546 127.361 103.549C127.928 103.549 130.778 103.41 130.778 100.699C130.778 99.3149 129.955 98.9344 127.928 98.2426C125.901 97.5508 123.348 96.6792 123.348 93.2962C123.348 91.0409 125.472 89.4705 127.375 89.4705C128.255 89.4253 129.134 89.582 129.945 89.9285C130.755 90.275 131.476 90.8022 132.051 91.4698L130.419 92.7428C130.033 92.3283 129.559 92.0056 129.033 91.7985C128.506 91.5914 127.939 91.505 127.375 91.5459C126.893 91.5524 126.43 91.7333 126.071 92.0551C125.712 92.3769 125.482 92.8179 125.424 93.2962C125.424 95.1087 126.572 95.5861 128.599 96.2779C130.391 96.8936 132.854 97.7307 132.854 100.699C132.854 104.082 130.004 105.624 127.361 105.624Z" fill="#50567C"/>
<path d="M128.399 86.7943L126.324 86.8022L126.338 90.5103L128.413 90.5024L128.399 86.7943Z" fill="#50567C"/>
<path d="M128.399 104.586H126.324V108.447H128.399V104.586Z" fill="#50567C"/>
<path d="M163.975 70.7915H166.051V89.0138H163.975V70.7915Z" fill="#50567C"/>
<path d="M172.692 82.6631H174.767V89.007H172.692V82.6631Z" fill="#50567C"/>
<path d="M156.047 77.3013H158.122V89.0067H156.047V77.3013Z" fill="#50567C"/>
<path d="M307.782 174.611H309.857V177.821H307.782V174.611Z" fill="#50567C"/>
<path d="M297.446 174.611H299.521V177.821H297.446V174.611Z" fill="#50567C"/>
<path d="M287.117 174.611H289.193V177.821H287.117V174.611Z" fill="#50567C"/>
<path d="M276.781 174.611H278.856V177.821H276.781V174.611Z" fill="#50567C"/>
<path d="M391.055 305.198H427.375V307.273H391.055V305.198Z" fill="#50567C"/>
<path d="M413.753 297.131H427.375V299.206H413.753V297.131Z" fill="#50567C"/>
<path d="M417.343 312.538H427.375V314.613H417.343V312.538Z" fill="#50567C"/>
<path d="M391.048 312.538H409.208V314.613H391.048V312.538Z" fill="#50567C"/>
<path d="M391.055 320.632H427.375V322.707H391.055V320.632Z" fill="#50567C"/>
<rect x="62" y="254" width="13" height="99" fill="#E2E6E9"/>
</g>
<defs>
<clipPath id="clip0">
<rect width="462" height="397" fill="white"/>
</clipPath>
</defs>
</svg>
