<?xml version="1.0" encoding="utf-8"?>
<!-- Generator: Adobe Illustrator 21.1.0, SVG Export Plug-In . SVG Version: 6.00 Build 0)  -->
<svg version="1.1" id="Layer_1" xmlns="http://www.w3.org/2000/svg" xmlns:xlink="http://www.w3.org/1999/xlink" x="0px" y="0px"
	 viewBox="0 0 1832 496" style="enable-background:new 0 0 1832 496;" xml:space="preserve">
<style type="text/css">
	.st0{fill:#85C888;}
	.st1{fill:#FFFFFF;}
	.st2{fill:none;stroke:#FFFFFF;stroke-width:12;stroke-miterlimit:10;}
	.st3{fill:none;stroke:#FFFFFF;stroke-width:4;stroke-miterlimit:10;}
</style>
<path class="st0" d="M1361.9,260.1c0,0,17.1-13.9,6.9-37.7c-7.5-17.7-29.3-19-29.3-19h-5.1v-43.5h-14.1v43.5h-16.2v-43.6H1290v43.6
	l-34.1,0.1l0.3,13.6c0,0,9-1.3,14.4,4.4c3,3.2,4.4,12.1,4.4,12.1l-0.6,63.9c0,0-1.1,7.8-4.9,9.5s-10,2.6-10,2.6l-3.6,14.6h34.1v31.9
	h14.1v-31.9h16.2v31.9h14.1v-31.9h10.3c0,0,29.1,0.3,33.4-25.4C1383.2,268.4,1361.9,260.1,1361.9,260.1z M1304.6,225.5h27
	c0,0,9.8,1.9,11,12.6c2,18-11,18-11,18h-27V225.5z M1333.2,301.5h-28.6V271h34.4c0,0,10.2,1.8,11,12.6
	C1351.6,304,1333.2,301.5,1333.2,301.5z"/>
<path class="st1" d="M902,268.4L847.5,214c-4.6-4.6-12.6-1.3-12.6,5.2V328c0,6.5,7.9,9.8,12.6,5.2l54.5-54.4
	C904.9,275.9,904.9,271.3,902,268.4z"/>
<path class="st1" d="M734.8,287.8v-28.5c0-6.4,5.2-11.5,11.5-11.5h95.3c6.4,0,11.5,5.2,11.5,11.5v28.5c0,6.4-5.2,11.5-11.5,11.5
	h-95.3C739.9,299.4,734.8,294.2,734.8,287.8z"/>
<circle class="st2" cx="1317.3" cy="258" r="192.2"/>
<circle class="st3" cx="1317.3" cy="258" r="222.9"/>
<path class="st1" d="M483.4,115L229.1,61.2c-10.8-2.3-21.4,4.7-23.7,15.4l-4.8,31l293.4,62.1l4.8-31C501,128,494.1,117.3,483.4,115
	L483.4,115z M483.4,115"/>
<path class="st1" d="M376.4,176.4c-3-10.7-14.1-17-24.8-14.1l-48.3,13.4l-113.8-24.1L177,210.8l-78.2,21.7c-10.7,3-17,14.1-14,24.8
	l44.1,158.8c3,10.7,14.1,17,24.8,14L406.4,360c10.7-3,17-14.1,14-24.8l-7.6-27.3l28.4,6c10.8,2.3,21.4-4.7,23.7-15.4l17.9-84.8
	l-102.1-21.6L376.4,176.4z M405.6,257.1l6.3-29.5c0.9-4.4,5.3-7.3,9.8-6.3l29.5,6.3c4.4,0.9,7.3,5.3,6.3,9.7l-6.3,29.5
	c-0.9,4.4-5.3,7.3-9.7,6.3l-29.5-6.3C407.5,265.9,404.7,261.5,405.6,257.1L405.6,257.1z M103.2,248.3l70-19.4l165.1-45.8l17.8-4.9
	c0.3-0.1,0.6-0.1,1-0.1c1.4,0,3.1,0.9,3.6,2.7l2.1,7.5l6.5,23.5l-260,72.1l-8.6-31C100,251,101.2,248.9,103.2,248.3L103.2,248.3z
	 M404.6,339.6c0.3,1.2,0,2.2-0.4,2.8c-0.3,0.6-1,1.4-2.2,1.8l-252.8,70.2c-0.3,0.1-0.6,0.1-1,0.1c-1.4,0-3.1-0.9-3.6-2.7L119,319.1
	l260-72.1l15.9,57.1L404.6,339.6z M404.6,339.6"/>
<path class="st1" d="M190.1,345.9c-1.2-4.4-5.8-6.9-10.1-5.7l-29.5,8.2c-4.4,1.2-6.9,5.8-5.7,10.1l8.2,29.5
	c1.2,4.4,5.8,6.9,10.1,5.7l29.5-8.2c4.4-1.2,6.9-5.8,5.7-10.1L190.1,345.9z M190.1,345.9"/>
</svg>
